<svg xmlns="http://www.w3.org/2000/svg" viewBox="0 0 800 600" width="800" height="600">
<style>
  .title { font: bold 16px sans-serif; fill: #1f2937; }
  .desc { font: 12px sans-serif; fill: #6b7280; }
  .label { font: 10px monospace; fill: #374151; }
  .grid { stroke: #e5e7eb; stroke-width: 0.5; }
</style>
<rect width="800" height="600" fill="#fafafa" rx="4"/>
<text x="60" y="24" class="title">Highway Turn</text>
<text x="60" y="42" class="desc">30 m/s north → 90° turn east during 13s GNSS outage</text>
<line x1="60" y1="60.0" x2="740.0" y2="60.0" class="grid"/><line x1="60.0" y1="60" x2="60.0" y2="540.0" class="grid"/><line x1="60" y1="180.0" x2="740.0" y2="180.0" class="grid"/><line x1="230.0" y1="60" x2="230.0" y2="540.0" class="grid"/><line x1="60" y1="300.0" x2="740.0" y2="300.0" class="grid"/><line x1="400.0" y1="60" x2="400.0" y2="540.0" class="grid"/><line x1="60" y1="420.0" x2="740.0" y2="420.0" class="grid"/><line x1="570.0" y1="60" x2="570.0" y2="540.0" class="grid"/><line x1="60" y1="540.0" x2="740.0" y2="540.0" class="grid"/><line x1="740.0" y1="60" x2="740.0" y2="540.0" class="grid"/><path d="M130,500 L130,455 L130,410 L611,167 " fill="none" stroke="#2563eb" stroke-width="2" opacity="0.5"/><path d="M130,410 L130,407 L130,404 L130,402 L130,399 L130,396 L130,393 L130,391 L130,388 L130,385 L130,383 L130,380 L130,377 L130,375 L130,372 L130,369 L130,367 L130,364 L130,361 L130,358 L130,356 L130,353 L130,350 L130,348 L130,345 L130,342 L130,340 L130,337 L130,334 L130,331 L130,329 L130,326 L130,323 L130,321 L130,318 L130,315 L130,313 L130,310 L130,307 L130,304 L130,302 L130,299 L130,296 L130,294 L130,291 L130,288 L130,286 L130,283 L130,280 L130,278 L130,275 L130,272 L130,269 L130,267 L130,264 L130,261 L130,259 L130,256 L130,253 L130,251 L130,248 L130,245 L130,242 L130,240 L130,237 L130,234 L130,232 L130,229 L130,226 L130,224 L130,221 L130,218 L130,216 L130,213 L130,210 L130,207 L130,205 L130,202 L130,199 L130,197 L130,194 L130,191 L130,189 L130,186 L130,183 L130,180 L131,178 L131,175 L132,172 L133,170 L134,167 L135,164 L136,162 L138,159 L139,157 L141,154 L143,152 L145,149 L147,147 L149,144 L151,142 L154,140 L156,138 L159,135 L162,133 L165,131 L168,129 L171,127 L175,125 L178,123 L182,121 L185,120 L189,118 L193,116 L197,115 L201,113 L205,112 L209,111 L213,109 L218,108 L222,107 L226,106 L231,105 L236,104 L240,103 L245,103 L249,102 L254,102 L259,101 L264,101 L268,100 L273,100 L278,100 L283,100 L288,100 L292,100 L297,100 L302,100 L307,100 L311,100 L316,100 L321,100 L326,100 L331,100 L335,100 L340,100 L345,100 L350,100 L355,100 L359,100 L364,100 L369,100 L374,100 L379,100 L383,100 L388,100 L393,100 L398,100 L403,100 L407,100 L412,100 L417,100 L422,100 L427,100 L431,100 L436,100 L441,100 L446,100 L451,100 L455,100 L460,100 L465,100 L470,100 L475,100 L479,100 L484,100 L489,100 L494,100 L499,100 L503,100 L508,100 L513,100 L518,100 L523,100 L527,100 L532,100 L537,100 L542,100 L547,100 L551,100 L556,100 L561,100 L566,100 L571,100 L575,100 L580,100 L585,100 L590,100 L595,100 L599,100 L604,100 L609,100 L614,100 L619,100 L623,101 L628,101 L633,101 L638,101 L643,101 L647,101 L652,101 L657,101 L662,101 L667,101 L671,101 L676,101 L681,101 " fill="none" stroke="#dc2626" stroke-width="2" opacity="0.7" stroke-dasharray="6,3"/><path d="M165,393 L167,392 L169,390 L171,389 L173,388 L175,387 L177,386 L179,385 L181,384 L183,383 L185,382 L188,381 L190,380 L192,379 L194,378 L196,377 L198,376 L200,375 L202,374 L204,373 L206,372 L208,371 L210,370 L212,369 L214,368 L216,367 L218,365 L220,364 L223,363 L225,362 L227,361 L229,360 L231,359 L233,358 L235,357 L237,356 L239,355 L241,354 L243,353 L245,352 L247,351 L249,350 L251,349 L253,348 L255,347 L258,346 L260,345 L262,344 L264,343 L266,342 L268,340 L270,339 L272,338 L274,337 L276,336 L278,335 L280,334 L282,333 L284,332 L286,331 L288,330 L291,329 L293,328 L295,327 L297,326 L299,325 L301,324 L303,323 L305,322 L307,321 L309,320 L311,319 L313,318 L315,317 L317,315 L319,314 L321,313 L323,312 L326,311 L328,310 L330,309 L332,308 L334,307 L336,306 L338,305 L340,304 L342,303 L344,302 L346,301 L348,300 L350,299 L352,298 L354,297 L356,296 L358,295 L361,294 L363,293 L365,292 L367,290 L369,289 L371,288 L373,287 L375,286 L377,285 L379,284 L381,283 L383,282 L385,281 L387,280 L389,279 L391,278 L393,277 L396,276 L398,275 L400,274 L402,273 L404,272 L406,271 L408,270 L410,269 L412,268 L414,267 L416,265 L418,264 L420,263 L422,262 L424,261 L426,260 L429,259 L431,258 L433,257 L435,256 L437,255 L439,254 L441,253 L443,252 L445,251 L447,250 L449,249 L451,248 L453,247 L455,246 L457,245 L459,244 L461,243 L464,242 L466,240 L468,239 L470,238 L472,237 L474,236 L476,235 L478,234 L480,233 L482,232 L484,231 L486,230 L488,229 L490,228 L492,227 L494,226 L496,225 L499,224 L501,223 L503,222 L505,221 L507,220 L509,219 L511,218 L513,217 L515,215 L517,214 L519,213 L521,212 L523,211 L525,210 L527,209 L529,208 L531,207 L534,206 L536,205 L538,204 L540,203 L542,202 L544,201 L546,200 L548,199 L550,198 L552,197 L554,196 L556,195 L558,194 L560,193 L562,191 L564,190 L566,189 L569,188 L571,187 L573,186 L575,185 L577,184 L579,183 L581,182 L583,181 L585,180 L587,179 L589,178 L591,177 L593,176 L595,175 L597,174 L599,173 L602,172 L604,171 L606,170 L608,169 L610,168 " fill="none" stroke="#16a34a" stroke-width="2" opacity="0.7" stroke-dasharray="3,3"/><path d="M130,410 L130,407 L130,405 L130,402 L130,399 L130,397 L130,394 L129,391 L129,389 L129,386 L129,384 L129,381 L129,378 L129,376 L129,373 L129,370 L129,368 L129,365 L129,363 L129,360 L128,357 L128,355 L128,352 L128,350 L128,347 L128,344 L128,342 L128,339 L128,337 L127,334 L127,331 L127,329 L127,326 L127,324 L127,321 L127,319 L126,316 L126,313 L126,311 L126,308 L126,306 L126,303 L126,301 L125,298 L125,296 L125,293 L125,290 L125,288 L125,285 L124,283 L124,280 L124,278 L124,275 L124,273 L124,270 L123,268 L123,265 L123,263 L123,260 L123,258 L122,255 L122,253 L122,250 L122,248 L122,245 L121,243 L121,240 L121,238 L121,235 L120,233 L120,230 L120,228 L120,225 L119,223 L119,220 L119,218 L119,215 L118,213 L118,210 L118,208 L118,205 L117,203 L117,200 L117,198 L117,196 L117,193 L117,191 L117,188 L117,186 L118,183 L119,181 L119,179 L120,176 L122,174 L123,172 L124,169 L126,167 L127,165 L129,163 L131,161 L133,159 L135,157 L138,155 L140,153 L143,151 L145,149 L148,147 L151,146 L154,144 L157,143 L160,141 L164,140 L167,138 L170,137 L174,136 L178,135 L181,133 L185,132 L189,132 L193,131 L197,130 L201,129 L205,129 L209,128 L214,128 L218,127 L222,127 L227,127 L231,127 L235,127 L240,127 L244,127 L248,127 L253,127 L257,128 L262,128 L266,129 L270,129 L275,129 L279,130 L284,130 L288,130 L292,131 L297,131 L301,132 L305,132 L310,132 L314,133 L318,133 L323,134 L327,134 L332,134 L336,135 L340,135 L345,136 L349,136 L353,137 L358,137 L362,137 L366,138 L371,138 L375,139 L379,139 L384,140 L388,140 L392,141 L396,141 L401,141 L405,142 L409,142 L414,143 L418,143 L422,144 L427,144 L431,145 L435,145 L439,146 L444,146 L448,147 L452,147 L457,148 L461,148 L465,149 L469,149 L474,150 L478,150 L482,151 L486,151 L491,152 L495,152 L499,153 L503,153 L508,154 L512,154 L516,155 L520,155 L525,156 L529,156 L533,157 L537,157 L542,158 L546,158 L550,159 L554,159 L558,160 L563,161 L567,161 L571,162 L575,162 L579,163 L584,163 L588,164 L592,164 L596,165 L600,166 L605,166 L609,167 " fill="none" stroke="#ea580c" stroke-width="2" opacity="0.7" stroke-dasharray="8,3,2,3"/><circle cx="130" cy="500" r="4" fill="#2563eb" stroke="#2563eb"/><circle cx="130" cy="455" r="4" fill="#2563eb" stroke="#2563eb"/><circle cx="130" cy="410" r="4" fill="#2563eb" stroke="#2563eb"/><circle cx="611" cy="167" r="4" fill="#2563eb" stroke="#2563eb"/><circle cx="580" cy="530" r="4" fill="#2563eb"/>
<text x="590.0" y="534.0" class="label">GNSS fix</text><line x1="570.0" y1="546" x2="584.0" y2="546" stroke="#dc2626" stroke-width="2" stroke-dasharray="6,3"/>
<text x="590.0" y="550.0" class="label">Raw DR</text><line x1="570.0" y1="562" x2="584.0" y2="562" stroke="#16a34a" stroke-width="2" stroke-dasharray="3,3"/>
<text x="590.0" y="566.0" class="label">Linear</text><line x1="570.0" y1="578" x2="584.0" y2="578" stroke="#ea580c" stroke-width="2" stroke-dasharray="8,3,2,3"/>
<text x="590.0" y="582.0" class="label">EndpointConstrained</text>
</svg>