<svg xmlns="http://www.w3.org/2000/svg" viewBox="0 0 800 600" width="800" height="600">
<style>
  .title { font: bold 16px sans-serif; fill: #1f2937; }
  .desc { font: 12px sans-serif; fill: #6b7280; }
  .label { font: 10px monospace; fill: #374151; }
  .grid { stroke: #e5e7eb; stroke-width: 0.5; }
</style>
<rect width="800" height="600" fill="#fafafa" rx="4"/>
<text x="60" y="24" class="title">Highway Turn</text>
<text x="60" y="42" class="desc">30 m/s north → 90° turn east during 13s GNSS outage</text>
<line x1="60" y1="60.0" x2="740.0" y2="60.0" class="grid"/><line x1="60.0" y1="60" x2="60.0" y2="540.0" class="grid"/><line x1="60" y1="180.0" x2="740.0" y2="180.0" class="grid"/><line x1="230.0" y1="60" x2="230.0" y2="540.0" class="grid"/><line x1="60" y1="300.0" x2="740.0" y2="300.0" class="grid"/><line x1="400.0" y1="60" x2="400.0" y2="540.0" class="grid"/><line x1="60" y1="420.0" x2="740.0" y2="420.0" class="grid"/><line x1="570.0" y1="60" x2="570.0" y2="540.0" class="grid"/><line x1="60" y1="540.0" x2="740.0" y2="540.0" class="grid"/><line x1="740.0" y1="60" x2="740.0" y2="540.0" class="grid"/><path d="M132,500 L132,452 L132,404 L683,143 " fill="none" stroke="#2563eb" stroke-width="2" opacity="0.5"/><path d="M132,403 L132,400 L132,397 L132,395 L132,392 L132,389 L132,386 L132,383 L132,380 L132,377 L132,374 L132,371 L132,369 L132,366 L132,363 L132,360 L132,357 L132,354 L132,351 L132,348 L132,345 L132,343 L132,340 L132,337 L132,334 L132,331 L132,328 L132,325 L132,322 L132,319 L132,317 L132,314 L132,311 L132,308 L132,305 L132,302 L132,299 L132,296 L132,293 L132,291 L132,288 L132,285 L132,282 L132,279 L132,276 L132,273 L132,270 L132,267 L132,265 L132,262 L132,259 L132,256 L132,253 L132,250 L132,247 L132,244 L132,241 L132,239 L132,236 L132,233 L132,230 L132,227 L132,224 L132,221 L132,218 L132,215 L132,213 L132,210 L132,207 L132,204 L132,201 L132,198 L132,195 L132,192 L132,189 L132,187 L132,184 L132,181 L132,178 L132,175 L132,172 L132,169 L132,166 L132,163 L132,161 L133,158 L133,155 L134,152 L134,149 L135,146 L136,143 L138,141 L139,138 L141,135 L142,132 L144,130 L146,127 L149,124 L151,122 L154,119 L156,117 L159,114 L162,112 L165,109 L169,107 L172,105 L176,103 L179,100 L183,98 L187,96 L191,94 L195,93 L200,91 L204,89 L209,87 L213,86 L218,84 L223,83 L228,82 L233,80 L238,79 L243,78 L248,77 L253,76 L258,75 L264,74 L269,74 L274,73 L280,73 L285,72 L291,72 L296,72 L302,72 L307,71 L313,71 L318,71 L324,72 L329,72 L335,72 L340,72 L346,72 L351,72 L357,72 L362,72 L368,72 L373,72 L379,72 L384,72 L390,72 L395,72 L401,72 L406,72 L412,72 L417,72 L423,72 L428,72 L434,72 L439,72 L445,72 L450,72 L456,72 L461,72 L467,72 L472,72 L478,72 L483,72 L489,72 L494,72 L500,72 L505,72 L511,72 L516,72 L522,72 L527,72 L533,72 L538,72 L544,72 L549,72 L555,72 L560,72 L566,72 L571,72 L577,72 L582,72 L588,72 L593,72 L599,72 L604,72 L610,72 L615,72 L621,72 L626,72 L632,72 L637,72 L643,72 L648,72 L654,72 L659,72 L665,72 L670,72 L676,72 L681,72 L687,72 L692,72 L698,72 L703,72 L709,72 L714,72 L720,72 L725,72 L731,72 L736,72 L742,72 L747,72 L753,72 L758,72 L764,72 " fill="none" stroke="#dc2626" stroke-width="2" opacity="0.7" stroke-dasharray="6,3"/><path d="M172,385 L174,384 L177,383 L179,382 L181,380 L184,379 L186,378 L188,377 L191,376 L193,375 L196,374 L198,373 L200,372 L203,370 L205,369 L207,368 L210,367 L212,366 L214,365 L217,364 L219,363 L222,361 L224,360 L226,359 L229,358 L231,357 L233,356 L236,355 L238,354 L240,353 L243,351 L245,350 L248,349 L250,348 L252,347 L255,346 L257,345 L259,344 L262,343 L264,341 L266,340 L269,339 L271,338 L274,337 L276,336 L278,335 L281,334 L283,332 L285,331 L288,330 L290,329 L292,328 L295,327 L297,326 L300,325 L302,324 L304,322 L307,321 L309,320 L311,319 L314,318 L316,317 L318,316 L321,315 L323,313 L325,312 L328,311 L330,310 L333,309 L335,308 L337,307 L340,306 L342,305 L344,303 L347,302 L349,301 L351,300 L354,299 L356,298 L359,297 L361,296 L363,295 L366,293 L368,292 L370,291 L373,290 L375,289 L377,288 L380,287 L382,286 L385,284 L387,283 L389,282 L392,281 L394,280 L396,279 L399,278 L401,277 L403,276 L406,274 L408,273 L411,272 L413,271 L415,270 L418,269 L420,268 L422,267 L425,265 L427,264 L429,263 L432,262 L434,261 L437,260 L439,259 L441,258 L444,257 L446,255 L448,254 L451,253 L453,252 L455,251 L458,250 L460,249 L462,248 L465,247 L467,245 L470,244 L472,243 L474,242 L477,241 L479,240 L481,239 L484,238 L486,236 L488,235 L491,234 L493,233 L496,232 L498,231 L500,230 L503,229 L505,228 L507,226 L510,225 L512,224 L514,223 L517,222 L519,221 L522,220 L524,219 L526,217 L529,216 L531,215 L533,214 L536,213 L538,212 L540,211 L543,210 L545,209 L548,207 L550,206 L552,205 L555,204 L557,203 L559,202 L562,201 L564,200 L566,199 L569,197 L571,196 L574,195 L576,194 L578,193 L581,192 L583,191 L585,190 L588,188 L590,187 L592,186 L595,185 L597,184 L599,183 L602,182 L604,181 L607,180 L609,178 L611,177 L614,176 L616,175 L618,174 L621,173 L623,172 L625,171 L628,170 L630,168 L633,167 L635,166 L637,165 L640,164 L642,163 L644,162 L647,161 L649,159 L651,158 L654,157 L656,156 L659,155 L661,154 L663,153 L666,152 L668,151 L670,149 L673,148 L675,147 L677,146 L680,145 L682,144 " fill="none" stroke="#16a34a" stroke-width="2" opacity="0.7" stroke-dasharray="3,3"/><path d="M132,404 L132,401 L132,398 L132,395 L132,392 L131,389 L131,387 L131,384 L131,381 L131,378 L131,375 L131,372 L131,370 L131,367 L131,364 L131,361 L131,358 L130,356 L130,353 L130,350 L130,347 L130,344 L130,342 L130,339 L130,336 L130,333 L129,331 L129,328 L129,325 L129,322 L129,319 L129,317 L129,314 L128,311 L128,308 L128,306 L128,303 L128,300 L128,297 L127,295 L127,292 L127,289 L127,286 L127,284 L127,281 L126,278 L126,275 L126,273 L126,270 L126,267 L125,265 L125,262 L125,259 L125,256 L125,254 L124,251 L124,248 L124,246 L124,243 L123,240 L123,238 L123,235 L123,232 L122,230 L122,227 L122,224 L122,222 L121,219 L121,216 L121,214 L121,211 L120,208 L120,206 L120,203 L120,200 L119,198 L119,195 L119,192 L118,190 L118,187 L118,184 L118,182 L117,179 L117,176 L117,174 L117,171 L117,169 L117,166 L117,163 L118,161 L119,158 L120,156 L121,153 L122,151 L124,148 L125,146 L127,144 L129,141 L131,139 L133,137 L136,134 L138,132 L141,130 L144,128 L146,126 L149,124 L153,122 L156,121 L159,119 L163,117 L167,115 L170,114 L174,112 L178,111 L182,110 L187,109 L191,107 L195,106 L200,105 L204,104 L209,104 L214,103 L218,102 L223,102 L228,101 L233,101 L238,100 L243,100 L248,100 L253,100 L258,100 L263,100 L268,100 L273,101 L278,101 L283,102 L288,102 L293,102 L298,103 L303,103 L308,104 L313,104 L318,105 L323,105 L328,105 L333,106 L338,106 L343,107 L348,107 L353,108 L358,108 L363,108 L368,109 L373,109 L378,110 L383,110 L388,111 L393,111 L398,112 L403,112 L408,113 L413,113 L418,113 L423,114 L428,114 L433,115 L438,115 L443,116 L447,116 L452,117 L457,117 L462,118 L467,118 L472,119 L477,119 L482,120 L487,120 L492,121 L497,121 L502,122 L506,122 L511,123 L516,124 L521,124 L526,125 L531,125 L536,126 L541,126 L546,127 L550,127 L555,128 L560,128 L565,129 L570,129 L575,130 L580,131 L585,131 L589,132 L594,132 L599,133 L604,133 L609,134 L614,135 L618,135 L623,136 L628,136 L633,137 L638,138 L643,138 L647,139 L652,139 L657,140 L662,141 L667,141 L671,142 L676,142 L681,143 " fill="none" stroke="#ea580c" stroke-width="2" opacity="0.7" stroke-dasharray="8,3,2,3"/><circle cx="132" cy="500" r="4" fill="#2563eb" stroke="#2563eb"/><circle cx="132" cy="452" r="4" fill="#2563eb" stroke="#2563eb"/><circle cx="132" cy="404" r="4" fill="#2563eb" stroke="#2563eb"/><circle cx="683" cy="143" r="4" fill="#2563eb" stroke="#2563eb"/><circle cx="580" cy="530" r="4" fill="#2563eb"/>
<text x="590.0" y="534.0" class="label">GNSS fix</text><line x1="570.0" y1="546" x2="584.0" y2="546" stroke="#dc2626" stroke-width="2" stroke-dasharray="6,3"/>
<text x="590.0" y="550.0" class="label">IMU-only</text><line x1="570.0" y1="562" x2="584.0" y2="562" stroke="#16a34a" stroke-width="2" stroke-dasharray="3,3"/>
<text x="590.0" y="566.0" class="label">Linear</text><line x1="570.0" y1="578" x2="584.0" y2="578" stroke="#ea580c" stroke-width="2" stroke-dasharray="8,3,2,3"/>
<text x="590.0" y="582.0" class="label">EndpointConstrained</text>
</svg>