<svg xmlns="http://www.w3.org/2000/svg" viewBox="0 0 800 600" width="800" height="600">
<style>
  .title { font: bold 16px sans-serif; fill: #1f2937; }
  .desc { font: 12px sans-serif; fill: #6b7280; }
  .label { font: 10px monospace; fill: #374151; }
  .grid { stroke: #e5e7eb; stroke-width: 0.5; }
</style>
<rect width="800" height="600" fill="#fafafa" rx="4"/>
<text x="60" y="24" class="title">Max Duration Cutoff</text>
<text x="60" y="42" class="desc">DR stops after 30s limit — gap visible before GNSS re-acquisition</text>
<line x1="60" y1="60.0" x2="740.0" y2="60.0" class="grid"/><line x1="60.0" y1="60" x2="60.0" y2="540.0" class="grid"/><line x1="60" y1="180.0" x2="740.0" y2="180.0" class="grid"/><line x1="230.0" y1="60" x2="230.0" y2="540.0" class="grid"/><line x1="60" y1="300.0" x2="740.0" y2="300.0" class="grid"/><line x1="400.0" y1="60" x2="400.0" y2="540.0" class="grid"/><line x1="60" y1="420.0" x2="740.0" y2="420.0" class="grid"/><line x1="570.0" y1="60" x2="570.0" y2="540.0" class="grid"/><line x1="60" y1="540.0" x2="740.0" y2="540.0" class="grid"/><line x1="740.0" y1="60" x2="740.0" y2="540.0" class="grid"/><path d="M117,300 L683,300 " fill="none" stroke="#2563eb" stroke-width="2" opacity="0.5"/><path d="M117,300 L118,300 L119,300 L120,300 L121,300 L121,300 L122,300 L123,300 L124,300 L125,300 L126,300 L127,300 L128,300 L129,300 L130,300 L131,300 L132,300 L133,300 L134,300 L135,300 L136,300 L137,300 L138,300 L138,300 L139,300 L140,300 L141,300 L142,300 L143,300 L144,300 L145,300 L146,300 L147,300 L148,300 L149,300 L150,300 L151,300 L152,300 L153,300 L154,300 L155,300 L155,300 L156,300 L157,300 L158,300 L159,300 L160,300 L161,300 L162,300 L163,300 L164,300 L165,300 L166,300 L167,300 L168,300 L169,300 L170,300 L171,300 L172,300 L173,300 L173,300 L174,300 L175,300 L176,300 L177,300 L178,300 L179,300 L180,300 L181,300 L182,300 L183,300 L184,300 L185,300 L186,300 L187,300 L188,300 L189,300 L190,300 L190,300 L191,300 L192,300 L193,300 L194,300 L195,300 L196,300 L197,300 L198,300 L199,300 L200,300 L201,300 L202,300 L203,300 L204,300 L205,300 L206,300 L207,300 L207,300 L208,300 L209,300 L210,300 L211,300 L212,300 L213,300 L214,300 L215,300 L216,300 L217,300 L218,300 L219,300 L220,300 L221,300 L222,300 L223,300 L224,300 L225,300 L225,300 L226,300 L227,300 L228,300 L229,300 L230,300 L231,300 L232,300 L233,300 L234,300 L235,300 L236,300 L237,300 L238,300 L239,300 L240,300 L241,300 L242,300 L242,300 L243,300 L244,300 L245,300 L246,300 L247,300 L248,300 L249,300 L250,300 L251,300 L252,300 L253,300 L254,300 L255,300 L256,300 L257,300 L258,300 L259,300 L259,300 L260,300 L261,300 L262,300 L263,300 L264,300 L265,300 L266,300 L267,300 L268,300 L269,300 L270,300 L271,300 L272,300 L273,300 L274,300 L275,300 L276,300 L277,300 L277,300 L278,300 L279,300 L280,300 L281,300 L282,300 L283,300 L284,300 L285,300 L286,300 L287,300 L288,300 L289,300 L290,300 L291,300 L292,300 L293,300 L294,300 L294,300 L295,300 L296,300 L297,300 L298,300 L299,300 L300,300 L301,300 L302,300 L303,300 L304,300 L305,300 " fill="none" stroke="#dc2626" stroke-width="2" opacity="0.7" stroke-dasharray="6,3"/><path d="M126,300 L127,300 L129,300 L130,300 L131,300 L133,300 L134,300 L135,300 L137,300 L138,300 L140,300 L141,300 L142,300 L144,300 L145,300 L146,300 L148,300 L149,300 L151,300 L152,300 L153,300 L155,300 L156,300 L157,300 L159,300 L160,300 L162,300 L163,300 L164,300 L166,300 L167,300 L168,300 L170,300 L171,300 L173,300 L174,300 L175,300 L177,300 L178,300 L179,300 L181,300 L182,300 L183,300 L185,300 L186,300 L188,300 L189,300 L190,300 L192,300 L193,300 L194,300 L196,300 L197,300 L199,300 L200,300 L201,300 L203,300 L204,300 L205,300 L207,300 L208,300 L210,300 L211,300 L212,300 L214,300 L215,300 L216,300 L218,300 L219,300 L220,300 L222,300 L223,300 L225,300 L226,300 L227,300 L229,300 L230,300 L231,300 L233,300 L234,300 L236,300 L237,300 L238,300 L240,300 L241,300 L242,300 L244,300 L245,300 L247,300 L248,300 L249,300 L251,300 L252,300 L253,300 L255,300 L256,300 L258,300 L259,300 L260,300 L262,300 L263,300 L264,300 L266,300 L267,300 L268,300 L270,300 L271,300 L273,300 L274,300 L275,300 L277,300 L278,300 L279,300 L281,300 L282,300 L284,300 L285,300 L286,300 L288,300 L289,300 L290,300 L292,300 L293,300 L295,300 L296,300 L297,300 L299,300 L300,300 L301,300 L303,300 L304,300 L305,300 L307,300 L308,300 L310,300 L311,300 L312,300 L314,300 L315,300 L316,300 L318,300 L319,300 L321,300 L322,300 L323,300 L325,300 L326,300 L327,300 L329,300 L330,300 L332,300 L333,300 L334,300 L336,300 L337,300 L338,300 L340,300 L341,300 L343,300 L344,300 L345,300 L347,300 L348,300 L349,300 L351,300 L352,300 L353,300 L355,300 L356,300 L358,300 L359,300 L360,300 L362,300 L363,300 L364,300 L366,300 L367,300 L369,300 L370,300 L371,300 L373,300 L374,300 L375,300 L377,300 L378,300 L380,300 L381,300 L382,300 L384,300 L385,300 L386,300 L388,300 L389,300 L390,300 L392,300 L393,300 L395,300 L396,300 L397,300 L399,300 " fill="none" stroke="#16a34a" stroke-width="2" opacity="0.7" stroke-dasharray="3,3"/><path d="M117,300 L118,300 L119,300 L120,300 L121,300 L122,300 L123,300 L124,300 L125,300 L126,300 L127,300 L128,300 L129,300 L130,300 L131,300 L132,300 L133,300 L134,300 L135,300 L136,300 L137,300 L138,300 L139,300 L140,300 L142,300 L143,300 L144,300 L145,300 L146,300 L147,300 L148,300 L149,300 L150,300 L151,300 L153,300 L154,300 L155,300 L156,300 L157,300 L158,300 L159,300 L161,300 L162,300 L163,300 L164,300 L165,300 L166,300 L168,300 L169,300 L170,300 L171,300 L172,300 L174,300 L175,300 L176,300 L177,300 L178,300 L180,300 L181,300 L182,300 L183,300 L185,300 L186,300 L187,300 L188,300 L190,300 L191,300 L192,300 L193,300 L195,300 L196,300 L197,300 L198,300 L200,300 L201,300 L202,300 L204,300 L205,300 L206,300 L208,300 L209,300 L210,300 L212,300 L213,300 L214,300 L216,300 L217,300 L218,300 L220,300 L221,300 L222,300 L224,300 L225,300 L227,300 L228,300 L229,300 L231,300 L232,300 L234,300 L235,300 L236,300 L238,300 L239,300 L241,300 L242,300 L244,300 L245,300 L246,300 L248,300 L249,300 L251,300 L252,300 L254,300 L255,300 L257,300 L258,300 L260,300 L261,300 L263,300 L264,300 L266,300 L267,300 L269,300 L270,300 L272,300 L273,300 L275,300 L276,300 L278,300 L279,300 L281,300 L283,300 L284,300 L286,300 L287,300 L289,300 L290,300 L292,300 L293,300 L295,300 L297,300 L298,300 L300,300 L301,300 L303,300 L305,300 L306,300 L308,300 L310,300 L311,300 L313,300 L314,300 L316,300 L318,300 L319,300 L321,300 L323,300 L324,300 L326,300 L328,300 L329,300 L331,300 L333,300 L335,300 L336,300 L338,300 L340,300 L341,300 L343,300 L345,300 L346,300 L348,300 L350,300 L352,300 L353,300 L355,300 L357,300 L359,300 L360,300 L362,300 L364,300 L366,300 L368,300 L369,300 L371,300 L373,300 L375,300 L376,300 L378,300 L380,300 L382,300 L384,300 L386,300 L387,300 L389,300 L391,300 L393,300 L395,300 L397,300 L398,300 " fill="none" stroke="#ea580c" stroke-width="2" opacity="0.7" stroke-dasharray="8,3,2,3"/><circle cx="117" cy="300" r="4" fill="#2563eb" stroke="#2563eb"/><circle cx="683" cy="300" r="4" fill="#2563eb" stroke="#2563eb"/><circle cx="580" cy="530" r="4" fill="#2563eb"/>
<text x="590.0" y="534.0" class="label">GNSS fix</text><line x1="570.0" y1="546" x2="584.0" y2="546" stroke="#dc2626" stroke-width="2" stroke-dasharray="6,3"/>
<text x="590.0" y="550.0" class="label">IMU-only</text><line x1="570.0" y1="562" x2="584.0" y2="562" stroke="#16a34a" stroke-width="2" stroke-dasharray="3,3"/>
<text x="590.0" y="566.0" class="label">Linear</text><line x1="570.0" y1="578" x2="584.0" y2="578" stroke="#ea580c" stroke-width="2" stroke-dasharray="8,3,2,3"/>
<text x="590.0" y="582.0" class="label">EndpointConstrained</text>
</svg>