<svg xmlns="http://www.w3.org/2000/svg" viewBox="0 0 800 600" width="800" height="600">
<style>
  .title { font: bold 16px sans-serif; fill: #1f2937; }
  .desc { font: 12px sans-serif; fill: #6b7280; }
  .label { font: 10px monospace; fill: #374151; }
  .grid { stroke: #e5e7eb; stroke-width: 0.5; }
</style>
<rect width="800" height="600" fill="#fafafa" rx="4"/>
<text x="60" y="24" class="title">Max Duration Cutoff</text>
<text x="60" y="42" class="desc">DR stops after 30s limit — gap visible before GNSS re-acquisition</text>
<line x1="60" y1="60.0" x2="740.0" y2="60.0" class="grid"/><line x1="60.0" y1="60" x2="60.0" y2="540.0" class="grid"/><line x1="60" y1="180.0" x2="740.0" y2="180.0" class="grid"/><line x1="230.0" y1="60" x2="230.0" y2="540.0" class="grid"/><line x1="60" y1="300.0" x2="740.0" y2="300.0" class="grid"/><line x1="400.0" y1="60" x2="400.0" y2="540.0" class="grid"/><line x1="60" y1="420.0" x2="740.0" y2="420.0" class="grid"/><line x1="570.0" y1="60" x2="570.0" y2="540.0" class="grid"/><line x1="60" y1="540.0" x2="740.0" y2="540.0" class="grid"/><line x1="740.0" y1="60" x2="740.0" y2="540.0" class="grid"/><path d="M117,300 L683,300 " fill="none" stroke="#2563eb" stroke-width="2" opacity="0.5"/><path d="M117,300 L117,300 L117,300 L117,300 L117,300 L117,300 L117,300 L117,300 L117,300 L117,300 L117,300 L117,300 L117,300 L118,300 L118,300 L118,300 L118,300 L118,300 L118,300 L118,300 L118,300 L118,300 L118,300 L118,300 L118,300 L118,300 L118,300 L118,300 L118,300 L119,300 L119,300 L119,300 L119,300 L119,300 L119,300 L119,300 L119,300 L119,300 L119,300 L119,300 L119,300 L119,300 L119,300 L119,300 L120,300 L120,300 L120,300 L120,300 L120,300 L120,300 " fill="none" stroke="#dc2626" stroke-width="2" opacity="0.7" stroke-dasharray="6,3"/><path d="M126,300 L126,300 L126,300 L126,300 L126,300 L126,300 L126,300 L127,300 L127,300 L127,300 L127,300 L127,300 L127,300 L127,300 L127,300 L127,300 L127,300 L127,300 L128,300 L128,300 L128,300 L128,300 L128,300 L128,300 L128,300 L128,300 L128,300 L128,300 L128,300 L129,300 L129,300 L129,300 L129,300 L129,300 L129,300 L129,300 L129,300 L129,300 L129,300 L129,300 L130,300 L130,300 L130,300 L130,300 L130,300 L130,300 L130,300 L130,300 L130,300 L130,300 " fill="none" stroke="#16a34a" stroke-width="2" opacity="0.7" stroke-dasharray="3,3"/><path d="M117,300 L117,300 L117,300 L117,300 L117,300 L117,300 L117,300 L117,300 L117,300 L117,300 L118,300 L118,300 L118,300 L118,300 L118,300 L118,300 L118,300 L118,300 L118,300 L118,300 L118,300 L118,300 L118,300 L118,300 L118,300 L119,300 L119,300 L119,300 L119,300 L119,300 L119,300 L119,300 L119,300 L119,300 L119,300 L119,300 L119,300 L119,300 L119,300 L119,300 L120,300 L120,300 L120,300 L120,300 L120,300 L120,300 L120,300 L120,300 L120,300 L120,300 " fill="none" stroke="#ea580c" stroke-width="2" opacity="0.7" stroke-dasharray="8,3,2,3"/><circle cx="117" cy="300" r="4" fill="#2563eb" stroke="#2563eb"/><circle cx="683" cy="300" r="4" fill="#2563eb" stroke="#2563eb"/><circle cx="580" cy="530" r="4" fill="#2563eb"/>
<text x="590.0" y="534.0" class="label">GNSS fix</text><line x1="570.0" y1="546" x2="584.0" y2="546" stroke="#dc2626" stroke-width="2" stroke-dasharray="6,3"/>
<text x="590.0" y="550.0" class="label">IMU-only</text><line x1="570.0" y1="562" x2="584.0" y2="562" stroke="#16a34a" stroke-width="2" stroke-dasharray="3,3"/>
<text x="590.0" y="566.0" class="label">Linear</text><line x1="570.0" y1="578" x2="584.0" y2="578" stroke="#ea580c" stroke-width="2" stroke-dasharray="8,3,2,3"/>
<text x="590.0" y="582.0" class="label">EndpointConstrained</text>
</svg>