<svg xmlns="http://www.w3.org/2000/svg" viewBox="0 0 800 600" width="800" height="600">
<style>
  .title { font: bold 16px sans-serif; fill: #1f2937; }
  .desc { font: 12px sans-serif; fill: #6b7280; }
  .label { font: 10px monospace; fill: #374151; }
  .grid { stroke: #e5e7eb; stroke-width: 0.5; }
</style>
<rect width="800" height="600" fill="#fafafa" rx="4"/>
<text x="60" y="24" class="title">Mt. Tsukuba Hiking — Worst DR drift</text>
<text x="60" y="42" class="desc">Real data: endpoint error 1958.3m, 75.4s gap, 0.2m/s</text>
<line x1="60" y1="60.0" x2="740.0" y2="60.0" class="grid"/><line x1="60.0" y1="60" x2="60.0" y2="540.0" class="grid"/><line x1="60" y1="180.0" x2="740.0" y2="180.0" class="grid"/><line x1="230.0" y1="60" x2="230.0" y2="540.0" class="grid"/><line x1="60" y1="300.0" x2="740.0" y2="300.0" class="grid"/><line x1="400.0" y1="60" x2="400.0" y2="540.0" class="grid"/><line x1="60" y1="420.0" x2="740.0" y2="420.0" class="grid"/><line x1="570.0" y1="60" x2="570.0" y2="540.0" class="grid"/><line x1="60" y1="540.0" x2="740.0" y2="540.0" class="grid"/><line x1="740.0" y1="60" x2="740.0" y2="540.0" class="grid"/><path d="M117,196 L118,169 L117,195 L117,196 L117,196 L117,198 L129,204 L130,203 L133,201 L132,202 L131,205 L131,204 " fill="none" stroke="#2563eb" stroke-width="2" opacity="0.5"/><path d="M117,196 L117,198 L117,198 L117,198 L117,198 L117,195 L117,194 L118,190 L118,188 L119,186 L119,183 L119,180 L120,177 L120,174 L121,170 L122,166 L122,162 L123,157 L124,153 L124,148 L125,142 L126,137 L127,131 L128,125 L130,108 L131,101 L133,90 L134,83 L135,75 L138,56 L139,47 L141,38 L142,29 L143,19 L145,9 L146,-1 L148,-12 L149,-23 L151,-34 L153,-46 L154,-58 L156,-70 L158,-82 L160,-95 L162,-109 L163,-123 L165,-137 L167,-151 L169,-165 L171,-180 L173,-195 L176,-210 L178,-226 L180,-242 L182,-258 L184,-275 L187,-292 L189,-309 L191,-326 L194,-344 L196,-362 L199,-381 L201,-399 L204,-418 L206,-437 L209,-456 L212,-476 L215,-496 L217,-516 L220,-537 L223,-557 L226,-578 L229,-600 L232,-621 L235,-643 L242,-693 L245,-716 L252,-766 L255,-789 L259,-813 L262,-837 L265,-861 L269,-886 L272,-910 L276,-935 L280,-961 L283,-986 L287,-1012 L291,-1038 L294,-1065 L298,-1092 L302,-1119 L306,-1146 L310,-1174 L314,-1203 L318,-1231 L322,-1260 L327,-1290 L331,-1320 L336,-1353 L340,-1383 L344,-1414 L349,-1445 L353,-1477 L358,-1509 L362,-1541 L367,-1574 L371,-1607 L376,-1640 L381,-1674 L386,-1708 L390,-1742 L395,-1777 L400,-1812 L405,-1848 L410,-1883 L415,-1919 L420,-1956 L426,-1993 L431,-2030 L436,-2067 L441,-2105 L447,-2143 L452,-2181 L457,-2220 L463,-2259 L468,-2299 L474,-2338 L480,-2379 L485,-2419 L491,-2460 L497,-2501 L502,-2543 L508,-2584 L513,-2626 L519,-2669 L524,-2711 L528,-2753 L531,-2796 L534,-2838 L536,-2881 L538,-2924 L539,-2967 L541,-3010 L542,-3053 L544,-3097 L545,-3140 L546,-3184 L547,-3227 L547,-3270 L546,-3313 L545,-3357 L544,-3400 L543,-3443 L540,-3486 L538,-3528 L535,-3570 L531,-3612 L526,-3653 L522,-3693 L516,-3734 L510,-3775 L503,-3815 L496,-3855 L489,-3896 L481,-3936 L472,-3976 L464,-4016 L454,-4057 L445,-4097 L434,-4137 L424,-4177 L412,-4217 L401,-4258 L389,-4298 L376,-4338 L363,-4378 L349,-4418 L336,-4458 L312,-4532 L299,-4573 L285,-4614 L272,-4656 L260,-4698 L247,-4739 L234,-4780 L220,-4820 L206,-4861 L192,-4900 L177,-4939 L161,-4977 L146,-5015 L130,-5052 L114,-5088 L97,-5123 L80,-5158 L62,-5192 L44,-5226 L25,-5260 L5,-5293 L-15,-5326 L-35,-5359 L-56,-5391 L-78,-5423 " fill="none" stroke="#dc2626" stroke-width="2" opacity="0.7" stroke-dasharray="6,3"/><path d="M117,198 L118,199 L118,199 L118,199 L118,199 L118,199 L118,199 L119,199 L119,199 L119,199 L119,199 L119,199 L119,199 L119,199 L119,199 L119,199 L119,199 L119,199 L119,199 L119,200 L119,200 L119,200 L119,200 L119,200 L120,200 L120,200 L120,200 L120,200 L120,200 L120,200 L120,200 L120,200 L120,200 L120,200 L120,200 L120,200 L120,200 L120,200 L120,200 L121,200 L121,200 L121,200 L121,200 L121,200 L121,200 L121,200 L121,200 L121,200 L121,200 L121,200 L121,200 L121,200 L121,200 L121,200 L121,200 L121,200 L121,200 L121,200 L122,200 L122,200 L122,200 L122,201 L122,201 L122,201 L122,201 L122,201 L122,201 L122,201 L122,201 L122,201 L122,201 L122,201 L122,201 L122,201 L122,201 L123,201 L123,201 L123,201 L123,201 L123,201 L123,201 L123,201 L123,201 L123,201 L123,201 L123,201 L123,201 L123,201 L123,201 L123,201 L123,201 L123,201 L124,201 L124,201 L124,201 L124,201 L124,201 L124,201 L124,201 L124,201 L124,201 L124,201 L124,201 L124,201 L124,202 L124,202 L124,202 L124,202 L124,202 L124,202 L124,202 L125,202 L125,202 L125,202 L125,202 L125,202 L125,202 L125,202 L125,202 L125,202 L125,202 L125,202 L125,202 L125,202 L125,202 L125,202 L125,202 L125,202 L125,202 L126,202 L126,202 L126,202 L126,202 L126,202 L126,202 L126,202 L126,202 L126,202 L126,202 L126,202 L126,202 L126,202 L126,202 L126,202 L126,202 L126,202 L126,202 L126,202 L127,202 L127,203 L127,203 L127,203 L127,203 L127,203 L127,203 L127,203 L127,203 L127,203 L127,203 L127,203 L127,203 L127,203 L127,203 L127,203 L127,203 L127,203 L128,203 L128,203 L128,203 L128,203 L128,203 L128,203 L128,203 L128,203 L128,203 L128,203 L128,203 L128,203 L128,203 L128,203 L128,203 L128,203 L128,203 L128,203 L129,203 L129,203 L129,203 L129,203 L129,203 L129,203 L129,203 L129,203 L129,203 L129,203 L129,204 L129,204 L129,204 L129,204 L129,204 L129,204 L129,204 L129,204 L129,204 L130,204 " fill="none" stroke="#16a34a" stroke-width="2" opacity="0.7" stroke-dasharray="3,3"/><path d="M117,199 L119,267 L120,272 L120,286 L121,291 L121,304 L122,309 L123,321 L124,326 L124,332 L125,337 L126,342 L127,347 L127,352 L128,357 L129,362 L130,367 L131,371 L132,376 L134,380 L135,385 L136,389 L137,394 L139,398 L142,408 L143,412 L146,418 L147,422 L149,426 L153,434 L155,438 L156,441 L158,445 L160,448 L162,451 L164,454 L166,458 L168,460 L171,463 L173,466 L175,469 L177,471 L180,474 L182,476 L185,478 L187,480 L190,482 L192,484 L195,486 L198,487 L200,489 L203,490 L206,491 L209,493 L212,494 L215,495 L218,496 L221,496 L224,497 L227,498 L230,498 L233,499 L237,499 L240,499 L243,500 L247,500 L250,500 L254,500 L257,500 L261,500 L265,500 L268,500 L272,499 L276,499 L280,499 L289,497 L293,497 L302,495 L306,494 L310,494 L314,493 L319,492 L323,491 L328,490 L332,489 L337,487 L341,486 L346,485 L351,483 L355,482 L360,480 L365,478 L370,476 L375,474 L380,472 L385,469 L391,466 L396,463 L401,460 L407,457 L412,453 L418,450 L423,446 L429,442 L434,438 L440,434 L446,430 L451,425 L457,421 L463,416 L469,411 L475,406 L481,401 L487,396 L493,390 L500,385 L506,379 L512,373 L519,367 L525,361 L532,355 L538,349 L545,342 L551,336 L558,329 L565,322 L571,315 L578,308 L585,301 L592,293 L599,285 L606,277 L613,270 L620,262 L627,254 L634,246 L640,238 L646,230 L651,223 L655,215 L658,208 L661,201 L664,193 L667,186 L669,179 L673,171 L675,164 L678,158 L680,151 L681,145 L682,139 L683,133 L683,128 L683,123 L682,118 L681,114 L680,110 L677,108 L675,105 L671,104 L667,102 L663,101 L658,101 L652,100 L646,100 L640,100 L633,100 L626,101 L618,101 L610,102 L601,103 L592,105 L583,106 L573,108 L562,110 L551,112 L540,115 L528,118 L516,120 L495,124 L484,126 L472,129 L461,131 L450,133 L439,136 L428,140 L416,144 L404,149 L391,154 L378,161 L364,169 L350,177 L336,185 L322,195 L308,206 L292,218 L276,231 L259,243 L242,257 L225,271 L207,285 L188,301 L169,316 L149,332 " fill="none" stroke="#ea580c" stroke-width="2" opacity="0.7" stroke-dasharray="8,3,2,3"/><circle cx="117" cy="196" r="4" fill="#2563eb" stroke="#2563eb"/><circle cx="118" cy="169" r="4" fill="#2563eb" stroke="#2563eb"/><circle cx="117" cy="195" r="4" fill="#2563eb" stroke="#2563eb"/><circle cx="117" cy="196" r="4" fill="#2563eb" stroke="#2563eb"/><circle cx="117" cy="196" r="4" fill="#2563eb" stroke="#2563eb"/><circle cx="117" cy="198" r="4" fill="#2563eb" stroke="#2563eb"/><circle cx="129" cy="204" r="4" fill="#2563eb" stroke="#2563eb"/><circle cx="130" cy="203" r="4" fill="#2563eb" stroke="#2563eb"/><circle cx="133" cy="201" r="4" fill="#2563eb" stroke="#2563eb"/><circle cx="132" cy="202" r="4" fill="#2563eb" stroke="#2563eb"/><circle cx="131" cy="205" r="4" fill="#2563eb" stroke="#2563eb"/><circle cx="131" cy="204" r="4" fill="#2563eb" stroke="#2563eb"/><circle cx="580" cy="530" r="4" fill="#2563eb"/>
<text x="590.0" y="534.0" class="label">GNSS fix</text><line x1="570.0" y1="546" x2="584.0" y2="546" stroke="#dc2626" stroke-width="2" stroke-dasharray="6,3"/>
<text x="590.0" y="550.0" class="label">IMU-only</text><line x1="570.0" y1="562" x2="584.0" y2="562" stroke="#16a34a" stroke-width="2" stroke-dasharray="3,3"/>
<text x="590.0" y="566.0" class="label">Linear</text><line x1="570.0" y1="578" x2="584.0" y2="578" stroke="#ea580c" stroke-width="2" stroke-dasharray="8,3,2,3"/>
<text x="590.0" y="582.0" class="label">EndpointConstrained</text>
</svg>