<svg xmlns="http://www.w3.org/2000/svg" viewBox="0 0 800 600" width="800" height="600">
<style>
  .title { font: bold 16px sans-serif; fill: #1f2937; }
  .desc { font: 12px sans-serif; fill: #6b7280; }
  .label { font: 10px monospace; fill: #374151; }
  .grid { stroke: #e5e7eb; stroke-width: 0.5; }
</style>
<rect width="800" height="600" fill="#fafafa" rx="4"/>
<text x="60" y="24" class="title">Mt. Tsukuba Hiking — Longest DR gap</text>
<text x="60" y="42" class="desc">Real data: 91.1s gap, 8846 DR points, endpoint error 16121.4m</text>
<line x1="60" y1="60.0" x2="740.0" y2="60.0" class="grid"/><line x1="60.0" y1="60" x2="60.0" y2="540.0" class="grid"/><line x1="60" y1="180.0" x2="740.0" y2="180.0" class="grid"/><line x1="230.0" y1="60" x2="230.0" y2="540.0" class="grid"/><line x1="60" y1="300.0" x2="740.0" y2="300.0" class="grid"/><line x1="400.0" y1="60" x2="400.0" y2="540.0" class="grid"/><line x1="60" y1="420.0" x2="740.0" y2="420.0" class="grid"/><line x1="570.0" y1="60" x2="570.0" y2="540.0" class="grid"/><line x1="60" y1="540.0" x2="740.0" y2="540.0" class="grid"/><line x1="740.0" y1="60" x2="740.0" y2="540.0" class="grid"/><path d="M655,309 L655,309 L655,308 L655,308 L655,308 L655,307 L661,328 L661,328 L660,329 L660,330 L660,330 L660,330 " fill="none" stroke="#2563eb" stroke-width="2" opacity="0.5"/><path d="M655,308 L655,307 L655,307 L655,307 L655,307 L655,307 L655,307 L655,307 L655,307 L655,307 L655,307 L655,307 L655,307 L655,307 L655,307 L655,307 L655,307 L655,307 L655,307 L655,307 L655,307 L655,307 L655,307 L655,307 L655,307 L655,307 L655,307 L655,307 L655,307 L655,307 L655,307 L655,307 L655,307 L655,307 L655,307 L655,307 L655,306 L655,306 L655,305 L655,305 L656,305 L658,305 L660,305 L662,306 L665,308 L669,309 L673,312 L677,314 L681,316 L686,319 L692,322 L697,326 L704,330 L710,334 L717,339 L725,343 L733,349 L741,354 L750,360 L759,365 L769,372 L779,378 L790,384 L801,391 L813,398 L825,406 L837,413 L850,420 L863,427 L876,434 L890,441 L905,448 L919,455 L935,462 L950,469 L967,477 L983,485 L1001,494 L1018,503 L1036,513 L1055,522 L1074,532 L1094,542 L1114,553 L1135,563 L1156,574 L1178,585 L1200,597 L1222,609 L1245,621 L1269,633 L1293,646 L1317,658 L1341,671 L1367,684 L1392,697 L1418,710 L1445,724 L1472,738 L1500,752 L1528,767 L1556,782 L1585,798 L1615,814 L1645,830 L1676,847 L1707,864 L1739,882 L1771,901 L1804,920 L1837,940 L1871,960 L1905,980 L1939,1000 L1974,1020 L2010,1040 L2045,1060 L2081,1080 L2118,1100 L2155,1120 L2193,1140 L2230,1160 L2269,1181 L2308,1202 L2347,1223 L2387,1244 L2427,1265 L2468,1286 L2509,1307 L2550,1328 L2591,1348 L2633,1369 L2674,1390 L2716,1412 L2758,1433 L2800,1454 L2843,1475 L2886,1497 L2929,1518 L2972,1540 L3015,1561 L3058,1583 L3101,1604 L3144,1626 L3187,1648 L3230,1670 L3273,1691 L3315,1713 L3357,1734 L3398,1754 L3438,1774 L3479,1794 L3518,1813 L3558,1832 L3596,1850 L3634,1868 L3672,1885 L3711,1902 L3749,1917 L3787,1934 L3826,1950 L3866,1966 L3906,1982 L3946,1998 L3987,2015 L4029,2032 L4071,2048 L4113,2064 L4155,2080 L4197,2096 L4239,2112 L4282,2127 L4324,2142 L4368,2159 L4411,2176 L4455,2194 L4500,2211 L4544,2227 L4589,2242 L4634,2258 L4679,2273 L4724,2288 L4769,2302 L4814,2316 L4859,2330 L4904,2343 L4948,2357 L4993,2371 L5039,2385 L5084,2399 L5129,2412 L5174,2426 L5218,2439 L5263,2453 L5307,2467 L5350,2480 L5393,2492 L5436,2505 L5478,2517 L5519,2529 L5561,2539 L5603,2549 " fill="none" stroke="#dc2626" stroke-width="2" opacity="0.7" stroke-dasharray="6,3"/><path d="M655,308 L655,308 L655,308 L655,308 L655,308 L655,308 L655,309 L655,309 L655,309 L655,309 L655,309 L655,309 L655,309 L655,309 L655,309 L655,310 L656,310 L656,310 L656,310 L656,310 L656,310 L656,310 L656,310 L656,310 L656,310 L656,311 L656,311 L656,311 L656,311 L656,311 L656,311 L656,311 L656,311 L656,311 L656,311 L656,312 L656,312 L656,312 L656,312 L656,312 L656,312 L656,312 L656,312 L656,312 L656,312 L656,313 L656,313 L656,313 L656,313 L656,313 L656,313 L656,313 L657,313 L657,313 L657,313 L657,314 L657,314 L657,314 L657,314 L657,314 L657,314 L657,314 L657,314 L657,314 L657,314 L657,315 L657,315 L657,315 L657,315 L657,315 L657,315 L657,315 L657,315 L657,315 L657,315 L657,316 L657,316 L657,316 L657,316 L657,316 L657,316 L657,316 L657,316 L657,316 L657,316 L657,317 L657,317 L657,317 L658,317 L658,317 L658,317 L658,317 L658,317 L658,317 L658,317 L658,318 L658,318 L658,318 L658,318 L658,318 L658,318 L658,318 L658,318 L658,318 L658,318 L658,319 L658,319 L658,319 L658,319 L658,319 L658,319 L658,319 L658,319 L658,319 L658,319 L658,320 L658,320 L658,320 L658,320 L658,320 L658,320 L658,320 L658,320 L658,320 L659,320 L659,321 L659,321 L659,321 L659,321 L659,321 L659,321 L659,321 L659,321 L659,321 L659,321 L659,322 L659,322 L659,322 L659,322 L659,322 L659,322 L659,322 L659,322 L659,322 L659,322 L659,323 L659,323 L659,323 L659,323 L659,323 L659,323 L659,323 L659,323 L659,323 L659,323 L659,324 L659,324 L659,324 L659,324 L659,324 L660,324 L660,324 L660,324 L660,324 L660,324 L660,325 L660,325 L660,325 L660,325 L660,325 L660,325 L660,325 L660,325 L660,325 L660,325 L660,326 L660,326 L660,326 L660,326 L660,326 L660,326 L660,326 L660,326 L660,326 L660,326 L660,327 L660,327 L660,327 L660,327 L660,327 L660,327 L660,327 L660,327 L660,327 L660,327 L660,328 L661,328 L661,328 L661,328 L661,328 L661,328 L661,328 " fill="none" stroke="#16a34a" stroke-width="2" opacity="0.7" stroke-dasharray="3,3"/><path d="M655,308 L633,297 L630,295 L626,294 L623,292 L619,291 L615,289 L611,287 L606,285 L601,283 L596,281 L591,278 L586,276 L580,273 L575,271 L569,268 L563,265 L556,262 L549,259 L543,256 L536,253 L528,250 L521,247 L513,243 L505,240 L497,236 L489,232 L480,228 L471,224 L462,220 L453,216 L444,212 L434,208 L424,203 L414,199 L404,194 L393,189 L383,184 L372,178 L361,173 L351,167 L341,162 L331,157 L322,153 L313,149 L303,145 L295,142 L286,138 L277,135 L269,132 L261,129 L253,126 L245,124 L238,122 L230,120 L223,118 L216,117 L210,115 L203,114 L197,113 L191,112 L185,111 L180,111 L175,110 L170,110 L165,109 L161,109 L156,108 L152,107 L148,107 L144,106 L140,105 L137,103 L134,102 L131,101 L128,100 L126,100 L124,100 L122,100 L120,101 L119,101 L118,102 L117,103 L117,105 L117,106 L117,107 L117,109 L118,111 L119,113 L120,115 L121,118 L122,120 L124,122 L126,125 L128,128 L131,130 L133,133 L136,136 L139,139 L143,142 L147,147 L151,151 L155,156 L160,160 L165,165 L171,170 L176,176 L182,183 L188,190 L195,198 L202,205 L209,213 L216,221 L223,229 L231,236 L239,244 L247,252 L255,259 L263,267 L272,274 L281,281 L290,289 L299,296 L309,304 L319,311 L329,319 L339,327 L350,334 L361,342 L371,349 L382,356 L392,363 L403,370 L413,377 L424,384 L434,391 L445,398 L455,405 L466,412 L476,418 L486,425 L497,432 L506,439 L516,445 L525,452 L534,458 L542,465 L550,471 L557,476 L564,481 L569,485 L574,489 L578,493 L582,495 L585,497 L587,499 L588,500 L590,500 L592,499 L593,499 L595,498 L597,497 L599,496 L602,496 L605,496 L608,495 L612,494 L615,492 L618,491 L621,490 L624,487 L627,485 L630,482 L633,481 L636,480 L640,480 L644,479 L648,476 L651,473 L655,470 L659,467 L662,463 L665,458 L668,453 L670,448 L672,443 L674,437 L676,432 L678,426 L680,420 L681,414 L682,408 L683,402 L683,396 L683,389 L681,382 L679,374 L677,367 L673,359 L669,350 L666,340 L661,329 " fill="none" stroke="#ea580c" stroke-width="2" opacity="0.7" stroke-dasharray="8,3,2,3"/><circle cx="655" cy="309" r="4" fill="#2563eb" stroke="#2563eb"/><circle cx="655" cy="309" r="4" fill="#2563eb" stroke="#2563eb"/><circle cx="655" cy="308" r="4" fill="#2563eb" stroke="#2563eb"/><circle cx="655" cy="308" r="4" fill="#2563eb" stroke="#2563eb"/><circle cx="655" cy="308" r="4" fill="#2563eb" stroke="#2563eb"/><circle cx="655" cy="307" r="4" fill="#2563eb" stroke="#2563eb"/><circle cx="661" cy="328" r="4" fill="#2563eb" stroke="#2563eb"/><circle cx="661" cy="328" r="4" fill="#2563eb" stroke="#2563eb"/><circle cx="660" cy="329" r="4" fill="#2563eb" stroke="#2563eb"/><circle cx="660" cy="330" r="4" fill="#2563eb" stroke="#2563eb"/><circle cx="660" cy="330" r="4" fill="#2563eb" stroke="#2563eb"/><circle cx="660" cy="330" r="4" fill="#2563eb" stroke="#2563eb"/><circle cx="580" cy="530" r="4" fill="#2563eb"/>
<text x="590.0" y="534.0" class="label">GNSS fix</text><line x1="570.0" y1="546" x2="584.0" y2="546" stroke="#dc2626" stroke-width="2" stroke-dasharray="6,3"/>
<text x="590.0" y="550.0" class="label">IMU-only</text><line x1="570.0" y1="562" x2="584.0" y2="562" stroke="#16a34a" stroke-width="2" stroke-dasharray="3,3"/>
<text x="590.0" y="566.0" class="label">Linear</text><line x1="570.0" y1="578" x2="584.0" y2="578" stroke="#ea580c" stroke-width="2" stroke-dasharray="8,3,2,3"/>
<text x="590.0" y="582.0" class="label">EndpointConstrained</text>
</svg>