<svg xmlns="http://www.w3.org/2000/svg" viewBox="0 0 800 600" width="800" height="600">
<style>
  .title { font: bold 16px sans-serif; fill: #1f2937; }
  .desc { font: 12px sans-serif; fill: #6b7280; }
  .label { font: 10px monospace; fill: #374151; }
  .grid { stroke: #e5e7eb; stroke-width: 0.5; }
</style>
<rect width="800" height="600" fill="#fafafa" rx="4"/>
<text x="60" y="24" class="title">Mt. Tsukuba Hiking — Shortest DR gap</text>
<text x="60" y="42" class="desc">Real data: -3.2s gap, 89 DR points, err=5.4m</text>
<line x1="60" y1="60.0" x2="740.0" y2="60.0" class="grid"/><line x1="60.0" y1="60" x2="60.0" y2="540.0" class="grid"/><line x1="60" y1="180.0" x2="740.0" y2="180.0" class="grid"/><line x1="230.0" y1="60" x2="230.0" y2="540.0" class="grid"/><line x1="60" y1="300.0" x2="740.0" y2="300.0" class="grid"/><line x1="400.0" y1="60" x2="400.0" y2="540.0" class="grid"/><line x1="60" y1="420.0" x2="740.0" y2="420.0" class="grid"/><line x1="570.0" y1="60" x2="570.0" y2="540.0" class="grid"/><line x1="60" y1="540.0" x2="740.0" y2="540.0" class="grid"/><line x1="740.0" y1="60" x2="740.0" y2="540.0" class="grid"/><path d="M638,456 L639,450 L637,450 L637,450 L642,442 L647,433 L683,412 L652,456 L670,439 L678,424 L681,418 L611,500 " fill="none" stroke="#2563eb" stroke-width="2" opacity="0.5"/><path d="M639,450 L642,442 L622,417 L621,416 L619,415 L617,414 L615,413 L613,411 L611,410 L609,409 L606,407 L604,406 L602,404 L599,403 L596,401 L594,399 L591,397 L588,395 L585,394 L581,392 L578,390 L575,388 L571,385 L568,383 L564,381 L561,379 L557,376 L553,374 L549,371 L545,369 L541,366 L536,363 L532,361 L528,358 L523,355 L518,352 L514,349 L509,346 L503,343 L499,340 L493,337 L488,333 L483,330 L478,327 L472,323 L467,320 L461,316 L455,312 L449,309 L443,305 L437,301 L431,297 L425,293 L418,289 L412,286 L405,281 L398,277 L392,273 L385,269 L378,265 L371,260 L364,255 L357,251 L350,246 L342,242 L335,237 L327,232 L319,227 L312,223 L304,218 L296,213 L288,208 L280,202 L271,197 L263,192 L255,187 L246,181 L238,176 L229,170 L220,165 L211,160 L202,154 L193,148 L184,142 L174,136 L165,130 L156,125 L146,118 L136,112 L127,106 L117,100 " fill="none" stroke="#dc2626" stroke-width="2" opacity="0.7" stroke-dasharray="6,3"/><path d="M637,450 L647,433 L622,417 L621,416 L619,415 L617,414 L615,413 L613,411 L611,410 L609,409 L606,407 L604,406 L602,404 L599,403 L596,401 L594,399 L591,397 L588,395 L585,394 L581,392 L578,390 L575,388 L571,385 L568,383 L564,381 L561,379 L557,376 L553,374 L549,371 L545,369 L541,366 L536,363 L532,361 L528,358 L523,355 L518,352 L514,349 L509,346 L503,343 L499,340 L493,337 L488,333 L483,330 L478,327 L472,323 L467,320 L461,316 L455,312 L449,309 L443,305 L437,301 L431,297 L425,293 L418,289 L412,286 L405,281 L398,277 L392,273 L385,269 L378,265 L371,260 L364,255 L357,251 L350,246 L342,242 L335,237 L327,232 L319,227 L312,223 L304,218 L296,213 L288,208 L280,202 L271,197 L263,192 L255,187 L246,181 L238,176 L229,170 L220,165 L211,160 L202,154 L193,148 L184,142 L174,136 L165,130 L156,125 L146,118 L136,112 L127,106 L117,100 " fill="none" stroke="#16a34a" stroke-width="2" opacity="0.7" stroke-dasharray="3,3"/><path d="M636,450 L648,432 L622,417 L621,416 L619,415 L617,414 L615,413 L613,411 L611,410 L609,409 L606,407 L604,406 L602,404 L599,403 L596,401 L594,399 L591,397 L588,395 L585,394 L581,392 L578,390 L575,388 L571,385 L568,383 L564,381 L561,379 L557,376 L553,374 L549,371 L545,369 L541,366 L536,363 L532,361 L528,358 L523,355 L518,352 L514,349 L509,346 L503,343 L499,340 L493,337 L488,333 L483,330 L478,327 L472,323 L467,320 L461,316 L455,312 L449,309 L443,305 L437,301 L431,297 L425,293 L418,289 L412,286 L405,281 L398,277 L392,273 L385,269 L378,265 L371,260 L364,255 L357,251 L350,246 L342,242 L335,237 L327,232 L319,227 L312,223 L304,218 L296,213 L288,208 L280,202 L271,197 L263,192 L255,187 L246,181 L238,176 L229,170 L220,165 L211,160 L202,154 L193,148 L184,142 L174,136 L165,130 L156,125 L146,118 L136,112 L127,106 L117,100 " fill="none" stroke="#ea580c" stroke-width="2" opacity="0.7" stroke-dasharray="8,3,2,3"/><circle cx="638" cy="456" r="4" fill="#2563eb" stroke="#2563eb"/><circle cx="639" cy="450" r="4" fill="#2563eb" stroke="#2563eb"/><circle cx="637" cy="450" r="4" fill="#2563eb" stroke="#2563eb"/><circle cx="637" cy="450" r="4" fill="#2563eb" stroke="#2563eb"/><circle cx="642" cy="442" r="4" fill="#2563eb" stroke="#2563eb"/><circle cx="647" cy="433" r="4" fill="#2563eb" stroke="#2563eb"/><circle cx="683" cy="412" r="4" fill="#2563eb" stroke="#2563eb"/><circle cx="652" cy="456" r="4" fill="#2563eb" stroke="#2563eb"/><circle cx="670" cy="439" r="4" fill="#2563eb" stroke="#2563eb"/><circle cx="678" cy="424" r="4" fill="#2563eb" stroke="#2563eb"/><circle cx="681" cy="418" r="4" fill="#2563eb" stroke="#2563eb"/><circle cx="611" cy="500" r="4" fill="#2563eb" stroke="#2563eb"/><circle cx="580" cy="530" r="4" fill="#2563eb"/>
<text x="590.0" y="534.0" class="label">GNSS fix</text><line x1="570.0" y1="546" x2="584.0" y2="546" stroke="#dc2626" stroke-width="2" stroke-dasharray="6,3"/>
<text x="590.0" y="550.0" class="label">IMU-only</text><line x1="570.0" y1="562" x2="584.0" y2="562" stroke="#16a34a" stroke-width="2" stroke-dasharray="3,3"/>
<text x="590.0" y="566.0" class="label">Linear</text><line x1="570.0" y1="578" x2="584.0" y2="578" stroke="#ea580c" stroke-width="2" stroke-dasharray="8,3,2,3"/>
<text x="590.0" y="582.0" class="label">EndpointConstrained</text>
</svg>