<svg xmlns="http://www.w3.org/2000/svg" viewBox="0 0 800 600" width="800" height="600">
<style>
  .title { font: bold 16px sans-serif; fill: #1f2937; }
  .desc { font: 12px sans-serif; fill: #6b7280; }
  .label { font: 10px monospace; fill: #374151; }
  .grid { stroke: #e5e7eb; stroke-width: 0.5; }
</style>
<rect width="800" height="600" fill="#fafafa" rx="4"/>
<text x="60" y="24" class="title">Mt. Tsukuba Hiking — Frequent gaps</text>
<text x="60" y="42" class="desc">Real data: 30 gaps in 59s window, 2125 total DR points</text>
<line x1="60" y1="60.0" x2="740.0" y2="60.0" class="grid"/><line x1="60.0" y1="60" x2="60.0" y2="540.0" class="grid"/><line x1="60" y1="180.0" x2="740.0" y2="180.0" class="grid"/><line x1="230.0" y1="60" x2="230.0" y2="540.0" class="grid"/><line x1="60" y1="300.0" x2="740.0" y2="300.0" class="grid"/><line x1="400.0" y1="60" x2="400.0" y2="540.0" class="grid"/><line x1="60" y1="420.0" x2="740.0" y2="420.0" class="grid"/><line x1="570.0" y1="60" x2="570.0" y2="540.0" class="grid"/><line x1="60" y1="540.0" x2="740.0" y2="540.0" class="grid"/><line x1="740.0" y1="60" x2="740.0" y2="540.0" class="grid"/><path d="M286,221 L288,220 L286,222 L288,220 L286,222 L288,220 L286,222 L288,224 L287,223 L288,224 L287,224 L288,224 L287,224 L288,224 L287,225 L288,224 L287,226 L288,224 L291,227 L293,228 L294,227 L293,228 L298,227 L299,228 L303,228 L305,228 L308,229 L310,228 L314,231 L316,232 L317,231 L316,232 L319,232 L321,232 L320,233 L321,232 L321,234 L321,232 L321,235 L321,236 L322,237 L321,236 L322,237 L321,236 L322,237 L321,236 L322,238 L321,236 L323,239 L321,240 L323,240 L321,240 L324,241 L321,240 L324,242 L321,240 L325,243 L327,244 L325,244 L327,244 L325,246 L327,244 L325,246 L327,244 L325,246 L327,244 L325,247 L327,248 L324,248 L321,248 L324,249 L321,248 L324,250 L321,248 L324,251 L321,252 L325,252 L327,252 L325,252 L327,252 L326,252 L327,252 L327,252 L327,252 L328,253 L327,252 L330,253 L332,252 L331,253 L332,252 L331,253 L332,252 L332,253 L332,252 L335,252 L332,252 L336,252 L338,252 L338,252 L338,252 L339,252 L338,252 L340,252 L338,252 L343,252 L344,252 L343,252 L344,252 L343,252 L344,252 L344,251 L344,252 L345,251 L344,252 L346,251 L349,252 L349,251 L349,252 L350,251 L349,252 L353,250 L355,248 L353,251 L355,252 L353,251 L355,252 " fill="none" stroke="#2563eb" stroke-width="2" opacity="0.5"/><path d="M288,220 L288,224 L288,224 L288,224 L288,224 L288,224 L288,224 L288,224 L288,224 L288,224 L288,224 L288,224 L288,224 L288,224 L288,224 L288,224 L288,224 L288,224 L288,224 L288,224 L288,224 L288,224 L288,224 L293,228 L293,228 L293,228 L293,228 L293,228 L293,228 L293,228 L293,228 L293,228 L293,228 L293,228 L293,228 L293,228 L293,228 L293,228 L293,228 L293,228 L293,228 L293,228 L293,228 L299,228 L299,228 L299,228 L299,228 L299,228 L299,228 L299,228 L299,228 L299,228 L299,228 L305,228 L305,228 L305,228 L305,228 L305,228 L305,228 L305,228 L305,228 L305,228 L305,228 L310,228 L310,228 L310,228 L310,228 L310,228 L310,228 L310,228 L310,228 L310,228 L310,228 L310,228 L316,232 L316,232 L316,232 L316,232 L316,232 L316,232 L316,232 L316,232 L316,232 L316,232 L321,232 L321,240 L321,240 L321,240 L321,240 L321,240 L321,240 L321,240 L321,240 L321,240 L321,240 L321,240 L321,240 L321,240 L321,240 L321,240 L321,240 L321,240 L321,240 L321,240 L321,240 L321,240 L321,240 L321,240 L321,240 L321,240 L321,240 L321,240 L321,240 L321,240 L321,240 L327,244 L327,244 L327,244 L327,244 L327,244 L327,244 L327,244 L327,244 L327,244 L327,244 L327,244 L321,248 L321,248 L321,248 L321,248 L321,248 L321,248 L321,248 L321,248 L321,248 L321,248 L327,252 L332,252 L332,252 L332,252 L332,252 L332,252 L332,252 L332,252 L332,252 L332,252 L332,252 L332,252 L332,252 L332,252 L332,252 L332,252 L332,252 L332,252 L332,252 L332,252 L338,252 L338,252 L338,252 L338,252 L338,252 L338,252 L338,252 L338,252 L338,252 L338,252 L338,252 L344,252 L344,252 L344,252 L344,252 L344,252 L344,252 L344,252 L344,252 L344,252 L344,252 L349,252 L349,252 L349,252 L349,252 L349,252 L349,252 L349,252 L349,252 L349,252 L349,252 L349,252 L349,252 L349,252 L349,252 L349,252 L349,252 L349,252 L349,252 L349,252 L349,252 L349,252 L349,252 L349,252 L349,252 L349,252 L349,252 L349,252 L355,248 L355,248 L355,248 L355,248 L355,248 L355,248 L355,248 L355,248 L355,248 " fill="none" stroke="#dc2626" stroke-width="2" opacity="0.7" stroke-dasharray="6,3"/><path d="M273,238 L278,221 L287,225 L287,226 L287,227 L286,228 L286,229 L285,230 L285,231 L284,232 L284,233 L283,233 L288,225 L287,227 L287,228 L286,230 L286,232 L285,233 L285,235 L284,236 L284,238 L284,240 L283,241 L294,227 L294,226 L295,225 L295,224 L296,223 L296,222 L296,221 L297,220 L297,220 L298,219 L297,227 L301,227 L304,226 L308,225 L311,225 L315,224 L318,224 L322,223 L325,222 L329,222 L303,228 L306,228 L309,228 L312,228 L315,228 L318,228 L322,228 L325,228 L328,228 L331,228 L308,229 L312,230 L315,231 L318,232 L321,233 L324,234 L327,235 L330,236 L333,237 L336,238 L314,231 L317,233 L321,235 L324,237 L327,239 L331,241 L334,243 L337,245 L340,247 L344,249 L347,251 L318,230 L319,230 L320,229 L321,229 L321,228 L322,227 L323,227 L324,226 L325,225 L326,225 L316,251 L323,241 L325,241 L327,241 L329,242 L330,242 L332,242 L334,243 L336,243 L337,243 L339,243 L325,243 L327,244 L329,246 L332,248 L334,250 L336,251 L339,253 L341,255 L344,256 L346,258 L326,245 L329,247 L331,250 L334,252 L336,255 L339,257 L342,260 L344,262 L347,265 L349,267 L322,247 L320,248 L319,249 L317,250 L315,251 L313,252 L311,253 L309,254 L307,255 L305,256 L305,268 L339,254 L342,254 L344,255 L339,259 L341,260 L344,261 L338,266 L340,268 L343,270 L345,272 L312,252 L336,252 L338,252 L339,252 L341,252 L343,252 L345,252 L347,252 L348,252 L350,252 L337,252 L340,252 L343,252 L347,252 L350,252 L353,252 L356,252 L360,252 L363,252 L366,252 L338,251 L338,251 L338,250 L338,249 L338,249 L338,248 L338,248 L338,247 L338,246 L338,246 L359,249 L345,250 L345,249 L346,248 L346,247 L347,246 L347,245 L348,244 L348,243 L349,242 L349,241 L348,250 L348,249 L347,248 L347,247 L346,246 L346,245 L345,244 L345,243 L344,242 L352,249 L353,247 L353,246 L354,245 L355,244 L356,243 L357,241 L358,240 L355,249 L358,247 L360,246 L363,244 L365,243 L368,241 L371,240 L373,238 L376,236 L378,235 L351,254 L349,256 L348,258 L347,260 L345,262 L344,264 L343,266 L342,268 L340,270 " fill="none" stroke="#16a34a" stroke-width="2" opacity="0.7" stroke-dasharray="3,3"/><path d="M152,385 L206,194 L288,224 L287,226 L285,230 L283,235 L280,241 L276,250 L272,259 L267,270 L261,283 L254,298 L288,225 L287,228 L285,233 L283,241 L280,252 L276,265 L272,281 L267,299 L261,320 L255,344 L248,370 L294,227 L295,225 L297,221 L299,216 L302,209 L306,201 L310,192 L315,181 L321,168 L327,154 L296,228 L305,226 L319,223 L339,220 L364,215 L395,210 L431,203 L472,196 L519,187 L572,177 L303,228 L311,228 L325,228 L343,228 L367,228 L396,228 L430,228 L468,228 L512,228 L562,228 L308,229 L317,232 L330,236 L348,242 L371,249 L399,258 L432,268 L469,279 L511,293 L559,307 L314,231 L324,237 L339,246 L360,259 L385,275 L417,295 L454,318 L497,344 L545,375 L599,408 L658,445 L321,229 L325,226 L330,221 L337,216 L346,210 L355,203 L366,196 L378,187 L392,177 L407,166 L275,402 L323,241 L328,241 L335,243 L345,245 L358,247 L374,250 L392,253 L413,257 L438,261 L465,266 L325,243 L333,249 L344,257 L360,268 L380,283 L403,300 L431,320 L462,343 L498,369 L538,398 L328,247 L337,256 L351,269 L368,285 L389,306 L414,330 L443,358 L476,390 L513,426 L554,466 L317,249 L308,255 L296,261 L280,270 L261,280 L239,292 L214,306 L186,321 L155,338 L120,357 L121,469 L438,282 L468,291 L501,301 L434,314 L465,332 L499,352 L423,352 L451,381 L483,413 L518,449 L186,252 L337,252 L344,252 L354,252 L366,252 L382,252 L401,252 L422,252 L447,252 L475,252 L338,252 L348,252 L363,252 L384,252 L410,252 L441,252 L478,252 L520,252 L568,252 L620,252 L338,251 L338,249 L338,246 L338,242 L338,237 L338,231 L338,223 L338,215 L338,206 L338,196 L540,216 L346,247 L348,242 L351,236 L355,227 L360,217 L365,205 L372,191 L379,176 L387,159 L395,140 L347,247 L345,243 L342,236 L338,228 L334,219 L329,208 L323,195 L316,181 L309,165 L355,244 L359,237 L365,229 L372,219 L381,206 L391,192 L402,176 L414,158 L360,246 L371,239 L386,230 L405,219 L427,205 L454,189 L485,170 L520,149 L558,126 L601,100 L345,262 L338,273 L328,287 L317,304 L303,324 L287,346 L269,372 L250,401 L227,434 " fill="none" stroke="#ea580c" stroke-width="2" opacity="0.7" stroke-dasharray="8,3,2,3"/><circle cx="286" cy="221" r="4" fill="#2563eb" stroke="#2563eb"/><circle cx="288" cy="220" r="4" fill="#2563eb" stroke="#2563eb"/><circle cx="286" cy="222" r="4" fill="#2563eb" stroke="#2563eb"/><circle cx="288" cy="220" r="4" fill="#2563eb" stroke="#2563eb"/><circle cx="286" cy="222" r="4" fill="#2563eb" stroke="#2563eb"/><circle cx="288" cy="220" r="4" fill="#2563eb" stroke="#2563eb"/><circle cx="286" cy="222" r="4" fill="#2563eb" stroke="#2563eb"/><circle cx="288" cy="224" r="4" fill="#2563eb" stroke="#2563eb"/><circle cx="287" cy="223" r="4" fill="#2563eb" stroke="#2563eb"/><circle cx="288" cy="224" r="4" fill="#2563eb" stroke="#2563eb"/><circle cx="287" cy="224" r="4" fill="#2563eb" stroke="#2563eb"/><circle cx="288" cy="224" r="4" fill="#2563eb" stroke="#2563eb"/><circle cx="287" cy="224" r="4" fill="#2563eb" stroke="#2563eb"/><circle cx="288" cy="224" r="4" fill="#2563eb" stroke="#2563eb"/><circle cx="287" cy="225" r="4" fill="#2563eb" stroke="#2563eb"/><circle cx="288" cy="224" r="4" fill="#2563eb" stroke="#2563eb"/><circle cx="287" cy="226" r="4" fill="#2563eb" stroke="#2563eb"/><circle cx="288" cy="224" r="4" fill="#2563eb" stroke="#2563eb"/><circle cx="291" cy="227" r="4" fill="#2563eb" stroke="#2563eb"/><circle cx="293" cy="228" r="4" fill="#2563eb" stroke="#2563eb"/><circle cx="294" cy="227" r="4" fill="#2563eb" stroke="#2563eb"/><circle cx="293" cy="228" r="4" fill="#2563eb" stroke="#2563eb"/><circle cx="298" cy="227" r="4" fill="#2563eb" stroke="#2563eb"/><circle cx="299" cy="228" r="4" fill="#2563eb" stroke="#2563eb"/><circle cx="303" cy="228" r="4" fill="#2563eb" stroke="#2563eb"/><circle cx="305" cy="228" r="4" fill="#2563eb" stroke="#2563eb"/><circle cx="308" cy="229" r="4" fill="#2563eb" stroke="#2563eb"/><circle cx="310" cy="228" r="4" fill="#2563eb" stroke="#2563eb"/><circle cx="314" cy="231" r="4" fill="#2563eb" stroke="#2563eb"/><circle cx="316" cy="232" r="4" fill="#2563eb" stroke="#2563eb"/><circle cx="317" cy="231" r="4" fill="#2563eb" stroke="#2563eb"/><circle cx="316" cy="232" r="4" fill="#2563eb" stroke="#2563eb"/><circle cx="319" cy="232" r="4" fill="#2563eb" stroke="#2563eb"/><circle cx="321" cy="232" r="4" fill="#2563eb" stroke="#2563eb"/><circle cx="320" cy="233" r="4" fill="#2563eb" stroke="#2563eb"/><circle cx="321" cy="232" r="4" fill="#2563eb" stroke="#2563eb"/><circle cx="321" cy="234" r="4" fill="#2563eb" stroke="#2563eb"/><circle cx="321" cy="232" r="4" fill="#2563eb" stroke="#2563eb"/><circle cx="321" cy="235" r="4" fill="#2563eb" stroke="#2563eb"/><circle cx="321" cy="236" r="4" fill="#2563eb" stroke="#2563eb"/><circle cx="322" cy="237" r="4" fill="#2563eb" stroke="#2563eb"/><circle cx="321" cy="236" r="4" fill="#2563eb" stroke="#2563eb"/><circle cx="322" cy="237" r="4" fill="#2563eb" stroke="#2563eb"/><circle cx="321" cy="236" r="4" fill="#2563eb" stroke="#2563eb"/><circle cx="322" cy="237" r="4" fill="#2563eb" stroke="#2563eb"/><circle cx="321" cy="236" r="4" fill="#2563eb" stroke="#2563eb"/><circle cx="322" cy="238" r="4" fill="#2563eb" stroke="#2563eb"/><circle cx="321" cy="236" r="4" fill="#2563eb" stroke="#2563eb"/><circle cx="323" cy="239" r="4" fill="#2563eb" stroke="#2563eb"/><circle cx="321" cy="240" r="4" fill="#2563eb" stroke="#2563eb"/><circle cx="323" cy="240" r="4" fill="#2563eb" stroke="#2563eb"/><circle cx="321" cy="240" r="4" fill="#2563eb" stroke="#2563eb"/><circle cx="324" cy="241" r="4" fill="#2563eb" stroke="#2563eb"/><circle cx="321" cy="240" r="4" fill="#2563eb" stroke="#2563eb"/><circle cx="324" cy="242" r="4" fill="#2563eb" stroke="#2563eb"/><circle cx="321" cy="240" r="4" fill="#2563eb" stroke="#2563eb"/><circle cx="325" cy="243" r="4" fill="#2563eb" stroke="#2563eb"/><circle cx="327" cy="244" r="4" fill="#2563eb" stroke="#2563eb"/><circle cx="325" cy="244" r="4" fill="#2563eb" stroke="#2563eb"/><circle cx="327" cy="244" r="4" fill="#2563eb" stroke="#2563eb"/><circle cx="325" cy="246" r="4" fill="#2563eb" stroke="#2563eb"/><circle cx="327" cy="244" r="4" fill="#2563eb" stroke="#2563eb"/><circle cx="325" cy="246" r="4" fill="#2563eb" stroke="#2563eb"/><circle cx="327" cy="244" r="4" fill="#2563eb" stroke="#2563eb"/><circle cx="325" cy="246" r="4" fill="#2563eb" stroke="#2563eb"/><circle cx="327" cy="244" r="4" fill="#2563eb" stroke="#2563eb"/><circle cx="325" cy="247" r="4" fill="#2563eb" stroke="#2563eb"/><circle cx="327" cy="248" r="4" fill="#2563eb" stroke="#2563eb"/><circle cx="324" cy="248" r="4" fill="#2563eb" stroke="#2563eb"/><circle cx="321" cy="248" r="4" fill="#2563eb" stroke="#2563eb"/><circle cx="324" cy="249" r="4" fill="#2563eb" stroke="#2563eb"/><circle cx="321" cy="248" r="4" fill="#2563eb" stroke="#2563eb"/><circle cx="324" cy="250" r="4" fill="#2563eb" stroke="#2563eb"/><circle cx="321" cy="248" r="4" fill="#2563eb" stroke="#2563eb"/><circle cx="324" cy="251" r="4" fill="#2563eb" stroke="#2563eb"/><circle cx="321" cy="252" r="4" fill="#2563eb" stroke="#2563eb"/><circle cx="325" cy="252" r="4" fill="#2563eb" stroke="#2563eb"/><circle cx="327" cy="252" r="4" fill="#2563eb" stroke="#2563eb"/><circle cx="325" cy="252" r="4" fill="#2563eb" stroke="#2563eb"/><circle cx="327" cy="252" r="4" fill="#2563eb" stroke="#2563eb"/><circle cx="326" cy="252" r="4" fill="#2563eb" stroke="#2563eb"/><circle cx="327" cy="252" r="4" fill="#2563eb" stroke="#2563eb"/><circle cx="327" cy="252" r="4" fill="#2563eb" stroke="#2563eb"/><circle cx="327" cy="252" r="4" fill="#2563eb" stroke="#2563eb"/><circle cx="328" cy="253" r="4" fill="#2563eb" stroke="#2563eb"/><circle cx="327" cy="252" r="4" fill="#2563eb" stroke="#2563eb"/><circle cx="330" cy="253" r="4" fill="#2563eb" stroke="#2563eb"/><circle cx="332" cy="252" r="4" fill="#2563eb" stroke="#2563eb"/><circle cx="331" cy="253" r="4" fill="#2563eb" stroke="#2563eb"/><circle cx="332" cy="252" r="4" fill="#2563eb" stroke="#2563eb"/><circle cx="331" cy="253" r="4" fill="#2563eb" stroke="#2563eb"/><circle cx="332" cy="252" r="4" fill="#2563eb" stroke="#2563eb"/><circle cx="332" cy="253" r="4" fill="#2563eb" stroke="#2563eb"/><circle cx="332" cy="252" r="4" fill="#2563eb" stroke="#2563eb"/><circle cx="335" cy="252" r="4" fill="#2563eb" stroke="#2563eb"/><circle cx="332" cy="252" r="4" fill="#2563eb" stroke="#2563eb"/><circle cx="336" cy="252" r="4" fill="#2563eb" stroke="#2563eb"/><circle cx="338" cy="252" r="4" fill="#2563eb" stroke="#2563eb"/><circle cx="338" cy="252" r="4" fill="#2563eb" stroke="#2563eb"/><circle cx="338" cy="252" r="4" fill="#2563eb" stroke="#2563eb"/><circle cx="339" cy="252" r="4" fill="#2563eb" stroke="#2563eb"/><circle cx="338" cy="252" r="4" fill="#2563eb" stroke="#2563eb"/><circle cx="340" cy="252" r="4" fill="#2563eb" stroke="#2563eb"/><circle cx="338" cy="252" r="4" fill="#2563eb" stroke="#2563eb"/><circle cx="343" cy="252" r="4" fill="#2563eb" stroke="#2563eb"/><circle cx="344" cy="252" r="4" fill="#2563eb" stroke="#2563eb"/><circle cx="343" cy="252" r="4" fill="#2563eb" stroke="#2563eb"/><circle cx="344" cy="252" r="4" fill="#2563eb" stroke="#2563eb"/><circle cx="343" cy="252" r="4" fill="#2563eb" stroke="#2563eb"/><circle cx="344" cy="252" r="4" fill="#2563eb" stroke="#2563eb"/><circle cx="344" cy="251" r="4" fill="#2563eb" stroke="#2563eb"/><circle cx="344" cy="252" r="4" fill="#2563eb" stroke="#2563eb"/><circle cx="345" cy="251" r="4" fill="#2563eb" stroke="#2563eb"/><circle cx="344" cy="252" r="4" fill="#2563eb" stroke="#2563eb"/><circle cx="346" cy="251" r="4" fill="#2563eb" stroke="#2563eb"/><circle cx="349" cy="252" r="4" fill="#2563eb" stroke="#2563eb"/><circle cx="349" cy="251" r="4" fill="#2563eb" stroke="#2563eb"/><circle cx="349" cy="252" r="4" fill="#2563eb" stroke="#2563eb"/><circle cx="350" cy="251" r="4" fill="#2563eb" stroke="#2563eb"/><circle cx="349" cy="252" r="4" fill="#2563eb" stroke="#2563eb"/><circle cx="353" cy="250" r="4" fill="#2563eb" stroke="#2563eb"/><circle cx="355" cy="248" r="4" fill="#2563eb" stroke="#2563eb"/><circle cx="353" cy="251" r="4" fill="#2563eb" stroke="#2563eb"/><circle cx="355" cy="252" r="4" fill="#2563eb" stroke="#2563eb"/><circle cx="353" cy="251" r="4" fill="#2563eb" stroke="#2563eb"/><circle cx="355" cy="252" r="4" fill="#2563eb" stroke="#2563eb"/><circle cx="580" cy="530" r="4" fill="#2563eb"/>
<text x="590.0" y="534.0" class="label">GNSS fix</text><line x1="570.0" y1="546" x2="584.0" y2="546" stroke="#dc2626" stroke-width="2" stroke-dasharray="6,3"/>
<text x="590.0" y="550.0" class="label">IMU-only</text><line x1="570.0" y1="562" x2="584.0" y2="562" stroke="#16a34a" stroke-width="2" stroke-dasharray="3,3"/>
<text x="590.0" y="566.0" class="label">Linear</text><line x1="570.0" y1="578" x2="584.0" y2="578" stroke="#ea580c" stroke-width="2" stroke-dasharray="8,3,2,3"/>
<text x="590.0" y="582.0" class="label">EndpointConstrained</text>
</svg>