<svg xmlns="http://www.w3.org/2000/svg" viewBox="0 0 800 600" width="800" height="600">
<style>
  .title { font: bold 16px sans-serif; fill: #1f2937; }
  .desc { font: 12px sans-serif; fill: #6b7280; }
  .label { font: 10px monospace; fill: #374151; }
  .grid { stroke: #e5e7eb; stroke-width: 0.5; }
</style>
<rect width="800" height="600" fill="#fafafa" rx="4"/>
<text x="60" y="24" class="title">Mt. Tsukuba Hiking — High-speed DR</text>
<text x="60" y="42" class="desc">Real data: 765.6m/s (2756km/h), 0.0s gap, err=1.5m</text>
<line x1="60" y1="60.0" x2="740.0" y2="60.0" class="grid"/><line x1="60.0" y1="60" x2="60.0" y2="540.0" class="grid"/><line x1="60" y1="180.0" x2="740.0" y2="180.0" class="grid"/><line x1="230.0" y1="60" x2="230.0" y2="540.0" class="grid"/><line x1="60" y1="300.0" x2="740.0" y2="300.0" class="grid"/><line x1="400.0" y1="60" x2="400.0" y2="540.0" class="grid"/><line x1="60" y1="420.0" x2="740.0" y2="420.0" class="grid"/><line x1="570.0" y1="60" x2="570.0" y2="540.0" class="grid"/><line x1="60" y1="540.0" x2="740.0" y2="540.0" class="grid"/><line x1="740.0" y1="60" x2="740.0" y2="540.0" class="grid"/><path d="M683,500 L683,500 L683,500 L683,500 L683,500 L683,500 L683,500 L683,500 L683,500 L683,500 L683,500 L683,500 " fill="none" stroke="#2563eb" stroke-width="2" opacity="0.5"/><path d="M683,500 L683,500 L683,500 L683,500 L683,500 L683,500 L683,500 L683,500 L683,500 L683,500 L683,500 L683,500 L683,500 L683,500 L683,500 L683,500 L683,500 L683,500 L683,500 L683,500 L683,500 L683,500 L683,500 L683,500 L683,500 L683,500 L683,500 L683,500 L683,500 L683,500 L683,500 L683,500 L683,500 L683,500 L683,500 L683,500 L683,500 L683,500 L683,500 L683,500 L683,500 L683,500 L683,500 L683,500 L683,500 L683,500 L683,500 L683,500 L683,500 L683,500 L683,500 L683,500 L683,500 L683,500 L683,500 L683,500 L683,500 L683,500 L683,500 L683,500 L683,500 L683,500 L683,500 L683,500 L683,500 L683,500 L683,500 L683,500 L683,500 L683,500 L683,500 L683,500 L683,500 L683,500 L683,500 L683,500 L683,500 L683,500 L683,500 L683,500 L683,500 L683,500 L683,500 L683,500 L683,500 L683,500 L683,500 L683,500 L683,500 L683,500 L683,500 L683,500 L683,500 L683,500 L683,500 " fill="none" stroke="#dc2626" stroke-width="2" opacity="0.7" stroke-dasharray="6,3"/><path d="M683,500 L683,500 L683,500 L683,500 L683,500 L683,500 L683,500 L683,500 L683,500 L683,500 L683,500 L683,500 L683,500 L683,500 L683,500 L683,500 L683,500 L683,500 L683,500 L683,500 L683,500 L683,500 L683,500 L683,500 L683,500 L683,500 L683,500 L683,500 L683,500 L683,500 L683,500 L683,500 L683,500 L683,500 L683,500 L683,500 L683,500 L683,500 L683,500 L683,500 L683,500 L683,500 L683,500 L683,500 L683,500 L683,500 L683,500 L683,500 L683,500 L683,500 L683,500 L683,500 L683,500 L683,500 L683,499 L683,499 L683,499 L683,499 L683,499 L683,499 L683,499 L683,499 L683,499 L683,499 L682,499 L682,499 L682,499 L682,499 L682,499 L682,499 L682,499 L682,499 L682,499 L682,499 L682,499 L682,499 L682,499 L682,499 L682,499 L682,499 L682,499 L682,499 L682,499 L682,499 L682,499 L682,499 L682,499 L682,499 L682,499 L682,499 L682,499 L682,499 L682,499 L682,499 L682,499 " fill="none" stroke="#16a34a" stroke-width="2" opacity="0.7" stroke-dasharray="3,3"/><path d="M683,500 L682,499 L682,499 L681,499 L681,498 L680,497 L679,497 L677,496 L676,495 L675,494 L673,493 L672,492 L670,491 L668,489 L666,488 L664,486 L662,485 L659,483 L657,482 L655,480 L652,478 L649,476 L646,474 L643,471 L640,469 L637,467 L633,464 L630,462 L626,459 L622,457 L618,454 L614,451 L610,448 L606,445 L601,442 L597,439 L592,436 L587,432 L582,429 L578,425 L572,422 L568,418 L562,414 L556,410 L551,407 L545,403 L539,398 L534,394 L527,390 L521,385 L515,381 L508,377 L502,372 L495,367 L488,362 L481,357 L475,353 L467,347 L460,342 L453,337 L445,332 L437,326 L430,321 L422,315 L413,309 L406,304 L397,298 L389,292 L381,286 L372,280 L363,274 L355,268 L345,261 L336,255 L327,249 L318,242 L308,235 L299,229 L289,222 L279,214 L269,208 L259,200 L248,193 L239,186 L228,179 L217,171 L207,164 L196,156 L185,148 L174,141 L163,133 L151,124 L141,117 L129,109 L117,100 " fill="none" stroke="#ea580c" stroke-width="2" opacity="0.7" stroke-dasharray="8,3,2,3"/><circle cx="683" cy="500" r="4" fill="#2563eb" stroke="#2563eb"/><circle cx="683" cy="500" r="4" fill="#2563eb" stroke="#2563eb"/><circle cx="683" cy="500" r="4" fill="#2563eb" stroke="#2563eb"/><circle cx="683" cy="500" r="4" fill="#2563eb" stroke="#2563eb"/><circle cx="683" cy="500" r="4" fill="#2563eb" stroke="#2563eb"/><circle cx="683" cy="500" r="4" fill="#2563eb" stroke="#2563eb"/><circle cx="683" cy="500" r="4" fill="#2563eb" stroke="#2563eb"/><circle cx="683" cy="500" r="4" fill="#2563eb" stroke="#2563eb"/><circle cx="683" cy="500" r="4" fill="#2563eb" stroke="#2563eb"/><circle cx="683" cy="500" r="4" fill="#2563eb" stroke="#2563eb"/><circle cx="683" cy="500" r="4" fill="#2563eb" stroke="#2563eb"/><circle cx="683" cy="500" r="4" fill="#2563eb" stroke="#2563eb"/><circle cx="580" cy="530" r="4" fill="#2563eb"/>
<text x="590.0" y="534.0" class="label">GNSS fix</text><line x1="570.0" y1="546" x2="584.0" y2="546" stroke="#dc2626" stroke-width="2" stroke-dasharray="6,3"/>
<text x="590.0" y="550.0" class="label">IMU-only</text><line x1="570.0" y1="562" x2="584.0" y2="562" stroke="#16a34a" stroke-width="2" stroke-dasharray="3,3"/>
<text x="590.0" y="566.0" class="label">Linear</text><line x1="570.0" y1="578" x2="584.0" y2="578" stroke="#ea580c" stroke-width="2" stroke-dasharray="8,3,2,3"/>
<text x="590.0" y="582.0" class="label">EndpointConstrained</text>
</svg>