<svg xmlns="http://www.w3.org/2000/svg" viewBox="0 0 800 600" width="800" height="600">
<style>
  .title { font: bold 16px sans-serif; fill: #1f2937; }
  .desc { font: 12px sans-serif; fill: #6b7280; }
  .label { font: 10px monospace; fill: #374151; }
  .grid { stroke: #e5e7eb; stroke-width: 0.5; }
</style>
<rect width="800" height="600" fill="#fafafa" rx="4"/>
<text x="60" y="24" class="title">Mt. Tsukuba Hiking — Longest DR gap</text>
<text x="60" y="42" class="desc">Real data: 91.1s gap, 8718 DR points, endpoint error 10900.2m</text>
<line x1="60" y1="60.0" x2="740.0" y2="60.0" class="grid"/><line x1="60.0" y1="60" x2="60.0" y2="540.0" class="grid"/><line x1="60" y1="180.0" x2="740.0" y2="180.0" class="grid"/><line x1="230.0" y1="60" x2="230.0" y2="540.0" class="grid"/><line x1="60" y1="300.0" x2="740.0" y2="300.0" class="grid"/><line x1="400.0" y1="60" x2="400.0" y2="540.0" class="grid"/><line x1="60" y1="420.0" x2="740.0" y2="420.0" class="grid"/><line x1="570.0" y1="60" x2="570.0" y2="540.0" class="grid"/><line x1="60" y1="540.0" x2="740.0" y2="540.0" class="grid"/><line x1="740.0" y1="60" x2="740.0" y2="540.0" class="grid"/><path d="M234,180 L234,179 L235,179 L235,179 L234,179 L234,178 L237,191 L237,191 L237,191 L237,191 L237,191 L237,191 " fill="none" stroke="#2563eb" stroke-width="2" opacity="0.5"/><path d="M235,179 L234,178 L234,178 L234,178 L234,178 L234,178 L234,178 L234,178 L234,178 L234,178 L234,178 L234,178 L234,178 L234,178 L234,178 L234,178 L234,178 L234,178 L234,178 L234,178 L234,178 L234,178 L234,178 L234,178 L234,178 L234,178 L234,178 L234,178 L234,178 L234,178 L234,178 L234,178 L234,178 L234,178 L234,178 L234,178 L234,178 L234,178 L234,178 L234,177 L235,177 L235,177 L236,177 L237,177 L238,178 L239,179 L240,180 L242,181 L244,182 L245,183 L248,185 L250,187 L252,189 L255,191 L257,193 L260,196 L263,199 L267,201 L270,204 L274,208 L277,211 L281,214 L286,218 L290,222 L294,225 L299,229 L304,233 L309,237 L314,241 L320,245 L325,249 L331,253 L337,257 L343,261 L349,265 L355,269 L362,274 L369,278 L376,283 L383,288 L390,293 L398,298 L406,304 L414,309 L422,315 L430,321 L439,327 L448,333 L457,340 L466,346 L475,353 L485,360 L495,367 L505,374 L515,381 L525,388 L535,396 L546,403 L557,410 L568,418 L579,426 L590,434 L602,442 L614,451 L626,460 L638,469 L651,478 L663,487 L676,497 L689,507 L702,517 L716,528 L730,539 L744,550 L758,562 L772,573 L786,584 L801,595 L816,607 L830,618 L846,629 L861,641 L876,652 L892,664 L908,675 L924,687 L940,699 L956,711 L973,723 L989,734 L1006,746 L1023,758 L1041,770 L1058,782 L1075,794 L1092,806 L1110,818 L1127,830 L1145,842 L1162,854 L1180,866 L1198,878 L1216,890 L1234,902 L1252,915 L1270,927 L1288,939 L1305,951 L1323,964 L1341,976 L1359,988 L1376,1000 L1406,1021 L1423,1032 L1440,1044 L1456,1054 L1473,1065 L1489,1075 L1504,1085 L1520,1095 L1536,1104 L1552,1113 L1568,1123 L1584,1132 L1601,1141 L1618,1150 L1634,1159 L1651,1169 L1660,1174 L1660,1174 L1660,1174 L1660,1174 L1660,1174 L1660,1174 L1660,1174 L1660,1174 L1660,1174 L1660,1174 L1660,1174 L1660,1174 L1660,1174 L1660,1174 L1660,1174 L1660,1174 L1660,1174 L1660,1174 L1660,1174 L1660,1174 L1660,1174 L1660,1174 L1660,1174 L1660,1174 L1660,1174 L1660,1174 L1660,1174 L1660,1174 L1660,1174 L1660,1174 L1660,1174 L1660,1174 L1659,1174 L1659,1173 L1659,1172 " fill="none" stroke="#dc2626" stroke-width="2" opacity="0.7" stroke-dasharray="6,3"/><path d="M234,179 L235,179 L235,179 L235,179 L235,179 L235,179 L235,179 L235,179 L235,179 L235,179 L235,179 L235,179 L235,180 L235,180 L235,180 L235,180 L235,180 L235,180 L235,180 L235,180 L235,180 L235,180 L235,180 L235,180 L235,180 L235,180 L235,180 L235,180 L235,180 L235,180 L235,181 L235,181 L235,181 L235,181 L235,181 L235,181 L235,181 L235,181 L235,181 L235,181 L235,181 L235,181 L235,181 L235,181 L235,181 L235,181 L235,181 L235,182 L235,182 L235,182 L235,182 L235,182 L235,182 L235,182 L235,182 L235,182 L235,182 L235,182 L235,182 L235,182 L235,182 L235,182 L235,182 L235,182 L235,182 L235,183 L235,183 L235,183 L235,183 L235,183 L235,183 L235,183 L235,183 L235,183 L235,183 L235,183 L235,183 L235,183 L235,183 L235,183 L235,183 L235,183 L235,183 L236,184 L236,184 L236,184 L236,184 L236,184 L236,184 L236,184 L236,184 L236,184 L236,184 L236,184 L236,184 L236,184 L236,184 L236,184 L236,184 L236,184 L236,185 L236,185 L236,185 L236,185 L236,185 L236,185 L236,185 L236,185 L236,185 L236,185 L236,185 L236,185 L236,185 L236,185 L236,185 L236,185 L236,185 L236,185 L236,186 L236,186 L236,186 L236,186 L236,186 L236,186 L236,186 L236,186 L236,186 L236,186 L236,186 L236,186 L236,186 L236,186 L236,186 L236,186 L236,186 L236,187 L236,187 L236,187 L236,187 L236,187 L236,187 L236,187 L236,187 L236,187 L236,187 L236,187 L236,187 L236,187 L236,187 L236,187 L236,187 L236,187 L236,188 L236,188 L236,188 L236,188 L236,188 L236,188 L236,188 L236,188 L236,188 L236,188 L236,188 L236,188 L236,188 L236,188 L236,188 L236,188 L237,188 L237,189 L237,189 L237,189 L237,189 L237,189 L237,189 L237,189 L237,189 L237,189 L237,189 L237,189 L237,189 L237,189 L237,189 L237,189 L237,189 L237,189 L237,190 L237,190 L237,190 L237,190 L237,190 L237,190 L237,190 L237,190 L237,190 L237,190 L237,190 L237,190 L237,190 L237,190 L237,190 L237,190 L237,190 " fill="none" stroke="#16a34a" stroke-width="2" opacity="0.7" stroke-dasharray="3,3"/><path d="M234,179 L228,174 L227,173 L226,172 L225,172 L224,171 L223,170 L222,169 L221,169 L219,168 L218,167 L217,166 L215,165 L214,164 L212,163 L210,161 L209,160 L207,159 L205,158 L203,156 L201,155 L199,154 L197,152 L195,151 L193,149 L190,148 L188,146 L186,145 L183,143 L181,141 L178,139 L176,138 L173,136 L170,134 L168,132 L165,130 L162,128 L159,126 L156,123 L153,121 L150,119 L147,116 L145,114 L142,112 L140,110 L138,109 L136,107 L134,106 L132,105 L130,104 L128,103 L127,102 L125,101 L124,101 L123,100 L121,100 L120,100 L119,100 L119,100 L118,100 L117,101 L117,101 L117,102 L117,102 L117,103 L117,104 L117,104 L117,105 L118,106 L118,107 L119,107 L120,108 L121,108 L121,109 L123,109 L124,110 L125,110 L127,111 L128,112 L130,113 L132,115 L134,116 L136,118 L138,119 L141,121 L143,123 L146,125 L149,127 L152,130 L155,132 L159,135 L162,137 L165,140 L169,142 L173,145 L177,148 L181,151 L185,154 L189,157 L193,160 L198,163 L203,166 L207,170 L212,174 L217,178 L223,182 L228,186 L234,191 L239,195 L245,201 L251,206 L258,212 L264,218 L270,224 L277,230 L283,236 L290,242 L297,248 L304,254 L311,260 L318,266 L326,272 L333,278 L341,284 L349,290 L356,296 L364,302 L372,308 L381,314 L389,320 L397,326 L406,332 L414,338 L423,344 L432,350 L440,356 L449,362 L457,368 L466,374 L475,380 L483,385 L492,391 L501,397 L510,403 L518,409 L527,415 L535,421 L544,426 L552,432 L560,438 L568,443 L576,449 L589,457 L596,462 L603,466 L609,470 L615,474 L621,477 L627,480 L633,483 L638,485 L644,487 L650,489 L655,491 L661,493 L667,495 L674,497 L680,499 L664,487 L654,480 L643,472 L632,464 L621,457 L610,449 L598,441 L587,434 L576,426 L564,418 L553,410 L542,402 L530,394 L518,386 L507,378 L495,370 L483,362 L472,354 L460,346 L448,338 L436,329 L424,321 L412,313 L399,304 L387,296 L375,287 L362,279 L350,270 L338,262 L325,253 L300,236 L287,227 L274,218 L261,209 L248,199 " fill="none" stroke="#ea580c" stroke-width="2" opacity="0.7" stroke-dasharray="8,3,2,3"/><circle cx="234" cy="180" r="4" fill="#2563eb" stroke="#2563eb"/><circle cx="234" cy="179" r="4" fill="#2563eb" stroke="#2563eb"/><circle cx="235" cy="179" r="4" fill="#2563eb" stroke="#2563eb"/><circle cx="235" cy="179" r="4" fill="#2563eb" stroke="#2563eb"/><circle cx="234" cy="179" r="4" fill="#2563eb" stroke="#2563eb"/><circle cx="234" cy="178" r="4" fill="#2563eb" stroke="#2563eb"/><circle cx="237" cy="191" r="4" fill="#2563eb" stroke="#2563eb"/><circle cx="237" cy="191" r="4" fill="#2563eb" stroke="#2563eb"/><circle cx="237" cy="191" r="4" fill="#2563eb" stroke="#2563eb"/><circle cx="237" cy="191" r="4" fill="#2563eb" stroke="#2563eb"/><circle cx="237" cy="191" r="4" fill="#2563eb" stroke="#2563eb"/><circle cx="237" cy="191" r="4" fill="#2563eb" stroke="#2563eb"/><circle cx="580" cy="530" r="4" fill="#2563eb"/>
<text x="590.0" y="534.0" class="label">GNSS fix</text><line x1="570.0" y1="546" x2="584.0" y2="546" stroke="#dc2626" stroke-width="2" stroke-dasharray="6,3"/>
<text x="590.0" y="550.0" class="label">IMU-only</text><line x1="570.0" y1="562" x2="584.0" y2="562" stroke="#16a34a" stroke-width="2" stroke-dasharray="3,3"/>
<text x="590.0" y="566.0" class="label">Linear</text><line x1="570.0" y1="578" x2="584.0" y2="578" stroke="#ea580c" stroke-width="2" stroke-dasharray="8,3,2,3"/>
<text x="590.0" y="582.0" class="label">EndpointConstrained</text>
</svg>