<svg xmlns="http://www.w3.org/2000/svg" viewBox="0 0 800 600" width="800" height="600">
<style>
  .title { font: bold 16px sans-serif; fill: #1f2937; }
  .desc { font: 12px sans-serif; fill: #6b7280; }
  .label { font: 10px monospace; fill: #374151; }
  .grid { stroke: #e5e7eb; stroke-width: 0.5; }
</style>
<rect width="800" height="600" fill="#fafafa" rx="4"/>
<text x="60" y="24" class="title">Mt. Tsukuba Hiking — Shortest DR gap</text>
<text x="60" y="42" class="desc">Real data: -3.2s gap, 51 DR points, err=2.4m</text>
<line x1="60" y1="60.0" x2="740.0" y2="60.0" class="grid"/><line x1="60.0" y1="60" x2="60.0" y2="540.0" class="grid"/><line x1="60" y1="180.0" x2="740.0" y2="180.0" class="grid"/><line x1="230.0" y1="60" x2="230.0" y2="540.0" class="grid"/><line x1="60" y1="300.0" x2="740.0" y2="300.0" class="grid"/><line x1="400.0" y1="60" x2="400.0" y2="540.0" class="grid"/><line x1="60" y1="420.0" x2="740.0" y2="420.0" class="grid"/><line x1="570.0" y1="60" x2="570.0" y2="540.0" class="grid"/><line x1="60" y1="540.0" x2="740.0" y2="540.0" class="grid"/><line x1="740.0" y1="60" x2="740.0" y2="540.0" class="grid"/><path d="M583,415 L585,404 L581,404 L581,404 L594,387 L604,370 L683,330 L615,415 L653,381 L673,353 L679,341 L526,500 " fill="none" stroke="#2563eb" stroke-width="2" opacity="0.5"/><path d="M585,404 L594,387 L549,339 L546,338 L542,335 L538,333 L534,331 L529,328 L525,326 L520,323 L515,320 L509,317 L504,315 L498,311 L492,308 L487,305 L480,301 L474,298 L467,294 L460,290 L453,286 L446,282 L438,278 L430,274 L423,270 L415,265 L406,260 L398,256 L389,251 L380,246 L371,241 L361,236 L351,230 L342,225 L332,219 L321,213 L312,208 L301,202 L290,196 L279,190 L268,184 L256,177 L245,171 L233,164 L220,157 L209,151 L196,144 L183,137 L171,130 L157,123 L143,115 L131,108 L117,100 " fill="none" stroke="#dc2626" stroke-width="2" opacity="0.7" stroke-dasharray="6,3"/><path d="M581,404 L605,369 L549,339 L546,338 L542,335 L538,333 L534,331 L529,328 L525,326 L520,323 L515,320 L509,317 L504,315 L498,311 L492,308 L487,305 L480,301 L474,298 L467,294 L460,290 L453,286 L446,282 L438,278 L430,274 L423,270 L415,265 L406,260 L398,256 L389,251 L380,246 L371,241 L361,236 L351,230 L342,225 L332,219 L321,213 L312,208 L301,202 L290,196 L279,190 L268,184 L256,177 L245,171 L233,164 L220,157 L209,151 L196,144 L183,137 L171,130 L157,123 L143,115 L131,108 L117,100 " fill="none" stroke="#16a34a" stroke-width="2" opacity="0.7" stroke-dasharray="3,3"/><path d="M581,404 L605,369 L549,339 L546,338 L542,335 L538,333 L534,331 L529,328 L525,326 L520,323 L515,320 L509,317 L504,315 L498,311 L492,308 L487,305 L480,301 L474,298 L467,294 L460,290 L453,286 L446,282 L438,278 L430,274 L423,270 L415,265 L406,260 L398,256 L389,251 L380,246 L371,241 L361,236 L351,230 L342,225 L332,219 L321,213 L312,208 L301,202 L290,196 L279,190 L268,184 L256,177 L245,171 L233,164 L220,157 L209,151 L196,144 L183,137 L171,130 L157,123 L143,115 L131,108 L117,100 " fill="none" stroke="#ea580c" stroke-width="2" opacity="0.7" stroke-dasharray="8,3,2,3"/><circle cx="583" cy="415" r="4" fill="#2563eb" stroke="#2563eb"/><circle cx="585" cy="404" r="4" fill="#2563eb" stroke="#2563eb"/><circle cx="581" cy="404" r="4" fill="#2563eb" stroke="#2563eb"/><circle cx="581" cy="404" r="4" fill="#2563eb" stroke="#2563eb"/><circle cx="594" cy="387" r="4" fill="#2563eb" stroke="#2563eb"/><circle cx="604" cy="370" r="4" fill="#2563eb" stroke="#2563eb"/><circle cx="683" cy="330" r="4" fill="#2563eb" stroke="#2563eb"/><circle cx="615" cy="415" r="4" fill="#2563eb" stroke="#2563eb"/><circle cx="653" cy="381" r="4" fill="#2563eb" stroke="#2563eb"/><circle cx="673" cy="353" r="4" fill="#2563eb" stroke="#2563eb"/><circle cx="679" cy="341" r="4" fill="#2563eb" stroke="#2563eb"/><circle cx="526" cy="500" r="4" fill="#2563eb" stroke="#2563eb"/><circle cx="580" cy="530" r="4" fill="#2563eb"/>
<text x="590.0" y="534.0" class="label">GNSS fix</text><line x1="570.0" y1="546" x2="584.0" y2="546" stroke="#dc2626" stroke-width="2" stroke-dasharray="6,3"/>
<text x="590.0" y="550.0" class="label">IMU-only</text><line x1="570.0" y1="562" x2="584.0" y2="562" stroke="#16a34a" stroke-width="2" stroke-dasharray="3,3"/>
<text x="590.0" y="566.0" class="label">Linear</text><line x1="570.0" y1="578" x2="584.0" y2="578" stroke="#ea580c" stroke-width="2" stroke-dasharray="8,3,2,3"/>
<text x="590.0" y="582.0" class="label">EndpointConstrained</text>
</svg>