<svg xmlns="http://www.w3.org/2000/svg" viewBox="0 0 800 600" width="800" height="600">
<style>
  .title { font: bold 16px sans-serif; fill: #1f2937; }
  .desc { font: 12px sans-serif; fill: #6b7280; }
  .label { font: 10px monospace; fill: #374151; }
  .grid { stroke: #e5e7eb; stroke-width: 0.5; }
</style>
<rect width="800" height="600" fill="#fafafa" rx="4"/>
<text x="60" y="24" class="title">Mt. Tsukuba Hiking — Worst DR drift</text>
<text x="60" y="42" class="desc">Real data: endpoint error 1082.0m, 28.6s gap, 0.2m/s</text>
<line x1="60" y1="60.0" x2="740.0" y2="60.0" class="grid"/><line x1="60.0" y1="60" x2="60.0" y2="540.0" class="grid"/><line x1="60" y1="180.0" x2="740.0" y2="180.0" class="grid"/><line x1="230.0" y1="60" x2="230.0" y2="540.0" class="grid"/><line x1="60" y1="300.0" x2="740.0" y2="300.0" class="grid"/><line x1="400.0" y1="60" x2="400.0" y2="540.0" class="grid"/><line x1="60" y1="420.0" x2="740.0" y2="420.0" class="grid"/><line x1="570.0" y1="60" x2="570.0" y2="540.0" class="grid"/><line x1="60" y1="540.0" x2="740.0" y2="540.0" class="grid"/><line x1="740.0" y1="60" x2="740.0" y2="540.0" class="grid"/><path d="M127,500 L123,486 L123,484 L123,481 L117,430 L119,453 L123,472 L123,471 L125,482 L125,481 L126,486 L126,487 " fill="none" stroke="#2563eb" stroke-width="2" opacity="0.5"/><path d="M119,453 L118,453 L118,453 L117,453 L116,453 L115,453 L113,454 L112,454 L110,455 L107,456 L105,457 L102,458 L99,459 L96,460 L93,461 L89,462 L85,464 L81,465 L77,466 L72,467 L68,468 L62,469 L57,469 L52,470 L46,471 L40,472 L34,472 L29,473 L23,474 L17,475 L11,476 L5,476 L-1,477 L-7,478 L-13,479 L-20,480 L-26,481 L-32,482 L-38,483 L-45,485 L-51,486 L-58,487 L-64,488 L-71,489 L-77,491 L-84,492 L-90,493 L-97,494 L-104,495 L-111,496 L-118,498 L-124,499 L-131,501 L-138,503 L-145,505 L-152,507 L-159,509 L-166,512 L-173,514 L-180,517 L-188,521 L-195,524 L-202,528 L-209,533 L-216,538 L-224,544 L-231,550 L-238,557 L-246,564 L-253,572 L-260,581 L-268,589 L-275,598 L-283,608 L-290,617 L-298,626 L-305,634 L-313,643 L-321,652 L-328,661 L-336,669 L-344,678 L-352,686 L-360,695 L-368,704 L-376,713 L-384,722 L-393,731 L-401,740 L-410,750 L-418,759 L-427,769 L-435,778 L-444,787 L-453,796 L-461,804 L-470,813 L-479,821 L-488,830 L-497,838 L-506,846 L-515,854 L-524,863 L-533,871 L-542,879 L-551,888 L-561,896 L-570,905 L-580,914 L-590,922 L-600,932 L-609,941 L-619,950 L-629,959 L-639,968 L-649,977 L-659,986 L-669,994 L-679,1003 L-689,1012 L-699,1021 L-709,1030 L-719,1039 L-729,1048 L-739,1057 L-749,1066 L-760,1075 L-770,1083 L-781,1091 L-791,1099 L-802,1108 L-813,1116 L-824,1124 L-835,1131 L-846,1139 L-857,1146 L-869,1153 L-880,1160 L-892,1166 L-903,1172 L-915,1178 L-927,1184 L-939,1189 L-951,1194 L-964,1199 L-976,1203 L125,481 L125,481 L125,481 L125,481 L125,481 L125,481 L125,481 L125,481 L125,481 L125,481 L125,481 L125,481 L125,481 L125,481 L125,481 L125,481 L125,481 L125,481 L125,481 L125,481 L125,481 L125,481 L125,481 L125,481 L125,481 L125,481 L125,481 L125,481 L125,481 L125,481 L125,481 L125,481 L125,481 L125,481 L125,481 L125,481 L125,481 L125,481 L125,481 L125,481 L125,481 L125,481 L125,481 L125,481 L125,481 L125,481 L125,481 L125,481 L125,481 L125,481 L125,481 L125,481 L125,481 L125,481 L125,481 L125,481 L125,481 L125,481 L125,481 L125,481 L125,481 L125,481 L125,481 L125,481 L125,481 L125,481 " fill="none" stroke="#dc2626" stroke-width="2" opacity="0.7" stroke-dasharray="6,3"/><path d="M120,461 L120,461 L120,461 L120,461 L120,461 L120,461 L120,461 L121,462 L121,462 L121,462 L121,462 L121,462 L121,462 L121,462 L121,462 L121,462 L121,462 L121,463 L121,463 L121,463 L121,463 L121,463 L121,463 L121,463 L121,463 L121,463 L121,464 L121,464 L121,464 L121,464 L121,464 L121,464 L121,464 L121,464 L121,464 L121,465 L121,465 L121,465 L121,465 L121,465 L121,465 L121,465 L121,465 L121,465 L121,466 L122,466 L122,466 L122,466 L122,466 L122,466 L122,466 L122,466 L122,466 L122,467 L122,467 L122,467 L122,467 L122,467 L122,467 L122,467 L122,467 L122,467 L122,468 L122,468 L122,468 L122,468 L122,468 L122,468 L122,468 L122,468 L122,468 L122,469 L122,469 L122,469 L122,469 L122,469 L122,469 L122,469 L122,469 L122,469 L122,469 L122,470 L122,470 L123,470 L123,470 L123,470 L123,470 L123,470 L123,470 L123,470 L123,471 L123,471 L123,471 L123,471 L123,471 L123,471 L123,471 L123,471 L123,471 L123,472 L123,472 L123,472 L123,472 L123,472 L123,472 L123,472 L123,472 L123,472 L123,473 L123,473 L123,473 L123,473 L123,473 L123,473 L123,473 L123,473 L123,473 L123,474 L123,474 L123,474 L123,474 L124,474 L124,474 L124,474 L124,474 L124,474 L124,475 L124,475 L124,475 L124,475 L124,475 L124,475 L124,475 L124,475 L124,475 L124,476 L124,476 L124,476 L124,476 L124,476 L124,476 L124,476 L124,476 L124,476 L124,477 L124,477 L125,485 L125,485 L125,485 L125,485 L125,485 L125,485 L125,485 L126,485 L126,485 L126,485 L126,486 L126,486 L126,486 L126,486 L126,486 L126,486 L126,486 L126,486 L126,486 L126,486 L126,486 L126,486 L126,486 L126,486 L126,486 L126,486 L126,486 L126,486 L126,486 L126,486 L126,486 L126,486 L126,487 L126,487 L126,487 L126,487 L126,487 L126,487 L126,487 L126,487 L126,487 L126,487 L126,487 L126,487 L126,487 L126,487 L126,487 L126,487 L126,487 L126,487 L126,487 L126,487 L126,487 L126,487 L126,487 L126,488 L126,488 L126,488 L126,488 L126,488 L126,488 L126,488 L126,488 L126,488 L126,488 L126,488 " fill="none" stroke="#16a34a" stroke-width="2" opacity="0.7" stroke-dasharray="3,3"/><path d="M290,339 L295,335 L299,332 L304,328 L308,325 L312,322 L316,319 L320,316 L323,313 L327,310 L330,307 L333,304 L336,302 L339,299 L341,296 L344,293 L346,290 L348,287 L350,284 L352,281 L353,278 L355,274 L356,271 L357,267 L358,263 L359,259 L360,256 L361,252 L363,248 L364,244 L365,240 L366,236 L367,232 L369,228 L370,224 L371,220 L373,216 L374,212 L375,208 L377,205 L378,201 L380,196 L381,192 L383,188 L384,184 L386,179 L388,175 L389,171 L391,166 L393,162 L394,157 L396,153 L398,149 L400,145 L402,141 L404,137 L406,134 L408,130 L410,127 L412,124 L414,121 L417,118 L419,116 L421,114 L424,113 L426,112 L428,112 L431,112 L433,113 L436,114 L439,116 L441,118 L444,120 L447,123 L450,125 L452,127 L455,129 L458,131 L461,132 L464,134 L467,135 L470,137 L473,138 L476,139 L479,141 L482,142 L485,144 L488,146 L491,148 L494,149 L497,151 L500,153 L503,154 L506,156 L509,157 L512,157 L515,158 L518,158 L522,159 L525,159 L528,159 L532,159 L535,159 L538,159 L541,159 L545,159 L548,159 L551,160 L554,160 L557,160 L560,161 L564,161 L567,161 L570,162 L573,162 L577,162 L580,162 L584,162 L587,162 L591,162 L595,162 L599,162 L602,161 L606,161 L610,161 L614,161 L617,160 L621,159 L625,157 L628,156 L632,155 L636,153 L639,151 L643,149 L646,147 L650,145 L653,142 L657,139 L660,135 L664,131 L667,127 L670,122 L673,117 L677,112 L680,107 L683,101 L125,484 L125,484 L125,484 L125,484 L125,484 L125,484 L125,485 L125,485 L125,485 L125,485 L125,485 L125,485 L125,485 L125,485 L125,485 L125,485 L125,485 L125,485 L126,485 L126,485 L126,486 L126,486 L126,486 L126,486 L126,486 L126,486 L126,486 L126,486 L126,486 L126,486 L126,486 L126,487 L126,487 L126,487 L126,487 L126,487 L126,487 L126,487 L126,487 L126,487 L126,487 L126,487 L126,488 L126,488 L126,488 L126,488 L126,488 L126,488 L126,488 L126,488 L126,488 L126,488 L126,489 L126,489 L126,489 L126,489 L126,489 L126,489 L126,489 L126,489 L126,489 L126,490 L126,490 L126,490 L126,490 L126,490 " fill="none" stroke="#ea580c" stroke-width="2" opacity="0.7" stroke-dasharray="8,3,2,3"/><circle cx="127" cy="500" r="4" fill="#2563eb" stroke="#2563eb"/><circle cx="123" cy="486" r="4" fill="#2563eb" stroke="#2563eb"/><circle cx="123" cy="484" r="4" fill="#2563eb" stroke="#2563eb"/><circle cx="123" cy="481" r="4" fill="#2563eb" stroke="#2563eb"/><circle cx="117" cy="430" r="4" fill="#2563eb" stroke="#2563eb"/><circle cx="119" cy="453" r="4" fill="#2563eb" stroke="#2563eb"/><circle cx="123" cy="472" r="4" fill="#2563eb" stroke="#2563eb"/><circle cx="123" cy="471" r="4" fill="#2563eb" stroke="#2563eb"/><circle cx="125" cy="482" r="4" fill="#2563eb" stroke="#2563eb"/><circle cx="125" cy="481" r="4" fill="#2563eb" stroke="#2563eb"/><circle cx="126" cy="486" r="4" fill="#2563eb" stroke="#2563eb"/><circle cx="126" cy="487" r="4" fill="#2563eb" stroke="#2563eb"/><circle cx="580" cy="530" r="4" fill="#2563eb"/>
<text x="590.0" y="534.0" class="label">GNSS fix</text><line x1="570.0" y1="546" x2="584.0" y2="546" stroke="#dc2626" stroke-width="2" stroke-dasharray="6,3"/>
<text x="590.0" y="550.0" class="label">IMU-only</text><line x1="570.0" y1="562" x2="584.0" y2="562" stroke="#16a34a" stroke-width="2" stroke-dasharray="3,3"/>
<text x="590.0" y="566.0" class="label">Linear</text><line x1="570.0" y1="578" x2="584.0" y2="578" stroke="#ea580c" stroke-width="2" stroke-dasharray="8,3,2,3"/>
<text x="590.0" y="582.0" class="label">EndpointConstrained</text>
</svg>