<svg xmlns="http://www.w3.org/2000/svg" viewBox="0 0 800 600" width="800" height="600">
<style>
  .title { font: bold 16px sans-serif; fill: #1f2937; }
  .desc { font: 12px sans-serif; fill: #6b7280; }
  .label { font: 10px monospace; fill: #374151; }
  .grid { stroke: #e5e7eb; stroke-width: 0.5; }
</style>
<rect width="800" height="600" fill="#fafafa" rx="4"/>
<text x="60" y="24" class="title">Mt. Tsukuba Hiking — Frequent gaps</text>
<text x="60" y="42" class="desc">Real data: 30 gaps in 59s window, 464 total DR points</text>
<line x1="60" y1="60.0" x2="740.0" y2="60.0" class="grid"/><line x1="60.0" y1="60" x2="60.0" y2="540.0" class="grid"/><line x1="60" y1="180.0" x2="740.0" y2="180.0" class="grid"/><line x1="230.0" y1="60" x2="230.0" y2="540.0" class="grid"/><line x1="60" y1="300.0" x2="740.0" y2="300.0" class="grid"/><line x1="400.0" y1="60" x2="400.0" y2="540.0" class="grid"/><line x1="60" y1="420.0" x2="740.0" y2="420.0" class="grid"/><line x1="570.0" y1="60" x2="570.0" y2="540.0" class="grid"/><line x1="60" y1="540.0" x2="740.0" y2="540.0" class="grid"/><line x1="740.0" y1="60" x2="740.0" y2="540.0" class="grid"/><path d="M148,159 L148,159 L147,159 L148,159 L148,159 L148,159 L148,159 L148,159 L158,148 L155,152 L158,148 L160,147 L160,147 L160,147 L160,147 L160,147 L143,159 L152,152 L148,155 L145,157 L143,158 L154,152 L150,154 L153,152 L154,151 L154,151 L154,151 L154,151 L121,170 L132,164 L122,170 L119,171 L118,172 L119,171 L147,156 L138,161 L147,156 L150,154 L150,154 L149,155 L149,155 L157,149 L154,151 L158,148 L157,148 L151,154 L153,152 L151,154 L150,154 L150,154 L148,156 L150,154 L149,156 L148,156 L148,157 L148,157 L148,156 L154,153 L158,152 L117,174 L133,118 L136,117 L140,107 L144,100 L146,101 L145,108 L142,121 L136,130 L148,155 L133,135 L159,152 L122,134 L159,152 L120,135 " fill="none" stroke="#2563eb" stroke-width="2" opacity="0.5"/><path d="M148,159 L148,159 L155,152 L143,159 L145,157 L150,154 L132,164 L119,171 L138,161 L157,149 L154,151 L151,154 L150,154 L154,153 L117,174 L117,174 L118,174 L118,174 L118,174 L118,174 L136,117 L136,117 L136,117 L136,117 L136,117 L136,117 L136,117 L136,117 L136,117 L136,117 L136,117 L136,117 L136,117 L136,117 L136,117 L136,117 L136,117 L136,117 L136,117 L136,117 L136,117 L136,117 L136,117 L136,117 L136,117 L136,117 L136,117 L136,117 L136,117 L136,117 L140,107 L140,107 L140,107 L140,107 L140,107 L140,107 L140,107 L140,107 L140,107 L140,107 L140,107 L140,107 L140,107 L140,107 L140,107 L140,107 L140,107 L140,107 L140,107 L140,107 L140,107 L140,107 L140,107 L140,107 L140,107 L140,107 L140,107 L140,107 L140,107 L140,107 L140,107 L140,107 L140,107 L140,107 L140,107 L140,107 L140,107 L140,107 L140,107 L140,107 L140,107 L140,107 L140,107 L140,107 L140,107 L140,107 L140,107 L140,107 L140,107 L140,107 L144,100 L144,100 L144,100 L144,100 L144,100 L144,100 L144,100 L144,100 L144,100 L144,100 L144,100 L144,100 L144,100 L144,100 L144,100 L144,100 L144,100 L144,100 L144,100 L144,100 L144,100 L144,100 L144,100 L144,100 L144,100 L144,100 L144,100 L144,100 L144,100 L144,100 L146,101 L146,101 L146,101 L146,101 L146,101 L146,101 L146,101 L146,101 L146,101 L146,101 L146,101 L146,101 L146,101 L146,101 L146,101 L146,101 L146,101 L146,101 L146,101 L146,101 L146,101 L146,101 L146,101 L146,101 L146,101 L146,101 L146,101 L146,101 L146,101 L146,101 L146,101 L146,101 L146,101 L146,101 L146,101 L146,101 L146,101 L146,101 L146,101 L146,101 L146,101 L146,101 L146,101 L146,101 L146,101 L146,101 L146,101 L145,108 L133,135 L133,135 L133,135 L133,135 L133,135 L133,135 L133,135 L133,135 L133,135 L133,135 L133,135 L133,135 L133,135 L133,135 L133,135 L133,135 L133,135 L133,135 L133,135 L133,135 L133,135 L133,135 L133,135 L133,135 L133,135 L133,135 L133,135 L133,135 L133,135 L133,135 L133,135 L133,135 L133,135 L133,135 L133,135 L133,135 L133,135 L133,135 L133,135 L133,135 L133,135 L133,135 L133,135 L133,135 L133,135 L133,135 L133,135 L133,135 L133,135 L133,135 L133,135 L133,135 L133,135 L133,135 L133,135 " fill="none" stroke="#dc2626" stroke-width="2" opacity="0.7" stroke-dasharray="6,3"/><path d="M147,159 L148,159 L159,148 L152,152 L143,158 L153,152 L122,170 L118,172 L147,156 L154,151 L158,148 L153,152 L150,154 L160,151 L133,120 L133,119 L133,119 L133,119 L133,119 L133,118 L136,116 L136,116 L136,116 L137,116 L137,116 L137,115 L137,115 L137,115 L137,115 L137,115 L137,114 L137,114 L137,114 L137,114 L137,114 L138,113 L138,113 L138,113 L138,113 L138,113 L138,112 L138,112 L138,112 L138,112 L138,112 L138,111 L138,111 L139,111 L139,111 L139,111 L141,106 L141,106 L141,106 L141,106 L141,106 L141,106 L141,105 L141,105 L141,105 L141,105 L141,105 L141,105 L142,105 L142,105 L142,104 L142,104 L142,104 L142,104 L142,104 L142,104 L142,104 L142,104 L142,103 L142,103 L142,103 L143,103 L143,103 L143,103 L143,103 L143,103 L143,102 L143,102 L143,102 L143,102 L143,102 L143,102 L143,102 L143,102 L144,101 L144,101 L144,101 L144,101 L144,101 L144,101 L144,101 L144,101 L144,100 L144,100 L144,100 L144,100 L144,100 L145,100 L145,100 L145,100 L145,100 L145,100 L145,100 L145,100 L145,100 L145,100 L145,100 L145,100 L145,100 L145,100 L145,100 L145,100 L145,100 L145,100 L145,100 L145,100 L145,100 L145,100 L145,100 L145,101 L145,101 L145,101 L146,101 L146,101 L146,101 L146,101 L146,101 L146,102 L146,102 L146,102 L146,102 L146,102 L146,102 L146,102 L146,103 L146,103 L146,103 L146,103 L146,103 L146,103 L146,103 L146,104 L146,104 L146,104 L146,104 L146,104 L146,104 L146,105 L146,105 L146,105 L146,105 L146,105 L146,105 L146,105 L146,106 L146,106 L146,106 L146,106 L146,106 L146,106 L146,106 L146,107 L145,107 L145,107 L145,107 L145,107 L145,107 L145,108 L145,108 L145,108 L145,108 L145,108 L145,108 L142,123 L152,147 L153,148 L155,149 L157,151 L159,152 L161,153 L163,154 L165,156 L166,157 L168,158 L170,159 L172,161 L174,162 L176,163 L178,164 L180,166 L182,167 L183,168 L185,169 L187,171 L189,172 L191,173 L193,174 L195,176 L197,177 L198,178 L200,179 L202,181 L204,182 L206,183 L208,184 L210,186 L212,187 L214,188 L215,189 L217,191 L219,192 L221,193 L223,194 L225,196 L227,197 L229,198 L230,199 L232,201 L234,202 L236,203 L238,204 L240,206 L242,207 L244,208 L245,209 L247,211 L249,212 L251,213 L253,214 " fill="none" stroke="#16a34a" stroke-width="2" opacity="0.7" stroke-dasharray="3,3"/><path d="M147,159 L148,159 L159,147 L152,152 L143,158 L153,152 L122,170 L118,172 L147,156 L154,151 L158,148 L153,152 L150,154 L162,150 L132,122 L132,121 L132,120 L133,120 L133,119 L133,118 L136,117 L136,117 L136,117 L136,117 L136,117 L136,117 L136,117 L136,117 L136,117 L136,116 L136,116 L136,116 L136,116 L136,116 L137,116 L137,116 L137,116 L137,116 L137,115 L137,115 L137,115 L137,115 L137,115 L137,114 L137,114 L137,114 L137,114 L137,114 L138,113 L138,113 L140,107 L140,107 L140,107 L140,106 L140,106 L141,106 L141,106 L141,106 L141,106 L141,106 L141,106 L141,106 L141,106 L141,106 L141,106 L141,106 L141,106 L141,106 L141,106 L141,105 L141,105 L141,105 L141,105 L141,105 L141,105 L142,105 L142,105 L142,104 L142,104 L142,104 L142,104 L142,104 L142,104 L142,103 L142,103 L143,103 L143,103 L143,103 L143,102 L143,102 L143,102 L143,102 L143,102 L144,101 L144,101 L144,101 L144,101 L144,100 L144,100 L144,100 L144,100 L144,100 L144,100 L144,100 L144,100 L144,100 L144,100 L144,100 L144,100 L144,100 L145,100 L145,100 L145,100 L145,100 L145,100 L145,100 L145,100 L145,100 L145,100 L145,100 L145,100 L145,100 L145,100 L145,100 L145,100 L145,100 L145,100 L145,100 L145,100 L145,100 L146,101 L146,101 L146,101 L146,101 L146,101 L146,101 L146,101 L146,101 L146,101 L146,101 L146,101 L146,102 L146,102 L146,102 L146,102 L146,102 L146,102 L146,102 L146,102 L146,102 L146,103 L146,103 L146,103 L146,103 L146,103 L146,103 L146,104 L146,104 L146,104 L146,104 L146,104 L146,104 L146,105 L146,105 L146,105 L146,105 L146,106 L146,106 L146,106 L146,106 L146,107 L145,107 L145,107 L145,107 L145,108 L145,108 L145,108 L141,125 L146,143 L149,145 L152,147 L155,149 L159,152 L162,154 L167,157 L171,160 L176,163 L181,166 L186,170 L191,173 L197,177 L203,181 L209,185 L216,190 L223,194 L230,199 L237,204 L245,209 L253,214 L261,220 L269,225 L278,231 L287,237 L296,243 L306,249 L316,256 L326,263 L336,269 L347,277 L358,284 L369,291 L381,299 L392,307 L404,315 L417,323 L429,331 L442,340 L455,349 L468,357 L482,366 L495,375 L510,385 L524,394 L539,404 L554,414 L569,424 L584,434 L601,445 L617,456 L633,466 L650,478 L666,489 L683,500 " fill="none" stroke="#ea580c" stroke-width="2" opacity="0.7" stroke-dasharray="8,3,2,3"/><circle cx="148" cy="159" r="4" fill="#2563eb" stroke="#2563eb"/><circle cx="148" cy="159" r="4" fill="#2563eb" stroke="#2563eb"/><circle cx="147" cy="159" r="4" fill="#2563eb" stroke="#2563eb"/><circle cx="148" cy="159" r="4" fill="#2563eb" stroke="#2563eb"/><circle cx="148" cy="159" r="4" fill="#2563eb" stroke="#2563eb"/><circle cx="148" cy="159" r="4" fill="#2563eb" stroke="#2563eb"/><circle cx="148" cy="159" r="4" fill="#2563eb" stroke="#2563eb"/><circle cx="148" cy="159" r="4" fill="#2563eb" stroke="#2563eb"/><circle cx="158" cy="148" r="4" fill="#2563eb" stroke="#2563eb"/><circle cx="155" cy="152" r="4" fill="#2563eb" stroke="#2563eb"/><circle cx="158" cy="148" r="4" fill="#2563eb" stroke="#2563eb"/><circle cx="160" cy="147" r="4" fill="#2563eb" stroke="#2563eb"/><circle cx="160" cy="147" r="4" fill="#2563eb" stroke="#2563eb"/><circle cx="160" cy="147" r="4" fill="#2563eb" stroke="#2563eb"/><circle cx="160" cy="147" r="4" fill="#2563eb" stroke="#2563eb"/><circle cx="160" cy="147" r="4" fill="#2563eb" stroke="#2563eb"/><circle cx="143" cy="159" r="4" fill="#2563eb" stroke="#2563eb"/><circle cx="152" cy="152" r="4" fill="#2563eb" stroke="#2563eb"/><circle cx="148" cy="155" r="4" fill="#2563eb" stroke="#2563eb"/><circle cx="145" cy="157" r="4" fill="#2563eb" stroke="#2563eb"/><circle cx="143" cy="158" r="4" fill="#2563eb" stroke="#2563eb"/><circle cx="154" cy="152" r="4" fill="#2563eb" stroke="#2563eb"/><circle cx="150" cy="154" r="4" fill="#2563eb" stroke="#2563eb"/><circle cx="153" cy="152" r="4" fill="#2563eb" stroke="#2563eb"/><circle cx="154" cy="151" r="4" fill="#2563eb" stroke="#2563eb"/><circle cx="154" cy="151" r="4" fill="#2563eb" stroke="#2563eb"/><circle cx="154" cy="151" r="4" fill="#2563eb" stroke="#2563eb"/><circle cx="154" cy="151" r="4" fill="#2563eb" stroke="#2563eb"/><circle cx="121" cy="170" r="4" fill="#2563eb" stroke="#2563eb"/><circle cx="132" cy="164" r="4" fill="#2563eb" stroke="#2563eb"/><circle cx="122" cy="170" r="4" fill="#2563eb" stroke="#2563eb"/><circle cx="119" cy="171" r="4" fill="#2563eb" stroke="#2563eb"/><circle cx="118" cy="172" r="4" fill="#2563eb" stroke="#2563eb"/><circle cx="119" cy="171" r="4" fill="#2563eb" stroke="#2563eb"/><circle cx="147" cy="156" r="4" fill="#2563eb" stroke="#2563eb"/><circle cx="138" cy="161" r="4" fill="#2563eb" stroke="#2563eb"/><circle cx="147" cy="156" r="4" fill="#2563eb" stroke="#2563eb"/><circle cx="150" cy="154" r="4" fill="#2563eb" stroke="#2563eb"/><circle cx="150" cy="154" r="4" fill="#2563eb" stroke="#2563eb"/><circle cx="149" cy="155" r="4" fill="#2563eb" stroke="#2563eb"/><circle cx="149" cy="155" r="4" fill="#2563eb" stroke="#2563eb"/><circle cx="157" cy="149" r="4" fill="#2563eb" stroke="#2563eb"/><circle cx="154" cy="151" r="4" fill="#2563eb" stroke="#2563eb"/><circle cx="158" cy="148" r="4" fill="#2563eb" stroke="#2563eb"/><circle cx="157" cy="148" r="4" fill="#2563eb" stroke="#2563eb"/><circle cx="151" cy="154" r="4" fill="#2563eb" stroke="#2563eb"/><circle cx="153" cy="152" r="4" fill="#2563eb" stroke="#2563eb"/><circle cx="151" cy="154" r="4" fill="#2563eb" stroke="#2563eb"/><circle cx="150" cy="154" r="4" fill="#2563eb" stroke="#2563eb"/><circle cx="150" cy="154" r="4" fill="#2563eb" stroke="#2563eb"/><circle cx="148" cy="156" r="4" fill="#2563eb" stroke="#2563eb"/><circle cx="150" cy="154" r="4" fill="#2563eb" stroke="#2563eb"/><circle cx="149" cy="156" r="4" fill="#2563eb" stroke="#2563eb"/><circle cx="148" cy="156" r="4" fill="#2563eb" stroke="#2563eb"/><circle cx="148" cy="157" r="4" fill="#2563eb" stroke="#2563eb"/><circle cx="148" cy="157" r="4" fill="#2563eb" stroke="#2563eb"/><circle cx="148" cy="156" r="4" fill="#2563eb" stroke="#2563eb"/><circle cx="154" cy="153" r="4" fill="#2563eb" stroke="#2563eb"/><circle cx="158" cy="152" r="4" fill="#2563eb" stroke="#2563eb"/><circle cx="117" cy="174" r="4" fill="#2563eb" stroke="#2563eb"/><circle cx="133" cy="118" r="4" fill="#2563eb" stroke="#2563eb"/><circle cx="136" cy="117" r="4" fill="#2563eb" stroke="#2563eb"/><circle cx="140" cy="107" r="4" fill="#2563eb" stroke="#2563eb"/><circle cx="144" cy="100" r="4" fill="#2563eb" stroke="#2563eb"/><circle cx="146" cy="101" r="4" fill="#2563eb" stroke="#2563eb"/><circle cx="145" cy="108" r="4" fill="#2563eb" stroke="#2563eb"/><circle cx="142" cy="121" r="4" fill="#2563eb" stroke="#2563eb"/><circle cx="136" cy="130" r="4" fill="#2563eb" stroke="#2563eb"/><circle cx="148" cy="155" r="4" fill="#2563eb" stroke="#2563eb"/><circle cx="133" cy="135" r="4" fill="#2563eb" stroke="#2563eb"/><circle cx="159" cy="152" r="4" fill="#2563eb" stroke="#2563eb"/><circle cx="122" cy="134" r="4" fill="#2563eb" stroke="#2563eb"/><circle cx="159" cy="152" r="4" fill="#2563eb" stroke="#2563eb"/><circle cx="120" cy="135" r="4" fill="#2563eb" stroke="#2563eb"/><circle cx="580" cy="530" r="4" fill="#2563eb"/>
<text x="590.0" y="534.0" class="label">GNSS fix</text><line x1="570.0" y1="546" x2="584.0" y2="546" stroke="#dc2626" stroke-width="2" stroke-dasharray="6,3"/>
<text x="590.0" y="550.0" class="label">IMU-only</text><line x1="570.0" y1="562" x2="584.0" y2="562" stroke="#16a34a" stroke-width="2" stroke-dasharray="3,3"/>
<text x="590.0" y="566.0" class="label">Linear</text><line x1="570.0" y1="578" x2="584.0" y2="578" stroke="#ea580c" stroke-width="2" stroke-dasharray="8,3,2,3"/>
<text x="590.0" y="582.0" class="label">EndpointConstrained</text>
</svg>