<svg xmlns="http://www.w3.org/2000/svg" viewBox="0 0 800 600" width="800" height="600">
<style>
  .title { font: bold 16px sans-serif; fill: #1f2937; }
  .desc { font: 12px sans-serif; fill: #6b7280; }
  .label { font: 10px monospace; fill: #374151; }
  .grid { stroke: #e5e7eb; stroke-width: 0.5; }
</style>
<rect width="800" height="600" fill="#fafafa" rx="4"/>
<text x="60" y="24" class="title">S-Curve</text>
<text x="60" y="42" class="desc">20 m/s with north→east→south turns during 15s GNSS outage</text>
<line x1="60" y1="60.0" x2="740.0" y2="60.0" class="grid"/><line x1="60.0" y1="60" x2="60.0" y2="540.0" class="grid"/><line x1="60" y1="180.0" x2="740.0" y2="180.0" class="grid"/><line x1="230.0" y1="60" x2="230.0" y2="540.0" class="grid"/><line x1="60" y1="300.0" x2="740.0" y2="300.0" class="grid"/><line x1="400.0" y1="60" x2="400.0" y2="540.0" class="grid"/><line x1="60" y1="420.0" x2="740.0" y2="420.0" class="grid"/><line x1="570.0" y1="60" x2="570.0" y2="540.0" class="grid"/><line x1="60" y1="540.0" x2="740.0" y2="540.0" class="grid"/><line x1="740.0" y1="60" x2="740.0" y2="540.0" class="grid"/><path d="M117,500 L117,439 L117,378 L683,500 " fill="none" stroke="#2563eb" stroke-width="2" opacity="0.5"/><path d="M117,377 L117,373 L117,368 L117,364 L117,360 L117,356 L117,351 L117,347 L117,343 L117,338 L117,334 L117,330 L117,326 L117,321 L117,317 L117,313 L117,308 L117,304 L117,300 L117,296 L117,291 L117,287 L117,283 L117,278 L117,274 L117,270 L117,266 L117,261 L117,257 L117,253 L117,248 L117,244 L117,240 L117,236 L117,231 L117,227 L117,223 L117,218 L117,214 L117,210 L117,206 L117,201 L117,197 L117,193 L117,188 L117,184 L117,180 L118,176 L118,171 L119,167 L120,163 L120,159 L121,155 L122,151 L124,147 L125,143 L126,139 L128,136 L129,132 L131,128 L132,125 L134,121 L136,118 L138,115 L140,112 L142,109 L144,106 L147,103 L149,101 L151,98 L154,96 L156,94 L159,91 L161,90 L164,88 L167,86 L169,85 L172,83 L175,82 L178,81 L181,80 L184,79 L187,79 L189,78 L192,78 L195,78 L198,78 L201,78 L204,78 L207,78 L210,78 L213,78 L216,78 L219,78 L222,78 L225,78 L228,78 L231,78 L233,78 L236,78 L239,78 L242,78 L245,78 L248,78 L251,78 L254,78 L257,78 L260,78 L263,78 L266,78 L269,78 L272,78 L275,78 L277,78 L280,78 L283,78 L286,78 L289,78 L292,78 L295,78 L298,78 L301,78 L304,78 L307,78 L310,78 L313,78 L316,78 L319,78 L321,78 L324,78 L327,78 L330,79 L333,79 L336,80 L339,81 L342,82 L345,83 L347,84 L350,85 L353,87 L356,89 L358,91 L361,93 L363,95 L366,97 L368,99 L371,102 L373,105 L375,107 L377,110 L379,113 L381,116 L383,120 L385,123 L387,126 L389,130 L390,133 L392,137 L393,141 L395,145 L396,149 L397,153 L398,157 L399,161 L400,165 L400,169 L401,173 L401,177 L402,182 L402,186 L402,190 L402,194 L402,199 L402,203 L402,207 L402,212 L402,216 L402,220 L402,224 L402,229 L402,233 L402,237 L402,242 L402,246 L402,250 L402,254 L402,259 L402,263 L402,267 L402,272 L402,276 L402,280 L402,284 L402,289 L402,293 L402,297 L402,302 L402,306 L402,310 L402,314 L402,319 L402,323 L402,327 L402,332 L402,336 L402,340 L402,344 L402,349 L402,353 L402,357 L402,362 L402,366 L402,370 L402,374 L402,379 " fill="none" stroke="#dc2626" stroke-width="2" opacity="0.7" stroke-dasharray="6,3"/><path d="M152,385 L155,386 L157,386 L160,387 L162,387 L165,388 L167,389 L170,389 L172,390 L175,390 L177,391 L180,391 L182,392 L185,392 L187,393 L190,393 L192,394 L195,394 L197,395 L200,395 L202,396 L205,397 L207,397 L209,398 L212,398 L214,399 L217,399 L219,400 L222,400 L224,401 L227,401 L229,402 L232,402 L234,403 L237,404 L239,404 L242,405 L244,405 L247,406 L249,406 L252,407 L254,407 L257,408 L259,408 L262,409 L264,409 L266,410 L269,410 L271,411 L274,412 L276,412 L279,413 L281,413 L284,414 L286,414 L289,415 L291,415 L294,416 L296,416 L299,417 L301,417 L304,418 L306,419 L309,419 L311,420 L314,420 L316,421 L319,421 L321,422 L324,422 L326,423 L328,423 L331,424 L333,424 L336,425 L338,425 L341,426 L343,427 L346,427 L348,428 L351,428 L353,429 L356,429 L358,430 L361,430 L363,431 L366,431 L368,432 L371,432 L373,433 L376,434 L378,434 L381,435 L383,435 L385,436 L388,436 L390,437 L393,437 L395,438 L398,438 L400,439 L403,439 L405,440 L408,440 L410,441 L413,442 L415,442 L418,443 L420,443 L423,444 L425,444 L428,445 L430,445 L433,446 L435,446 L438,447 L440,447 L443,448 L445,449 L447,449 L450,450 L452,450 L455,451 L457,451 L460,452 L462,452 L465,453 L467,453 L470,454 L472,454 L475,455 L477,455 L480,456 L482,457 L485,457 L487,458 L490,458 L492,459 L495,459 L497,460 L500,460 L502,461 L504,461 L507,462 L509,462 L512,463 L514,463 L517,464 L519,465 L522,465 L524,466 L527,466 L529,467 L532,467 L534,468 L537,468 L539,469 L542,469 L544,470 L547,470 L549,471 L552,472 L554,472 L557,473 L559,473 L562,474 L564,474 L566,475 L569,475 L571,476 L574,476 L576,477 L579,477 L581,478 L584,478 L586,479 L589,480 L591,480 L594,481 L596,481 L599,482 L601,482 L604,483 L606,483 L609,484 L611,484 L614,485 L616,485 L619,486 L621,487 L623,487 L626,488 L628,488 L631,489 L633,489 L636,490 L638,490 L641,491 L643,491 L646,492 L648,492 L651,493 L653,493 L656,494 L658,495 L661,495 L663,496 L666,496 L668,497 L671,497 L673,498 L676,498 L678,499 L681,499 L683,500 " fill="none" stroke="#16a34a" stroke-width="2" opacity="0.7" stroke-dasharray="3,3"/><path d="M118,377 L118,373 L118,369 L118,365 L118,361 L119,356 L119,352 L119,348 L119,344 L120,340 L120,335 L120,331 L120,327 L121,323 L121,319 L121,315 L122,311 L122,306 L122,302 L123,298 L123,294 L123,290 L124,286 L124,282 L125,278 L125,273 L125,269 L126,265 L126,261 L127,257 L127,253 L128,249 L128,245 L129,241 L129,237 L130,233 L130,229 L131,225 L131,220 L132,216 L133,212 L133,208 L134,204 L134,200 L135,196 L136,192 L137,188 L138,184 L139,180 L141,177 L142,173 L143,169 L145,165 L147,161 L149,158 L151,154 L153,151 L155,147 L157,144 L160,141 L162,138 L165,135 L168,132 L170,129 L173,126 L176,123 L179,121 L182,119 L186,116 L189,114 L192,112 L196,110 L199,109 L203,107 L206,106 L210,105 L214,103 L217,102 L221,102 L225,101 L229,101 L233,100 L237,100 L241,100 L245,100 L249,100 L253,101 L257,101 L261,102 L265,102 L269,103 L273,103 L277,104 L281,104 L285,105 L289,105 L293,106 L297,106 L302,107 L306,108 L310,108 L314,109 L318,109 L323,110 L327,110 L331,111 L335,111 L339,112 L344,113 L348,113 L352,114 L356,114 L361,115 L365,115 L369,116 L374,117 L378,117 L382,118 L387,119 L391,119 L395,120 L400,120 L404,121 L409,122 L413,122 L418,123 L422,124 L426,124 L431,125 L435,126 L440,127 L444,128 L449,129 L453,130 L458,132 L462,133 L467,135 L471,137 L476,139 L480,141 L484,144 L489,146 L493,149 L497,152 L501,155 L505,158 L509,161 L514,165 L518,168 L521,172 L525,176 L529,180 L533,184 L536,188 L540,192 L544,196 L547,201 L550,205 L554,210 L557,214 L560,219 L563,224 L566,228 L569,233 L571,238 L574,243 L576,248 L579,253 L581,258 L583,264 L586,269 L588,274 L590,279 L592,284 L594,289 L596,294 L598,300 L600,305 L602,310 L604,315 L606,320 L608,326 L610,331 L612,336 L614,341 L617,346 L619,352 L621,357 L623,362 L625,367 L627,372 L630,378 L632,383 L634,388 L636,393 L638,399 L641,404 L643,409 L645,414 L647,420 L650,425 L652,430 L654,435 L657,441 L659,446 L661,451 L664,457 L666,462 L668,467 L671,473 L673,478 L676,483 L678,489 L681,494 L683,499 " fill="none" stroke="#ea580c" stroke-width="2" opacity="0.7" stroke-dasharray="8,3,2,3"/><circle cx="117" cy="500" r="4" fill="#2563eb" stroke="#2563eb"/><circle cx="117" cy="439" r="4" fill="#2563eb" stroke="#2563eb"/><circle cx="117" cy="378" r="4" fill="#2563eb" stroke="#2563eb"/><circle cx="683" cy="500" r="4" fill="#2563eb" stroke="#2563eb"/><circle cx="580" cy="530" r="4" fill="#2563eb"/>
<text x="590.0" y="534.0" class="label">GNSS fix</text><line x1="570.0" y1="546" x2="584.0" y2="546" stroke="#dc2626" stroke-width="2" stroke-dasharray="6,3"/>
<text x="590.0" y="550.0" class="label">IMU-only</text><line x1="570.0" y1="562" x2="584.0" y2="562" stroke="#16a34a" stroke-width="2" stroke-dasharray="3,3"/>
<text x="590.0" y="566.0" class="label">Linear</text><line x1="570.0" y1="578" x2="584.0" y2="578" stroke="#ea580c" stroke-width="2" stroke-dasharray="8,3,2,3"/>
<text x="590.0" y="582.0" class="label">EndpointConstrained</text>
</svg>