<svg xmlns="http://www.w3.org/2000/svg" viewBox="0 0 800 600" width="800" height="600">
<style>
  .title { font: bold 16px sans-serif; fill: #1f2937; }
  .desc { font: 12px sans-serif; fill: #6b7280; }
  .label { font: 10px monospace; fill: #374151; }
  .grid { stroke: #e5e7eb; stroke-width: 0.5; }
</style>
<rect width="800" height="600" fill="#fafafa" rx="4"/>
<text x="60" y="24" class="title">S-Curve</text>
<text x="60" y="42" class="desc">20 m/s with north→east→south turns during 15s GNSS outage</text>
<line x1="60" y1="60.0" x2="740.0" y2="60.0" class="grid"/><line x1="60.0" y1="60" x2="60.0" y2="540.0" class="grid"/><line x1="60" y1="180.0" x2="740.0" y2="180.0" class="grid"/><line x1="230.0" y1="60" x2="230.0" y2="540.0" class="grid"/><line x1="60" y1="300.0" x2="740.0" y2="300.0" class="grid"/><line x1="400.0" y1="60" x2="400.0" y2="540.0" class="grid"/><line x1="60" y1="420.0" x2="740.0" y2="420.0" class="grid"/><line x1="570.0" y1="60" x2="570.0" y2="540.0" class="grid"/><line x1="60" y1="540.0" x2="740.0" y2="540.0" class="grid"/><line x1="740.0" y1="60" x2="740.0" y2="540.0" class="grid"/><path d="M117,443 L117,312 L117,181 L683,443 " fill="none" stroke="#2563eb" stroke-width="2" opacity="0.5"/><path d="M117,179 L117,175 L117,171 L117,167 L117,164 L117,160 L117,156 L117,152 L117,148 L117,144 L117,140 L117,136 L117,132 L117,128 L117,124 L117,120 L117,116 L117,115 L117,115 L117,115 L117,115 L117,115 L117,115 L117,115 L117,115 L117,115 L118,115 L118,115 L118,115 L118,115 L119,115 L119,115 L119,116 L119,116 L120,116 L120,116 L121,116 L121,116 L121,117 L122,117 L122,117 L123,117 L123,118 L124,118 L124,119 L125,119 L125,119 L126,120 L126,120 L127,121 L128,121 L128,122 L129,123 L130,123 L130,124 L131,125 L132,125 L133,126 L133,127 L134,128 L135,129 L136,130 L137,131 L137,132 L138,133 L139,134 L140,135 L141,136 L142,137 L143,139 L144,140 L145,141 L146,143 L147,144 L147,146 L148,147 L149,149 L151,151 L152,152 L153,154 L154,156 L155,158 L156,160 L157,162 L158,164 L159,166 L160,168 L161,170 L162,172 L164,175 L165,177 L166,179 L167,182 L168,185 L169,187 L171,190 L172,192 L173,195 L174,198 L175,201 L177,204 L178,207 L179,210 L180,213 L181,216 L183,220 L184,223 L185,226 L186,230 L188,233 L189,237 L190,240 L191,244 L193,248 L194,252 L195,256 L196,259 L198,263 L199,267 L200,271 L201,275 L203,279 L204,283 L205,287 L206,291 L208,295 L209,299 L210,303 L211,307 L213,311 L214,315 L215,319 L216,323 L217,325 L217,325 L217,326 L217,326 L217,326 L217,326 L217,327 L217,327 L217,328 L217,328 L217,329 L217,329 L217,330 L217,331 L217,332 L217,333 L217,334 L217,335 L217,336 L217,337 L217,338 L217,340 L217,341 L216,342 L216,344 L216,345 L216,347 L216,348 L216,350 L216,352 L216,354 L216,355 L215,357 L215,359 L215,361 L215,363 L215,365 L214,368 L214,370 L214,372 L214,374 L213,377 L213,379 L213,382 L213,384 L212,387 L212,389 L212,392 L211,395 L211,397 L211,400 L210,403 L210,406 L209,409 L209,412 L208,415 L208,418 L207,421 L207,424 L206,427 L206,430 L205,433 L205,437 L204,440 L204,443 L203,447 L202,450 L202,453 L201,457 L200,460 L200,464 L199,467 L198,471 L198,474 L197,478 L196,482 L195,485 L194,489 L194,493 L193,496 L192,500 L191,504 L190,508 L189,511 L188,515 L187,519 L186,523 L185,527 L184,530 L183,534 L182,538 L181,542 L180,546 L179,550 L177,554 L176,558 L175,562 L174,565 L173,569 L171,573 L170,577 L169,581 L168,585 L166,589 L165,593 L164,597 L163,601 L161,605 L160,608 L159,612 L157,616 L156,620 L155,624 L154,628 L152,632 L151,636 L150,640 " fill="none" stroke="#dc2626" stroke-width="2" opacity="0.7" stroke-dasharray="6,3"/><path d="M152,197 L154,198 L155,198 L156,199 L157,199 L158,200 L159,200 L160,201 L161,201 L162,202 L163,202 L164,203 L165,203 L166,204 L167,204 L168,205 L169,205 L259,247 L260,247 L262,248 L263,248 L264,249 L265,249 L266,250 L267,250 L268,251 L269,251 L270,252 L271,252 L272,253 L273,253 L274,254 L275,254 L276,255 L277,255 L279,256 L280,256 L281,257 L282,257 L283,258 L284,258 L285,259 L286,259 L287,260 L288,260 L289,261 L290,261 L291,262 L292,262 L293,263 L294,263 L296,264 L297,264 L298,265 L299,265 L300,266 L301,266 L302,267 L303,267 L304,267 L305,268 L306,268 L307,269 L308,269 L309,270 L310,270 L311,271 L313,271 L314,272 L315,272 L316,273 L317,273 L318,274 L319,274 L320,275 L321,275 L322,276 L323,276 L324,277 L325,277 L326,278 L327,278 L328,279 L330,279 L331,280 L332,280 L333,281 L334,281 L335,282 L336,282 L337,283 L338,283 L339,284 L340,284 L341,285 L342,285 L343,286 L344,286 L345,287 L347,287 L348,288 L349,288 L350,289 L351,289 L352,290 L353,290 L354,291 L355,291 L356,292 L357,292 L358,293 L359,293 L360,294 L361,294 L362,295 L364,295 L365,296 L366,296 L367,297 L368,297 L369,298 L370,298 L371,299 L372,299 L373,300 L374,300 L375,301 L376,301 L377,302 L378,302 L379,302 L381,303 L382,303 L472,345 L473,346 L474,346 L475,347 L476,347 L477,348 L478,348 L479,349 L480,349 L481,350 L482,350 L483,351 L484,351 L485,352 L486,352 L487,353 L489,353 L490,354 L491,354 L492,355 L493,355 L494,356 L495,356 L496,357 L497,357 L498,358 L499,358 L500,359 L501,359 L502,359 L503,360 L504,360 L506,361 L507,361 L508,362 L509,362 L510,363 L511,363 L512,364 L513,364 L514,365 L515,365 L516,366 L517,366 L518,367 L519,367 L520,368 L521,368 L523,369 L524,369 L525,370 L526,370 L527,371 L528,371 L529,372 L530,372 L531,373 L532,373 L533,374 L534,374 L535,375 L536,375 L537,376 L538,376 L540,377 L541,377 L542,378 L543,378 L544,379 L545,379 L546,380 L547,380 L548,381 L549,381 L550,382 L551,382 L552,383 L553,383 L554,384 L555,384 L557,385 L558,385 L559,386 L560,386 L561,387 L562,387 L563,388 L564,388 L565,389 L566,389 L567,390 L568,390 L569,391 L570,391 L571,392 L572,392 L574,393 L575,393 L576,394 L577,394 L578,394 L579,395 L580,395 L581,396 L582,396 L583,397 L584,397 L585,398 L586,398 L587,399 L588,399 L589,400 L591,400 L592,401 L593,401 L594,402 L595,402 " fill="none" stroke="#16a34a" stroke-width="2" opacity="0.7" stroke-dasharray="3,3"/><path d="M119,178 L119,175 L119,171 L119,167 L119,163 L119,159 L120,155 L120,151 L120,147 L120,143 L120,139 L120,135 L121,131 L121,127 L121,123 L121,118 L121,114 L151,102 L151,102 L152,102 L152,102 L153,102 L153,102 L154,101 L155,101 L155,101 L156,101 L157,101 L158,101 L158,100 L159,100 L160,100 L161,100 L162,100 L163,100 L164,100 L165,100 L166,100 L167,100 L168,100 L169,100 L170,100 L171,100 L172,100 L173,101 L174,101 L175,101 L177,101 L178,101 L179,102 L180,102 L182,102 L183,103 L184,103 L185,104 L187,104 L188,105 L190,105 L191,106 L192,106 L194,107 L195,108 L197,108 L198,109 L200,110 L201,111 L203,112 L205,113 L206,114 L208,115 L209,116 L211,117 L213,118 L214,119 L216,120 L218,122 L220,123 L221,125 L223,126 L225,127 L227,129 L228,131 L230,132 L232,134 L234,136 L236,138 L238,139 L240,141 L241,143 L243,145 L245,147 L247,150 L249,152 L251,154 L253,156 L255,159 L257,161 L259,164 L261,166 L263,169 L265,171 L267,174 L269,177 L271,180 L273,183 L275,185 L277,188 L280,192 L282,195 L284,198 L286,201 L288,204 L290,208 L292,211 L294,215 L296,218 L298,222 L301,226 L303,229 L305,233 L307,236 L309,240 L311,244 L313,247 L316,251 L318,255 L320,258 L322,262 L324,265 L326,269 L329,273 L331,276 L333,280 L426,248 L428,248 L429,248 L430,247 L431,247 L433,247 L434,247 L435,247 L436,247 L438,247 L439,247 L440,247 L442,248 L443,248 L444,248 L445,249 L447,249 L448,250 L449,250 L450,251 L452,252 L453,253 L454,253 L455,254 L457,255 L458,256 L459,257 L460,258 L462,260 L463,261 L464,262 L465,263 L467,265 L468,266 L469,268 L470,269 L471,271 L473,273 L474,274 L475,276 L476,278 L477,280 L478,282 L479,283 L481,285 L482,288 L483,290 L484,292 L485,294 L486,296 L487,298 L488,301 L489,303 L490,305 L491,308 L492,310 L493,313 L494,315 L495,318 L496,320 L497,323 L498,326 L499,328 L500,331 L501,334 L502,337 L502,339 L503,342 L504,345 L505,348 L506,351 L507,354 L507,357 L508,360 L509,363 L510,366 L510,369 L511,372 L512,375 L513,379 L513,382 L514,385 L515,388 L515,391 L516,395 L516,398 L517,401 L517,404 L518,408 L519,411 L519,414 L520,417 L520,421 L521,424 L521,427 L521,431 L522,434 L522,437 L523,441 L523,444 L523,447 L524,450 L524,454 L524,457 L525,460 L525,464 L526,467 L526,470 L526,474 L527,477 L527,480 L528,484 L528,487 L528,490 L529,493 L529,497 L530,500 " fill="none" stroke="#ea580c" stroke-width="2" opacity="0.7" stroke-dasharray="8,3,2,3"/><circle cx="117" cy="443" r="4" fill="#2563eb" stroke="#2563eb"/><circle cx="117" cy="312" r="4" fill="#2563eb" stroke="#2563eb"/><circle cx="117" cy="181" r="4" fill="#2563eb" stroke="#2563eb"/><circle cx="683" cy="443" r="4" fill="#2563eb" stroke="#2563eb"/><circle cx="580" cy="530" r="4" fill="#2563eb"/>
<text x="590.0" y="534.0" class="label">GNSS fix</text><line x1="570.0" y1="546" x2="584.0" y2="546" stroke="#dc2626" stroke-width="2" stroke-dasharray="6,3"/>
<text x="590.0" y="550.0" class="label">IMU-only</text><line x1="570.0" y1="562" x2="584.0" y2="562" stroke="#16a34a" stroke-width="2" stroke-dasharray="3,3"/>
<text x="590.0" y="566.0" class="label">Linear</text><line x1="570.0" y1="578" x2="584.0" y2="578" stroke="#ea580c" stroke-width="2" stroke-dasharray="8,3,2,3"/>
<text x="590.0" y="582.0" class="label">EndpointConstrained</text>
</svg>