<svg xmlns="http://www.w3.org/2000/svg" viewBox="0 0 800 600" width="800" height="600">
<style>
  .title { font: bold 16px sans-serif; fill: #1f2937; }
  .desc { font: 12px sans-serif; fill: #6b7280; }
  .label { font: 10px monospace; fill: #374151; }
  .grid { stroke: #e5e7eb; stroke-width: 0.5; }
</style>
<rect width="800" height="600" fill="#fafafa" rx="4"/>
<text x="60" y="24" class="title">S-Curve</text>
<text x="60" y="42" class="desc">20 m/s with north→east→south turns during 15s GNSS outage</text>
<line x1="60" y1="60.0" x2="740.0" y2="60.0" class="grid"/><line x1="60.0" y1="60" x2="60.0" y2="540.0" class="grid"/><line x1="60" y1="180.0" x2="740.0" y2="180.0" class="grid"/><line x1="230.0" y1="60" x2="230.0" y2="540.0" class="grid"/><line x1="60" y1="300.0" x2="740.0" y2="300.0" class="grid"/><line x1="400.0" y1="60" x2="400.0" y2="540.0" class="grid"/><line x1="60" y1="420.0" x2="740.0" y2="420.0" class="grid"/><line x1="570.0" y1="60" x2="570.0" y2="540.0" class="grid"/><line x1="60" y1="540.0" x2="740.0" y2="540.0" class="grid"/><line x1="740.0" y1="60" x2="740.0" y2="540.0" class="grid"/><path d="M117,500 L117,442 L117,384 L683,500 " fill="none" stroke="#2563eb" stroke-width="2" opacity="0.5"/><path d="M117,383 L117,379 L117,375 L117,371 L117,367 L117,363 L117,359 L117,355 L117,351 L117,347 L117,343 L117,339 L117,335 L117,331 L117,327 L117,323 L117,319 L117,314 L117,310 L117,306 L117,302 L117,298 L117,294 L117,290 L117,286 L117,282 L117,278 L117,274 L117,270 L117,266 L117,262 L117,258 L117,254 L117,250 L117,246 L117,241 L117,237 L117,233 L117,229 L117,225 L117,221 L117,217 L117,213 L117,209 L117,205 L117,201 L117,197 L118,193 L118,189 L119,185 L120,181 L120,177 L121,173 L122,169 L124,166 L125,162 L126,158 L128,155 L129,151 L131,148 L132,145 L134,141 L136,138 L138,135 L140,132 L142,130 L144,127 L147,124 L149,122 L151,119 L154,117 L156,115 L159,113 L161,111 L164,110 L167,108 L169,107 L172,105 L175,104 L178,103 L181,102 L184,101 L187,101 L189,100 L192,100 L195,100 L198,100 L201,100 L204,100 L207,100 L210,100 L213,100 L216,100 L219,100 L222,100 L225,100 L228,100 L231,100 L233,100 L236,100 L239,100 L242,100 L245,100 L248,100 L251,100 L254,100 L257,100 L260,100 L263,100 L266,100 L269,100 L272,100 L275,100 L277,100 L280,100 L283,100 L286,100 L289,100 L292,100 L295,100 L298,100 L301,100 L304,100 L307,100 L310,100 L313,100 L316,100 L319,100 L321,100 L324,100 L327,101 L330,101 L333,101 L336,102 L339,103 L342,104 L345,105 L347,106 L350,107 L353,109 L356,111 L358,112 L361,114 L363,116 L366,118 L368,121 L371,123 L373,125 L375,128 L377,131 L379,134 L381,137 L383,140 L385,143 L387,146 L389,149 L390,153 L392,156 L393,160 L395,164 L396,167 L397,171 L398,175 L399,179 L400,183 L400,186 L401,190 L401,194 L402,198 L402,202 L402,207 L402,211 L402,215 L402,219 L402,223 L402,227 L402,231 L402,235 L402,239 L402,243 L402,247 L402,251 L402,255 L402,259 L402,263 L402,267 L402,271 L402,276 L402,280 L402,284 L402,288 L402,292 L402,296 L402,300 L402,304 L402,308 L402,312 L402,316 L402,320 L402,324 L402,328 L402,332 L402,336 L402,340 L402,345 L402,349 L402,353 L402,357 L402,361 L402,365 L402,369 L402,373 L402,377 L402,381 L402,385 " fill="none" stroke="#dc2626" stroke-width="2" opacity="0.7" stroke-dasharray="6,3"/><path d="M152,391 L155,392 L157,392 L160,393 L162,393 L165,394 L167,394 L170,395 L172,395 L175,396 L177,396 L180,397 L182,397 L185,398 L187,398 L190,399 L192,399 L195,400 L197,401 L200,401 L202,402 L205,402 L207,403 L209,403 L212,404 L214,404 L217,405 L219,405 L222,406 L224,406 L227,407 L229,407 L232,408 L234,408 L237,409 L239,409 L242,410 L244,410 L247,411 L249,411 L252,412 L254,412 L257,413 L259,413 L262,414 L264,414 L266,415 L269,415 L271,416 L274,416 L276,417 L279,417 L281,418 L284,418 L286,419 L289,419 L291,420 L294,420 L296,421 L299,421 L301,422 L304,422 L306,423 L309,423 L311,424 L314,424 L316,425 L319,425 L321,426 L324,426 L326,427 L328,427 L331,428 L333,428 L336,429 L338,429 L341,430 L343,430 L346,431 L348,431 L351,432 L353,432 L356,433 L358,433 L361,434 L363,434 L366,435 L368,436 L371,436 L373,437 L376,437 L378,438 L381,438 L383,439 L385,439 L388,440 L390,440 L393,441 L395,441 L398,442 L400,442 L403,443 L405,443 L408,444 L410,444 L413,445 L415,445 L418,446 L420,446 L423,447 L425,447 L428,448 L430,448 L433,449 L435,449 L438,450 L440,450 L443,451 L445,451 L447,452 L450,452 L452,453 L455,453 L457,454 L460,454 L462,455 L465,455 L467,456 L470,456 L472,457 L475,457 L477,458 L480,458 L482,459 L485,459 L487,460 L490,460 L492,461 L495,461 L497,462 L500,462 L502,463 L504,463 L507,464 L509,464 L512,465 L514,465 L517,466 L519,466 L522,467 L524,467 L527,468 L529,468 L532,469 L534,469 L537,470 L539,471 L542,471 L544,472 L547,472 L549,473 L552,473 L554,474 L557,474 L559,475 L562,475 L564,476 L566,476 L569,477 L571,477 L574,478 L576,478 L579,479 L581,479 L584,480 L586,480 L589,481 L591,481 L594,482 L596,482 L599,483 L601,483 L604,484 L606,484 L609,485 L611,485 L614,486 L616,486 L619,487 L621,487 L623,488 L626,488 L628,489 L631,489 L633,490 L636,490 L638,491 L641,491 L643,492 L646,492 L648,493 L651,493 L653,494 L656,494 L658,495 L661,495 L663,496 L666,496 L668,497 L671,497 L673,498 L676,498 L678,499 L681,499 L683,500 " fill="none" stroke="#16a34a" stroke-width="2" opacity="0.7" stroke-dasharray="3,3"/><path d="M118,384 L118,380 L118,376 L118,372 L118,368 L119,364 L119,360 L119,356 L119,352 L120,348 L120,344 L120,340 L120,336 L121,332 L121,328 L121,325 L122,321 L122,317 L122,313 L123,309 L123,305 L123,301 L124,297 L124,293 L125,289 L125,285 L125,282 L126,278 L126,274 L127,270 L127,266 L128,262 L128,258 L129,254 L129,251 L130,247 L130,243 L131,239 L131,235 L132,231 L133,228 L133,224 L134,220 L134,216 L135,212 L136,209 L137,205 L138,201 L139,197 L141,194 L142,190 L143,186 L145,183 L147,179 L149,176 L151,173 L153,169 L155,166 L157,163 L160,160 L162,157 L165,154 L168,151 L170,148 L173,146 L176,143 L179,141 L182,139 L186,137 L189,135 L192,133 L196,131 L199,129 L203,128 L206,127 L210,125 L214,124 L217,124 L221,123 L225,122 L229,122 L233,121 L237,121 L241,121 L245,121 L249,122 L253,122 L257,123 L261,123 L265,123 L269,124 L273,124 L277,125 L281,125 L285,126 L289,126 L293,127 L297,127 L302,128 L306,128 L310,129 L314,129 L318,130 L323,130 L327,131 L331,131 L335,132 L339,132 L344,133 L348,134 L352,134 L356,135 L361,135 L365,136 L369,136 L374,137 L378,138 L382,138 L387,139 L391,139 L395,140 L400,141 L404,141 L409,142 L413,142 L418,143 L422,144 L426,144 L431,145 L435,146 L440,146 L444,147 L449,148 L453,150 L458,151 L462,153 L467,154 L471,156 L476,158 L480,160 L484,163 L489,165 L493,168 L497,170 L501,173 L505,176 L509,179 L514,183 L518,186 L521,189 L525,193 L529,197 L533,200 L536,204 L540,208 L544,212 L547,216 L550,221 L554,225 L557,229 L560,234 L563,238 L566,243 L569,248 L571,252 L574,257 L576,262 L579,266 L581,271 L583,276 L586,281 L588,286 L590,291 L592,296 L594,300 L596,305 L598,310 L600,315 L602,320 L604,325 L606,330 L608,335 L610,340 L612,345 L614,350 L617,354 L619,359 L621,364 L623,369 L625,374 L627,379 L630,384 L632,389 L634,394 L636,399 L638,404 L641,409 L643,414 L645,419 L647,424 L650,429 L652,434 L654,439 L657,444 L659,449 L661,454 L664,459 L666,464 L668,469 L671,474 L673,479 L676,484 L678,489 L681,494 L683,499 " fill="none" stroke="#ea580c" stroke-width="2" opacity="0.7" stroke-dasharray="8,3,2,3"/><circle cx="117" cy="500" r="4" fill="#2563eb" stroke="#2563eb"/><circle cx="117" cy="442" r="4" fill="#2563eb" stroke="#2563eb"/><circle cx="117" cy="384" r="4" fill="#2563eb" stroke="#2563eb"/><circle cx="683" cy="500" r="4" fill="#2563eb" stroke="#2563eb"/><circle cx="580" cy="530" r="4" fill="#2563eb"/>
<text x="590.0" y="534.0" class="label">GNSS fix</text><line x1="570.0" y1="546" x2="584.0" y2="546" stroke="#dc2626" stroke-width="2" stroke-dasharray="6,3"/>
<text x="590.0" y="550.0" class="label">Raw DR</text><line x1="570.0" y1="562" x2="584.0" y2="562" stroke="#16a34a" stroke-width="2" stroke-dasharray="3,3"/>
<text x="590.0" y="566.0" class="label">Linear</text><line x1="570.0" y1="578" x2="584.0" y2="578" stroke="#ea580c" stroke-width="2" stroke-dasharray="8,3,2,3"/>
<text x="590.0" y="582.0" class="label">EndpointConstrained</text>
</svg>