<svg xmlns="http://www.w3.org/2000/svg" viewBox="0 0 800 600" width="800" height="600">
<style>
  .title { font: bold 16px sans-serif; fill: #1f2937; }
  .desc { font: 12px sans-serif; fill: #6b7280; }
  .label { font: 10px monospace; fill: #374151; }
  .grid { stroke: #e5e7eb; stroke-width: 0.5; }
</style>
<rect width="800" height="600" fill="#fafafa" rx="4"/>
<text x="60" y="24" class="title">Tunnel Traverse</text>
<text x="60" y="42" class="desc">60s GNSS outage at 72 km/h east — IMU coasting through tunnel</text>
<line x1="60" y1="60.0" x2="740.0" y2="60.0" class="grid"/><line x1="60.0" y1="60" x2="60.0" y2="540.0" class="grid"/><line x1="60" y1="180.0" x2="740.0" y2="180.0" class="grid"/><line x1="230.0" y1="60" x2="230.0" y2="540.0" class="grid"/><line x1="60" y1="300.0" x2="740.0" y2="300.0" class="grid"/><line x1="400.0" y1="60" x2="400.0" y2="540.0" class="grid"/><line x1="60" y1="420.0" x2="740.0" y2="420.0" class="grid"/><line x1="570.0" y1="60" x2="570.0" y2="540.0" class="grid"/><line x1="60" y1="540.0" x2="740.0" y2="540.0" class="grid"/><line x1="740.0" y1="60" x2="740.0" y2="540.0" class="grid"/><path d="M117,300 L125,300 L133,300 L141,300 L150,300 L650,300 L659,300 L667,300 L675,300 L683,300 " fill="none" stroke="#2563eb" stroke-width="2" opacity="0.5"/><path d="M150,300 L152,300 L155,300 L157,300 L159,300 L162,300 L164,300 L167,300 L169,300 L172,300 L174,300 L177,300 L179,300 L182,300 L184,300 L187,300 L189,300 L191,300 L194,300 L196,300 L199,300 L201,300 L204,300 L206,300 L209,300 L211,300 L214,300 L216,300 L219,300 L221,300 L224,300 L226,300 L228,300 L231,300 L233,300 L236,300 L238,300 L241,300 L243,300 L246,300 L248,300 L251,300 L253,300 L256,300 L258,300 L260,300 L263,300 L265,300 L268,300 L270,300 L273,300 L275,300 L278,300 L280,300 L283,300 L285,300 L288,300 L290,300 L292,300 L295,300 L297,300 L300,300 L302,300 L305,300 L307,300 L310,300 L312,300 L315,300 L317,300 L320,300 L322,300 L325,300 L327,300 L329,300 L332,300 L334,300 L337,300 L339,300 L342,300 L344,300 L347,300 L349,300 L352,300 L354,300 L357,300 L359,300 L361,300 L364,300 L366,300 L369,300 L371,300 L374,300 L376,300 L379,300 L381,300 L384,300 L386,300 L389,300 L391,300 L394,300 L396,300 L398,300 L401,300 L403,300 L406,300 L408,300 L411,300 L413,300 L416,300 L418,300 L421,300 L423,300 L426,300 L428,300 L430,300 L433,300 L435,300 L438,300 L440,300 L443,300 L445,300 L448,300 L450,300 L453,300 L455,300 L458,300 L460,300 L462,300 L465,300 L467,300 L470,300 L472,300 L475,300 L477,300 L480,300 L482,300 L485,300 L487,300 L490,300 L492,300 L495,300 L497,300 L499,300 L502,300 L504,300 L507,300 L509,300 L512,300 L514,300 L517,300 L519,300 L522,300 L524,300 L527,300 L529,300 L531,300 L534,300 L536,300 L539,300 L541,300 L544,300 L546,300 L549,300 L551,300 L554,300 L556,300 L559,300 L561,300 L564,300 L566,300 L568,300 L571,300 L573,300 L576,300 L578,300 L581,300 L583,300 L586,300 L588,300 L591,300 L593,300 L596,300 L598,300 L600,300 L603,300 L605,300 L608,300 L610,300 L613,300 L615,300 L618,300 L620,300 L623,300 L625,300 L628,300 L630,300 L632,300 L635,300 L637,300 L640,300 " fill="none" stroke="#dc2626" stroke-width="2" opacity="0.7" stroke-dasharray="6,3"/><path d="M158,300 L160,300 L163,300 L165,300 L168,300 L170,300 L173,300 L175,300 L178,300 L180,300 L182,300 L185,300 L187,300 L190,300 L192,300 L195,300 L197,300 L200,300 L202,300 L205,300 L207,300 L210,300 L212,300 L214,300 L217,300 L219,300 L222,300 L224,300 L227,300 L229,300 L232,300 L234,300 L237,300 L239,300 L242,300 L244,300 L247,300 L249,300 L251,300 L254,300 L256,300 L259,300 L261,300 L264,300 L266,300 L269,300 L271,300 L274,300 L276,300 L279,300 L281,300 L283,300 L286,300 L288,300 L291,300 L293,300 L296,300 L298,300 L301,300 L303,300 L306,300 L308,300 L311,300 L313,300 L315,300 L318,300 L320,300 L323,300 L325,300 L328,300 L330,300 L333,300 L335,300 L338,300 L340,300 L343,300 L345,300 L348,300 L350,300 L352,300 L355,300 L357,300 L360,300 L362,300 L365,300 L367,300 L370,300 L372,300 L375,300 L377,300 L380,300 L382,300 L384,300 L387,300 L389,300 L392,300 L394,300 L397,300 L399,300 L402,300 L404,300 L407,300 L409,300 L412,300 L414,300 L417,300 L419,300 L421,300 L424,300 L426,300 L429,300 L431,300 L434,300 L436,300 L439,300 L441,300 L444,300 L446,300 L449,300 L451,300 L453,300 L456,300 L458,300 L461,300 L463,300 L466,300 L468,300 L471,300 L473,300 L476,300 L478,300 L481,300 L483,300 L485,300 L488,300 L490,300 L493,300 L495,300 L498,300 L500,300 L503,300 L505,300 L508,300 L510,300 L513,300 L515,300 L518,300 L520,300 L522,300 L525,300 L527,300 L530,300 L532,300 L535,300 L537,300 L540,300 L542,300 L545,300 L547,300 L550,300 L552,300 L554,300 L557,300 L559,300 L562,300 L564,300 L567,300 L569,300 L572,300 L574,300 L577,300 L579,300 L582,300 L584,300 L587,300 L589,300 L591,300 L594,300 L596,300 L599,300 L601,300 L604,300 L606,300 L609,300 L611,300 L614,300 L616,300 L619,300 L621,300 L623,300 L626,300 L628,300 L631,300 L633,300 L636,300 L638,300 L641,300 L643,300 L646,300 L648,300 " fill="none" stroke="#16a34a" stroke-width="2" opacity="0.7" stroke-dasharray="3,3"/><path d="M150,300 L152,300 L155,300 L157,300 L159,300 L162,300 L164,300 L167,300 L169,300 L172,300 L174,300 L177,300 L179,300 L182,300 L184,300 L187,300 L189,300 L192,300 L194,300 L197,300 L199,300 L201,300 L204,300 L206,300 L209,300 L211,300 L214,300 L216,300 L219,300 L221,300 L224,300 L226,300 L229,300 L231,300 L234,300 L236,300 L239,300 L241,300 L244,300 L246,300 L249,300 L251,300 L253,300 L256,300 L258,300 L261,300 L263,300 L266,300 L268,300 L271,300 L273,300 L276,300 L278,300 L281,300 L283,300 L286,300 L288,300 L291,300 L293,300 L296,300 L298,300 L301,300 L303,300 L306,300 L308,300 L311,300 L313,300 L316,300 L318,300 L321,300 L323,300 L326,300 L328,300 L331,300 L333,300 L336,300 L338,300 L341,300 L343,300 L346,300 L348,300 L351,300 L353,300 L356,300 L358,300 L361,300 L363,300 L366,300 L368,300 L371,300 L373,300 L376,300 L378,300 L381,300 L383,300 L386,300 L388,300 L391,300 L393,300 L396,300 L398,300 L401,300 L403,300 L406,300 L408,300 L411,300 L413,300 L416,300 L418,300 L421,300 L423,300 L426,300 L428,300 L431,300 L433,300 L436,300 L438,300 L441,300 L443,300 L446,300 L448,300 L451,300 L453,300 L456,300 L458,300 L461,300 L463,300 L466,300 L468,300 L471,300 L473,300 L476,300 L478,300 L481,300 L483,300 L486,300 L489,300 L491,300 L494,300 L496,300 L499,300 L501,300 L504,300 L506,300 L509,300 L511,300 L514,300 L516,300 L519,300 L521,300 L524,300 L526,300 L529,300 L531,300 L534,300 L536,300 L539,300 L542,300 L544,300 L547,300 L549,300 L552,300 L554,300 L557,300 L559,300 L562,300 L564,300 L567,300 L569,300 L572,300 L574,300 L577,300 L579,300 L582,300 L585,300 L587,300 L590,300 L592,300 L595,300 L597,300 L600,300 L602,300 L605,300 L607,300 L610,300 L612,300 L615,300 L618,300 L620,300 L623,300 L625,300 L628,300 L630,300 L633,300 L635,300 L638,300 L640,300 L643,300 L645,300 L648,300 " fill="none" stroke="#ea580c" stroke-width="2" opacity="0.7" stroke-dasharray="8,3,2,3"/><circle cx="117" cy="300" r="4" fill="#2563eb" stroke="#2563eb"/><circle cx="125" cy="300" r="4" fill="#2563eb" stroke="#2563eb"/><circle cx="133" cy="300" r="4" fill="#2563eb" stroke="#2563eb"/><circle cx="141" cy="300" r="4" fill="#2563eb" stroke="#2563eb"/><circle cx="150" cy="300" r="4" fill="#2563eb" stroke="#2563eb"/><circle cx="650" cy="300" r="4" fill="#2563eb" stroke="#2563eb"/><circle cx="659" cy="300" r="4" fill="#2563eb" stroke="#2563eb"/><circle cx="667" cy="300" r="4" fill="#2563eb" stroke="#2563eb"/><circle cx="675" cy="300" r="4" fill="#2563eb" stroke="#2563eb"/><circle cx="683" cy="300" r="4" fill="#2563eb" stroke="#2563eb"/><circle cx="580" cy="530" r="4" fill="#2563eb"/>
<text x="590.0" y="534.0" class="label">GNSS fix</text><line x1="570.0" y1="546" x2="584.0" y2="546" stroke="#dc2626" stroke-width="2" stroke-dasharray="6,3"/>
<text x="590.0" y="550.0" class="label">IMU-only</text><line x1="570.0" y1="562" x2="584.0" y2="562" stroke="#16a34a" stroke-width="2" stroke-dasharray="3,3"/>
<text x="590.0" y="566.0" class="label">Linear</text><line x1="570.0" y1="578" x2="584.0" y2="578" stroke="#ea580c" stroke-width="2" stroke-dasharray="8,3,2,3"/>
<text x="590.0" y="582.0" class="label">EndpointConstrained</text>
</svg>