<svg xmlns="http://www.w3.org/2000/svg" viewBox="0 0 800 600" width="800" height="600">
<style>
  .title { font: bold 16px sans-serif; fill: #1f2937; }
  .desc { font: 12px sans-serif; fill: #6b7280; }
  .label { font: 10px monospace; fill: #374151; }
  .grid { stroke: #e5e7eb; stroke-width: 0.5; }
</style>
<rect width="800" height="600" fill="#fafafa" rx="4"/>
<text x="60" y="24" class="title">Tunnel Traverse (Curved)</text>
<text x="60" y="42" class="desc">60s GNSS outage at 72 km/h — gentle 30° right curve inside tunnel</text>
<line x1="60" y1="60.0" x2="740.0" y2="60.0" class="grid"/><line x1="60.0" y1="60" x2="60.0" y2="540.0" class="grid"/><line x1="60" y1="180.0" x2="740.0" y2="180.0" class="grid"/><line x1="230.0" y1="60" x2="230.0" y2="540.0" class="grid"/><line x1="60" y1="300.0" x2="740.0" y2="300.0" class="grid"/><line x1="400.0" y1="60" x2="400.0" y2="540.0" class="grid"/><line x1="60" y1="420.0" x2="740.0" y2="420.0" class="grid"/><line x1="570.0" y1="60" x2="570.0" y2="540.0" class="grid"/><line x1="60" y1="540.0" x2="740.0" y2="540.0" class="grid"/><line x1="740.0" y1="60" x2="740.0" y2="540.0" class="grid"/><path d="M117,100 L126,100 L135,100 L144,100 L153,100 L652,459 L660,469 L668,480 L676,490 L683,500 " fill="none" stroke="#2563eb" stroke-width="2" opacity="0.5"/><path d="M153,100 L155,100 L158,100 L161,100 L164,100 L166,100 L169,100 L172,100 L174,100 L177,100 L180,100 L182,100 L185,100 L188,100 L190,100 L193,100 L196,100 L199,100 L201,100 L204,100 L207,100 L209,100 L212,100 L215,100 L217,100 L220,100 L223,100 L226,100 L228,100 L231,100 L234,100 L236,100 L239,100 L242,100 L244,100 L247,100 L250,100 L253,100 L255,100 L258,100 L261,100 L263,100 L266,100 L269,100 L271,100 L274,100 L277,100 L280,100 L282,100 L285,100 L288,100 L290,100 L293,100 L296,100 L298,100 L301,100 L304,100 L307,100 L309,100 L312,100 L315,100 L317,100 L320,100 L323,100 L325,100 L328,100 L331,100 L333,100 L336,100 L339,100 L342,101 L344,101 L347,101 L350,102 L352,103 L355,103 L358,104 L360,105 L363,106 L366,107 L368,109 L371,110 L374,111 L376,113 L379,115 L381,116 L384,118 L386,120 L389,122 L392,124 L394,126 L397,128 L399,131 L402,133 L404,136 L407,138 L409,141 L411,144 L414,147 L416,149 L418,153 L421,156 L423,159 L425,162 L428,165 L430,168 L432,171 L435,174 L437,177 L439,180 L442,183 L444,186 L446,189 L449,192 L451,195 L453,199 L456,202 L458,205 L460,208 L463,211 L465,214 L467,217 L470,220 L472,223 L474,226 L477,229 L479,232 L482,235 L484,238 L486,242 L489,245 L491,248 L493,251 L496,254 L498,257 L500,260 L503,263 L505,266 L507,269 L510,272 L512,275 L514,278 L517,281 L519,284 L521,288 L524,291 L526,294 L528,297 L531,300 L533,303 L535,306 L538,309 L540,312 L542,315 L545,318 L547,321 L549,324 L552,327 L554,331 L556,334 L559,337 L561,340 L563,343 L566,346 L568,349 L570,352 L573,355 L575,358 L577,361 L580,364 L582,367 L584,370 L587,373 L589,377 L591,380 L594,383 L596,386 L598,389 L601,392 L603,395 L605,398 L608,401 L610,404 L612,407 L615,410 L617,413 L619,416 L622,419 L624,423 L626,426 L629,429 L631,432 L633,435 L636,438 L638,441 L640,444 L643,447 L645,450 L647,453 L650,456 " fill="none" stroke="#dc2626" stroke-width="2" opacity="0.7" stroke-dasharray="6,3"/><path d="M161,106 L163,108 L166,110 L168,111 L171,113 L173,115 L176,117 L178,118 L181,120 L183,122 L185,124 L188,125 L190,127 L193,129 L195,131 L198,132 L200,134 L203,136 L205,138 L208,140 L210,141 L213,143 L215,145 L217,147 L220,148 L222,150 L225,152 L227,154 L230,155 L232,157 L235,159 L237,161 L240,162 L242,164 L244,166 L247,168 L249,170 L252,171 L254,173 L257,175 L259,177 L262,178 L264,180 L267,182 L269,184 L271,185 L274,187 L276,189 L279,191 L281,192 L284,194 L286,196 L289,198 L291,200 L294,201 L296,203 L298,205 L301,207 L303,208 L306,210 L308,212 L311,214 L313,215 L316,217 L318,219 L321,221 L323,223 L326,224 L328,226 L330,228 L333,230 L335,231 L338,233 L340,235 L343,237 L345,238 L348,240 L350,242 L353,244 L355,245 L357,247 L360,249 L362,251 L365,253 L367,254 L370,256 L372,258 L375,260 L377,261 L380,263 L382,265 L384,267 L387,268 L389,270 L392,272 L394,274 L397,275 L399,277 L402,279 L404,281 L407,283 L409,284 L411,286 L414,288 L416,290 L419,291 L421,293 L424,295 L426,297 L429,298 L431,300 L434,302 L436,304 L439,306 L441,307 L443,309 L446,311 L448,313 L451,314 L453,316 L456,318 L458,320 L461,321 L463,323 L466,325 L468,327 L470,328 L473,330 L475,332 L478,334 L480,336 L483,337 L485,339 L488,341 L490,343 L493,344 L495,346 L497,348 L500,350 L502,351 L505,353 L507,355 L510,357 L512,358 L515,360 L517,362 L520,364 L522,366 L525,367 L527,369 L529,371 L532,373 L534,374 L537,376 L539,378 L542,380 L544,381 L547,383 L549,385 L552,387 L554,389 L556,390 L559,392 L561,394 L564,396 L566,397 L569,399 L571,401 L574,403 L576,404 L579,406 L581,408 L583,410 L586,411 L588,413 L591,415 L593,417 L596,419 L598,420 L601,422 L603,424 L606,426 L608,427 L610,429 L613,431 L615,433 L618,434 L620,436 L623,438 L625,440 L628,441 L630,443 L633,445 L635,447 L638,449 L640,450 L642,452 L645,454 L647,456 L650,457 " fill="none" stroke="#16a34a" stroke-width="2" opacity="0.7" stroke-dasharray="3,3"/><path d="M153,100 L155,100 L158,100 L161,100 L164,100 L166,100 L169,100 L172,100 L174,100 L177,100 L180,100 L182,100 L185,100 L188,100 L190,100 L193,100 L196,100 L199,100 L201,100 L204,100 L207,100 L209,100 L212,100 L215,100 L217,100 L220,100 L223,100 L226,100 L228,100 L231,100 L234,100 L236,100 L239,100 L242,100 L244,100 L247,100 L250,100 L253,100 L255,100 L258,100 L261,100 L263,100 L266,100 L269,100 L271,100 L274,100 L277,100 L280,100 L282,100 L285,100 L288,100 L290,100 L293,100 L296,100 L298,100 L301,100 L304,100 L307,100 L309,100 L312,100 L315,100 L317,100 L320,100 L323,100 L325,100 L328,100 L331,100 L334,100 L336,100 L339,100 L342,101 L344,101 L347,101 L350,102 L352,103 L355,103 L358,104 L360,105 L363,106 L366,107 L368,109 L371,110 L374,111 L376,113 L379,114 L381,116 L384,118 L387,120 L389,122 L392,124 L394,126 L397,128 L399,131 L402,133 L404,136 L407,138 L409,141 L411,144 L414,146 L416,149 L418,152 L421,156 L423,159 L426,162 L428,165 L430,168 L433,171 L435,174 L437,177 L440,180 L442,183 L444,186 L447,189 L449,192 L451,195 L454,198 L456,202 L458,205 L461,208 L463,211 L465,214 L468,217 L470,220 L472,223 L475,226 L477,229 L479,232 L482,235 L484,238 L486,241 L489,244 L491,248 L493,251 L496,254 L498,257 L500,260 L503,263 L505,266 L507,269 L510,272 L512,275 L514,278 L517,281 L519,284 L521,287 L524,291 L526,294 L528,297 L531,300 L533,303 L535,306 L538,309 L540,312 L542,315 L545,318 L547,321 L549,324 L552,327 L554,330 L556,333 L559,337 L561,340 L563,343 L566,346 L568,349 L570,352 L573,355 L575,358 L577,361 L580,364 L582,367 L584,370 L587,373 L589,376 L591,379 L594,383 L596,386 L598,389 L601,392 L603,395 L605,398 L608,401 L610,404 L613,407 L615,410 L617,413 L620,416 L622,419 L624,422 L627,425 L629,429 L631,432 L634,435 L636,438 L638,441 L641,444 L643,447 L645,450 L648,453 L650,456 " fill="none" stroke="#ea580c" stroke-width="2" opacity="0.7" stroke-dasharray="8,3,2,3"/><circle cx="117" cy="100" r="4" fill="#2563eb" stroke="#2563eb"/><circle cx="126" cy="100" r="4" fill="#2563eb" stroke="#2563eb"/><circle cx="135" cy="100" r="4" fill="#2563eb" stroke="#2563eb"/><circle cx="144" cy="100" r="4" fill="#2563eb" stroke="#2563eb"/><circle cx="153" cy="100" r="4" fill="#2563eb" stroke="#2563eb"/><circle cx="652" cy="459" r="4" fill="#2563eb" stroke="#2563eb"/><circle cx="660" cy="469" r="4" fill="#2563eb" stroke="#2563eb"/><circle cx="668" cy="480" r="4" fill="#2563eb" stroke="#2563eb"/><circle cx="676" cy="490" r="4" fill="#2563eb" stroke="#2563eb"/><circle cx="683" cy="500" r="4" fill="#2563eb" stroke="#2563eb"/><circle cx="580" cy="530" r="4" fill="#2563eb"/>
<text x="590.0" y="534.0" class="label">GNSS fix</text><line x1="570.0" y1="546" x2="584.0" y2="546" stroke="#dc2626" stroke-width="2" stroke-dasharray="6,3"/>
<text x="590.0" y="550.0" class="label">IMU-only</text><line x1="570.0" y1="562" x2="584.0" y2="562" stroke="#16a34a" stroke-width="2" stroke-dasharray="3,3"/>
<text x="590.0" y="566.0" class="label">Linear</text><line x1="570.0" y1="578" x2="584.0" y2="578" stroke="#ea580c" stroke-width="2" stroke-dasharray="8,3,2,3"/>
<text x="590.0" y="582.0" class="label">EndpointConstrained</text>
</svg>