<svg xmlns="http://www.w3.org/2000/svg" viewBox="0 0 800 600" width="800" height="600">
<style>
  .title { font: bold 16px sans-serif; fill: #1f2937; }
  .desc { font: 12px sans-serif; fill: #6b7280; }
  .label { font: 10px monospace; fill: #374151; }
  .grid { stroke: #e5e7eb; stroke-width: 0.5; }
</style>
<rect width="800" height="600" fill="#fafafa" rx="4"/>
<text x="60" y="24" class="title">Urban Canyon</text>
<text x="60" y="42" class="desc">Rapid GNSS good/bad alternation — 8 cycles, 3s good + 2s DR, walking north</text>
<line x1="60" y1="60.0" x2="740.0" y2="60.0" class="grid"/><line x1="60.0" y1="60" x2="60.0" y2="540.0" class="grid"/><line x1="60" y1="180.0" x2="740.0" y2="180.0" class="grid"/><line x1="230.0" y1="60" x2="230.0" y2="540.0" class="grid"/><line x1="60" y1="300.0" x2="740.0" y2="300.0" class="grid"/><line x1="400.0" y1="60" x2="400.0" y2="540.0" class="grid"/><line x1="60" y1="420.0" x2="740.0" y2="420.0" class="grid"/><line x1="570.0" y1="60" x2="570.0" y2="540.0" class="grid"/><line x1="60" y1="540.0" x2="740.0" y2="540.0" class="grid"/><line x1="740.0" y1="60" x2="740.0" y2="540.0" class="grid"/><path d="M400,500 L400,489 L400,479 L400,447 L400,436 L400,426 L400,394 L400,383 L400,372 L400,341 L400,330 L400,319 L400,287 L400,277 L400,266 L400,234 L400,224 L400,213 L400,181 L400,170 L400,160 L400,128 L400,117 L400,107 " fill="none" stroke="#2563eb" stroke-width="2" opacity="0.5"/><path d="M400,478 L400,477 L400,477 L400,477 L400,477 L400,477 L400,476 L400,476 L400,476 L400,476 L400,475 L400,475 L400,475 L400,475 L400,475 L400,474 L400,474 L400,474 L400,474 L400,473 L400,473 L400,473 L400,473 L400,473 L400,472 L400,472 L400,424 L400,424 L400,424 L400,424 L400,424 L400,423 L400,423 L400,423 L400,423 L400,422 L400,422 L400,422 L400,422 L400,422 L400,421 L400,421 L400,421 L400,421 L400,420 L400,420 L400,420 L400,420 L400,419 L400,419 L400,419 L400,371 L400,371 L400,371 L400,371 L400,370 L400,370 L400,370 L400,370 L400,370 L400,369 L400,369 L400,369 L400,369 L400,368 L400,368 L400,368 L400,368 L400,368 L400,367 L400,367 L400,367 L400,367 L400,366 L400,366 L400,366 L400,366 L400,318 L400,318 L400,318 L400,317 L400,317 L400,317 L400,317 L400,317 L400,316 L400,316 L400,316 L400,316 L400,315 L400,315 L400,315 L400,315 L400,315 L400,314 L400,314 L400,314 L400,314 L400,313 L400,313 L400,313 L400,313 L400,265 L400,265 L400,265 L400,264 L400,264 L400,264 L400,264 L400,264 L400,263 L400,263 L400,263 L400,263 L400,262 L400,262 L400,262 L400,262 L400,262 L400,261 L400,261 L400,261 L400,261 L400,260 L400,260 L400,260 L400,260 L400,259 L400,212 L400,212 L400,211 L400,211 L400,211 L400,211 L400,210 L400,210 L400,210 L400,210 L400,210 L400,209 L400,209 L400,209 L400,209 L400,208 L400,208 L400,208 L400,208 L400,208 L400,207 L400,207 L400,207 L400,207 L400,206 L400,159 L400,159 L400,158 L400,158 L400,158 L400,158 L400,157 L400,157 L400,157 L400,157 L400,157 L400,156 L400,156 L400,156 L400,156 L400,155 L400,155 L400,155 L400,155 L400,155 L400,154 L400,154 L400,154 L400,154 L400,153 L400,153 L400,105 L400,105 L400,105 L400,105 L400,105 L400,104 L400,104 L400,104 L400,104 L400,104 L400,103 L400,103 L400,103 L400,103 L400,102 L400,102 L400,102 L400,102 L400,101 L400,101 L400,101 L400,101 L400,101 L400,100 L400,100 " fill="none" stroke="#dc2626" stroke-width="2" opacity="0.7" stroke-dasharray="6,3"/><path d="M400,467 L400,467 L400,467 L400,467 L400,467 L400,466 L400,466 L400,466 L400,466 L400,466 L400,465 L400,465 L400,465 L400,465 L400,465 L400,464 L400,464 L400,464 L400,464 L400,464 L400,463 L400,463 L400,463 L400,463 L400,462 L400,462 L400,414 L400,414 L400,414 L400,414 L400,413 L400,413 L400,413 L400,413 L400,413 L400,412 L400,412 L400,412 L400,412 L400,411 L400,411 L400,411 L400,411 L400,411 L400,410 L400,410 L400,410 L400,410 L400,410 L400,409 L400,409 L400,361 L400,361 L400,361 L400,360 L400,360 L400,360 L400,360 L400,360 L400,359 L400,359 L400,359 L400,359 L400,359 L400,358 L400,358 L400,358 L400,358 L400,358 L400,357 L400,357 L400,357 L400,357 L400,357 L400,356 L400,356 L400,356 L400,308 L400,308 L400,307 L400,307 L400,307 L400,307 L400,307 L400,306 L400,306 L400,306 L400,306 L400,306 L400,305 L400,305 L400,305 L400,305 L400,305 L400,304 L400,304 L400,304 L400,304 L400,304 L400,303 L400,303 L400,303 L400,255 L400,255 L400,254 L400,254 L400,254 L400,254 L400,254 L400,253 L400,253 L400,253 L400,253 L400,253 L400,252 L400,252 L400,252 L400,252 L400,252 L400,251 L400,251 L400,251 L400,251 L400,250 L400,250 L400,250 L400,250 L400,250 L400,202 L400,201 L400,201 L400,201 L400,201 L400,201 L400,200 L400,200 L400,200 L400,200 L400,199 L400,199 L400,199 L400,199 L400,199 L400,198 L400,198 L400,198 L400,198 L400,198 L400,197 L400,197 L400,197 L400,197 L400,197 L400,149 L400,148 L400,148 L400,148 L400,148 L400,147 L400,147 L400,147 L400,147 L400,147 L400,146 L400,146 L400,146 L400,146 L400,146 L400,145 L400,145 L400,145 L400,145 L400,145 L400,144 L400,144 L400,144 L400,144 L400,144 L400,143 L400,105 L400,105 L400,105 L400,105 L400,105 L400,104 L400,104 L400,104 L400,104 L400,104 L400,103 L400,103 L400,103 L400,103 L400,102 L400,102 L400,102 L400,102 L400,101 L400,101 L400,101 L400,101 L400,101 L400,100 L400,100 " fill="none" stroke="#16a34a" stroke-width="2" opacity="0.7" stroke-dasharray="3,3"/><path d="M400,474 L400,474 L400,474 L400,473 L400,473 L400,473 L400,472 L400,472 L400,472 L400,471 L400,471 L400,471 L400,470 L400,470 L400,470 L400,469 L400,469 L400,468 L400,468 L400,468 L400,467 L400,467 L400,467 L400,466 L400,466 L400,465 L400,421 L400,421 L400,420 L400,420 L400,420 L400,419 L400,419 L400,419 L400,418 L400,418 L400,418 L400,417 L400,417 L400,417 L400,416 L400,416 L400,415 L400,415 L400,415 L400,414 L400,414 L400,414 L400,413 L400,413 L400,412 L400,368 L400,368 L400,368 L400,367 L400,367 L400,366 L400,366 L400,366 L400,365 L400,365 L400,365 L400,364 L400,364 L400,364 L400,363 L400,363 L400,363 L400,362 L400,362 L400,361 L400,361 L400,361 L400,360 L400,360 L400,359 L400,359 L400,315 L400,315 L400,314 L400,314 L400,314 L400,313 L400,313 L400,312 L400,312 L400,312 L400,311 L400,311 L400,311 L400,310 L400,310 L400,310 L400,309 L400,309 L400,308 L400,308 L400,308 L400,307 L400,307 L400,306 L400,306 L400,262 L400,262 L400,261 L400,261 L400,261 L400,260 L400,260 L400,259 L400,259 L400,259 L400,258 L400,258 L400,258 L400,257 L400,257 L400,257 L400,256 L400,256 L400,255 L400,255 L400,255 L400,254 L400,254 L400,254 L400,253 L400,253 L400,209 L400,208 L400,208 L400,208 L400,207 L400,207 L400,207 L400,206 L400,206 L400,205 L400,205 L400,205 L400,204 L400,204 L400,204 L400,203 L400,203 L400,203 L400,202 L400,202 L400,201 L400,201 L400,201 L400,200 L400,200 L400,156 L400,155 L400,155 L400,155 L400,154 L400,154 L400,154 L400,153 L400,153 L400,152 L400,152 L400,152 L400,151 L400,151 L400,151 L400,150 L400,150 L400,150 L400,149 L400,149 L400,148 L400,148 L400,148 L400,147 L400,147 L400,146 L400,105 L400,105 L400,105 L400,105 L400,105 L400,104 L400,104 L400,104 L400,104 L400,104 L400,103 L400,103 L400,103 L400,103 L400,102 L400,102 L400,102 L400,102 L400,101 L400,101 L400,101 L400,101 L400,101 L400,100 L400,100 " fill="none" stroke="#ea580c" stroke-width="2" opacity="0.7" stroke-dasharray="8,3,2,3"/><circle cx="400" cy="500" r="4" fill="#2563eb" stroke="#2563eb"/><circle cx="400" cy="489" r="4" fill="#2563eb" stroke="#2563eb"/><circle cx="400" cy="479" r="4" fill="#2563eb" stroke="#2563eb"/><circle cx="400" cy="447" r="4" fill="#2563eb" stroke="#2563eb"/><circle cx="400" cy="436" r="4" fill="#2563eb" stroke="#2563eb"/><circle cx="400" cy="426" r="4" fill="#2563eb" stroke="#2563eb"/><circle cx="400" cy="394" r="4" fill="#2563eb" stroke="#2563eb"/><circle cx="400" cy="383" r="4" fill="#2563eb" stroke="#2563eb"/><circle cx="400" cy="372" r="4" fill="#2563eb" stroke="#2563eb"/><circle cx="400" cy="341" r="4" fill="#2563eb" stroke="#2563eb"/><circle cx="400" cy="330" r="4" fill="#2563eb" stroke="#2563eb"/><circle cx="400" cy="319" r="4" fill="#2563eb" stroke="#2563eb"/><circle cx="400" cy="287" r="4" fill="#2563eb" stroke="#2563eb"/><circle cx="400" cy="277" r="4" fill="#2563eb" stroke="#2563eb"/><circle cx="400" cy="266" r="4" fill="#2563eb" stroke="#2563eb"/><circle cx="400" cy="234" r="4" fill="#2563eb" stroke="#2563eb"/><circle cx="400" cy="224" r="4" fill="#2563eb" stroke="#2563eb"/><circle cx="400" cy="213" r="4" fill="#2563eb" stroke="#2563eb"/><circle cx="400" cy="181" r="4" fill="#2563eb" stroke="#2563eb"/><circle cx="400" cy="170" r="4" fill="#2563eb" stroke="#2563eb"/><circle cx="400" cy="160" r="4" fill="#2563eb" stroke="#2563eb"/><circle cx="400" cy="128" r="4" fill="#2563eb" stroke="#2563eb"/><circle cx="400" cy="117" r="4" fill="#2563eb" stroke="#2563eb"/><circle cx="400" cy="107" r="4" fill="#2563eb" stroke="#2563eb"/><circle cx="580" cy="530" r="4" fill="#2563eb"/>
<text x="590.0" y="534.0" class="label">GNSS fix</text><line x1="570.0" y1="546" x2="584.0" y2="546" stroke="#dc2626" stroke-width="2" stroke-dasharray="6,3"/>
<text x="590.0" y="550.0" class="label">IMU-only</text><line x1="570.0" y1="562" x2="584.0" y2="562" stroke="#16a34a" stroke-width="2" stroke-dasharray="3,3"/>
<text x="590.0" y="566.0" class="label">Linear</text><line x1="570.0" y1="578" x2="584.0" y2="578" stroke="#ea580c" stroke-width="2" stroke-dasharray="8,3,2,3"/>
<text x="590.0" y="582.0" class="label">EndpointConstrained</text>
</svg>