<svg xmlns="http://www.w3.org/2000/svg" viewBox="0 0 800 600" width="800" height="600">
<style>
  .title { font: bold 16px sans-serif; fill: #1f2937; }
  .desc { font: 12px sans-serif; fill: #6b7280; }
  .label { font: 10px monospace; fill: #374151; }
  .grid { stroke: #e5e7eb; stroke-width: 0.5; }
</style>
<rect width="800" height="600" fill="#fafafa" rx="4"/>
<text x="60" y="24" class="title">Urban Canyon</text>
<text x="60" y="42" class="desc">Rapid GNSS good/bad alternation — 8 cycles, 3s good + 2s DR, walking north</text>
<line x1="60" y1="60.0" x2="740.0" y2="60.0" class="grid"/><line x1="60.0" y1="60" x2="60.0" y2="540.0" class="grid"/><line x1="60" y1="180.0" x2="740.0" y2="180.0" class="grid"/><line x1="230.0" y1="60" x2="230.0" y2="540.0" class="grid"/><line x1="60" y1="300.0" x2="740.0" y2="300.0" class="grid"/><line x1="400.0" y1="60" x2="400.0" y2="540.0" class="grid"/><line x1="60" y1="420.0" x2="740.0" y2="420.0" class="grid"/><line x1="570.0" y1="60" x2="570.0" y2="540.0" class="grid"/><line x1="60" y1="540.0" x2="740.0" y2="540.0" class="grid"/><line x1="740.0" y1="60" x2="740.0" y2="540.0" class="grid"/><path d="M400,500 L400,490 L400,480 L400,449 L400,439 L400,429 L400,398 L400,388 L400,378 L400,348 L400,338 L400,327 L400,297 L400,287 L400,277 L400,246 L400,236 L400,226 L400,195 L400,185 L400,175 L400,145 L400,135 L400,124 " fill="none" stroke="#2563eb" stroke-width="2" opacity="0.5"/><path d="M400,479 L400,478 L400,477 L400,476 L400,475 L400,474 L400,474 L400,473 L400,472 L400,471 L400,470 L400,469 L400,468 L400,467 L400,466 L400,465 L400,464 L400,463 L400,462 L400,461 L400,460 L400,459 L400,458 L400,457 L400,456 L400,428 L400,427 L400,426 L400,425 L400,425 L400,424 L400,423 L400,422 L400,421 L400,420 L400,419 L400,418 L400,417 L400,416 L400,415 L400,415 L400,414 L400,413 L400,412 L400,411 L400,410 L400,409 L400,408 L400,406 L400,405 L400,377 L400,376 L400,375 L400,375 L400,374 L400,373 L400,372 L400,371 L400,370 L400,369 L400,368 L400,368 L400,367 L400,366 L400,365 L400,364 L400,363 L400,362 L400,361 L400,360 L400,359 L400,358 L400,357 L400,356 L400,355 L400,326 L400,326 L400,325 L400,324 L400,323 L400,322 L400,321 L400,320 L400,320 L400,319 L400,318 L400,317 L400,316 L400,315 L400,314 L400,313 L400,312 L400,311 L400,310 L400,309 L400,308 L400,307 L400,306 L400,305 L400,304 L400,276 L400,275 L400,274 L400,273 L400,272 L400,271 L400,271 L400,270 L400,269 L400,268 L400,267 L400,266 L400,265 L400,264 L400,263 L400,262 L400,261 L400,260 L400,259 L400,258 L400,257 L400,256 L400,255 L400,254 L400,253 L400,225 L400,224 L400,223 L400,222 L400,222 L400,221 L400,220 L400,219 L400,218 L400,217 L400,216 L400,215 L400,214 L400,213 L400,212 L400,211 L400,211 L400,210 L400,209 L400,208 L400,207 L400,206 L400,205 L400,203 L400,202 L400,174 L400,173 L400,172 L400,172 L400,171 L400,170 L400,169 L400,168 L400,167 L400,166 L400,165 L400,165 L400,164 L400,163 L400,162 L400,161 L400,160 L400,159 L400,158 L400,157 L400,156 L400,155 L400,154 L400,153 L400,152 L400,123 L400,123 L400,122 L400,121 L400,120 L400,119 L400,118 L400,117 L400,116 L400,116 L400,115 L400,114 L400,113 L400,112 L400,111 L400,110 L400,109 L400,108 L400,107 L400,106 L400,105 L400,104 L400,103 L400,102 L400,101 " fill="none" stroke="#dc2626" stroke-width="2" opacity="0.7" stroke-dasharray="6,3"/><path d="M400,469 L400,468 L400,467 L400,467 L400,466 L400,465 L400,464 L400,463 L400,463 L400,462 L400,461 L400,460 L400,459 L400,459 L400,458 L400,457 L400,456 L400,456 L400,455 L400,454 L400,453 L400,452 L400,452 L400,451 L400,450 L400,418 L400,417 L400,417 L400,416 L400,415 L400,414 L400,413 L400,413 L400,412 L400,411 L400,410 L400,409 L400,409 L400,408 L400,407 L400,406 L400,406 L400,405 L400,404 L400,403 L400,402 L400,402 L400,401 L400,400 L400,399 L400,367 L400,367 L400,366 L400,365 L400,364 L400,363 L400,363 L400,362 L400,361 L400,360 L400,360 L400,359 L400,358 L400,357 L400,356 L400,356 L400,355 L400,354 L400,353 L400,352 L400,352 L400,351 L400,350 L400,349 L400,349 L400,317 L400,316 L400,315 L400,314 L400,313 L400,313 L400,312 L400,311 L400,310 L400,310 L400,309 L400,308 L400,307 L400,306 L400,306 L400,305 L400,304 L400,303 L400,302 L400,302 L400,301 L400,300 L400,299 L400,299 L400,298 L400,266 L400,265 L400,264 L400,264 L400,263 L400,262 L400,261 L400,260 L400,260 L400,259 L400,258 L400,257 L400,256 L400,256 L400,255 L400,254 L400,253 L400,253 L400,252 L400,251 L400,250 L400,249 L400,249 L400,248 L400,247 L400,215 L400,214 L400,214 L400,213 L400,212 L400,211 L400,210 L400,210 L400,209 L400,208 L400,207 L400,206 L400,206 L400,205 L400,204 L400,203 L400,203 L400,202 L400,201 L400,200 L400,199 L400,199 L400,198 L400,197 L400,196 L400,164 L400,164 L400,163 L400,162 L400,161 L400,160 L400,160 L400,159 L400,158 L400,157 L400,156 L400,156 L400,155 L400,154 L400,153 L400,153 L400,152 L400,151 L400,150 L400,149 L400,149 L400,148 L400,147 L400,146 L400,145 L400,123 L400,123 L400,122 L400,121 L400,120 L400,119 L400,118 L400,117 L400,116 L400,116 L400,115 L400,114 L400,113 L400,112 L400,111 L400,110 L400,109 L400,108 L400,107 L400,106 L400,105 L400,104 L400,103 L400,102 L400,101 " fill="none" stroke="#16a34a" stroke-width="2" opacity="0.7" stroke-dasharray="3,3"/><path d="M400,478 L400,477 L400,476 L400,475 L400,474 L400,473 L400,472 L400,471 L400,470 L400,469 L400,468 L400,467 L400,465 L400,464 L400,463 L400,462 L400,461 L400,460 L400,458 L400,457 L400,456 L400,454 L400,453 L400,452 L400,450 L400,427 L400,426 L400,425 L400,424 L400,423 L400,422 L400,421 L400,420 L400,419 L400,418 L400,417 L400,416 L400,415 L400,414 L400,412 L400,411 L400,410 L400,409 L400,408 L400,406 L400,405 L400,404 L400,402 L400,401 L400,400 L400,376 L400,375 L400,374 L400,374 L400,373 L400,372 L400,370 L400,369 L400,368 L400,367 L400,366 L400,365 L400,364 L400,363 L400,362 L400,360 L400,359 L400,358 L400,357 L400,355 L400,354 L400,353 L400,352 L400,350 L400,349 L400,326 L400,325 L400,324 L400,323 L400,322 L400,321 L400,320 L400,319 L400,318 L400,317 L400,315 L400,314 L400,313 L400,312 L400,311 L400,310 L400,308 L400,307 L400,306 L400,305 L400,303 L400,302 L400,301 L400,300 L400,298 L400,275 L400,274 L400,273 L400,272 L400,271 L400,270 L400,269 L400,268 L400,267 L400,266 L400,265 L400,264 L400,262 L400,261 L400,260 L400,259 L400,258 L400,256 L400,255 L400,254 L400,253 L400,251 L400,250 L400,249 L400,247 L400,224 L400,223 L400,222 L400,221 L400,220 L400,219 L400,218 L400,217 L400,216 L400,215 L400,214 L400,213 L400,212 L400,211 L400,209 L400,208 L400,207 L400,206 L400,204 L400,203 L400,202 L400,201 L400,199 L400,198 L400,197 L400,173 L400,172 L400,171 L400,170 L400,169 L400,168 L400,167 L400,166 L400,165 L400,164 L400,163 L400,162 L400,161 L400,160 L400,159 L400,157 L400,156 L400,155 L400,154 L400,152 L400,151 L400,150 L400,149 L400,147 L400,146 L400,123 L400,123 L400,122 L400,121 L400,120 L400,119 L400,118 L400,117 L400,116 L400,116 L400,115 L400,114 L400,113 L400,112 L400,111 L400,110 L400,109 L400,108 L400,107 L400,106 L400,105 L400,104 L400,103 L400,102 L400,101 " fill="none" stroke="#ea580c" stroke-width="2" opacity="0.7" stroke-dasharray="8,3,2,3"/><circle cx="400" cy="500" r="4" fill="#2563eb" stroke="#2563eb"/><circle cx="400" cy="490" r="4" fill="#2563eb" stroke="#2563eb"/><circle cx="400" cy="480" r="4" fill="#2563eb" stroke="#2563eb"/><circle cx="400" cy="449" r="4" fill="#2563eb" stroke="#2563eb"/><circle cx="400" cy="439" r="4" fill="#2563eb" stroke="#2563eb"/><circle cx="400" cy="429" r="4" fill="#2563eb" stroke="#2563eb"/><circle cx="400" cy="398" r="4" fill="#2563eb" stroke="#2563eb"/><circle cx="400" cy="388" r="4" fill="#2563eb" stroke="#2563eb"/><circle cx="400" cy="378" r="4" fill="#2563eb" stroke="#2563eb"/><circle cx="400" cy="348" r="4" fill="#2563eb" stroke="#2563eb"/><circle cx="400" cy="338" r="4" fill="#2563eb" stroke="#2563eb"/><circle cx="400" cy="327" r="4" fill="#2563eb" stroke="#2563eb"/><circle cx="400" cy="297" r="4" fill="#2563eb" stroke="#2563eb"/><circle cx="400" cy="287" r="4" fill="#2563eb" stroke="#2563eb"/><circle cx="400" cy="277" r="4" fill="#2563eb" stroke="#2563eb"/><circle cx="400" cy="246" r="4" fill="#2563eb" stroke="#2563eb"/><circle cx="400" cy="236" r="4" fill="#2563eb" stroke="#2563eb"/><circle cx="400" cy="226" r="4" fill="#2563eb" stroke="#2563eb"/><circle cx="400" cy="195" r="4" fill="#2563eb" stroke="#2563eb"/><circle cx="400" cy="185" r="4" fill="#2563eb" stroke="#2563eb"/><circle cx="400" cy="175" r="4" fill="#2563eb" stroke="#2563eb"/><circle cx="400" cy="145" r="4" fill="#2563eb" stroke="#2563eb"/><circle cx="400" cy="135" r="4" fill="#2563eb" stroke="#2563eb"/><circle cx="400" cy="124" r="4" fill="#2563eb" stroke="#2563eb"/><circle cx="580" cy="530" r="4" fill="#2563eb"/>
<text x="590.0" y="534.0" class="label">GNSS fix</text><line x1="570.0" y1="546" x2="584.0" y2="546" stroke="#dc2626" stroke-width="2" stroke-dasharray="6,3"/>
<text x="590.0" y="550.0" class="label">Raw DR</text><line x1="570.0" y1="562" x2="584.0" y2="562" stroke="#16a34a" stroke-width="2" stroke-dasharray="3,3"/>
<text x="590.0" y="566.0" class="label">Linear</text><line x1="570.0" y1="578" x2="584.0" y2="578" stroke="#ea580c" stroke-width="2" stroke-dasharray="8,3,2,3"/>
<text x="590.0" y="582.0" class="label">EndpointConstrained</text>
</svg>